{
.formatVersion = 3;
axes = (
{
name = Weight;
tag = wght;
}
);
classes = (
{
code = "A Aacute Abreve Abreveacute Abrevedotbelow Abrevegrave Abrevehookabove Abrevetilde Acircumflex Acircumflexacute Acircumflexdotbelow Acircumflexgrave Acircumflexhookabove Acircumflextilde Adieresis Adotbelow Agrave Ahookabove Amacron Aogonek Aring Atilde AE B C Cacute Ccaron Ccedilla Cdotaccent D Eth Dcaron Dcroat E Eacute Ecaron Ecircumflex Ecircumflexacute Ecircumflexdotbelow Ecircumflexgrave Ecircumflexhookabove Ecircumflextilde Edieresis Edotaccent Edotbelow Egrave Ehookabove Emacron Eogonek Etilde F G Gbreve Gcaron Gdotaccent Gmacron H Hbar I Iacute Icircumflex Idieresis Idotaccent Idotbelow Igrave Ihookabove Imacron Iogonek Itilde J K L Lacute Lcaron Lslash M N Nacute Ncaron Ntilde O Oacute Ocircumflex Ocircumflexacute Ocircumflexdotbelow Ocircumflexgrave Ocircumflexhookabove Ocircumflextilde Odieresis Odotbelow Ograve Ohookabove Ohorn Ohornacute Ohorndotbelow Ohorngrave Ohornhookabove Ohorntilde Ohungarumlaut Omacron Oslash Otilde OE P Thorn Q R Racute Rcaron S Sacute Scaron Scedilla Germandbls T Tbar Tcaron Tcedilla U Uacute Ucircumflex Udieresis Udotbelow Ugrave Uhookabove Uhorn Uhornacute Uhorndotbelow Uhorngrave Uhornhookabove Uhorntilde Uhungarumlaut Umacron Uogonek Uring Utilde V W Wacute Wcircumflex Wdieresis Wgrave X Y Yacute Ycircumflex Ydieresis Ydotbelow Ygrave Yhookabove Ytilde Z Zacute Zcaron Zdotaccent";
name = Uppercase;
},
{

glyphs = (
{
glyphname = A;
layers = (
{
anchors = (
{
name = bottom;
position = "{396, 0}";
},
{
name = ogonek;
position = "{771, 0}";
},
{
name = top;
position = "{396, 740}";
}
);
guides = (
{
angle = 90;
position = "{346, 0}";
}
);
layerId = "D43A2A6F-68E8-45C4-A912-BD747FE79F37";
shapes = (
{
closed = 1;
nodes = (
(220,0,l),
(259,124,l),
(532,124,l),
(571,0,l),
(771,0,l),
(525,740,l),
(266,740,l),
(20,0,l)
);
},
{
closed = 1;
nodes = (
(396,561,l),
(481,288,l),
(310,288,l)
);
}
);
width = 791;
},
{
anchors = (
{
name = bottom;
position = "{368, 0}";
},
{
name = ogonek;
position = "{691, 0}";
},
{
name = top;
position = "{368, 740}";
}
);
layerId = "F1D6C389-2D1A-40EB-B71A-932DD4B59B34";
shapes = (
{
closed = 1;
nodes = (
(149,0,l),
(211,177,l),
(525,177,l),
(587,0,l),
(691,0,l),
(429,740,l),
(306,740,l),
(45,0,l)
);
},
{
closed = 1;
nodes = (
(368,628,l),
(495,265,l),
(241,265,l)
);
}
);
width = 736;
},
{
anchors = (
{
name = bottom;
position = "{332, 0}";
},
{
name = ogonek;
position = "{619, 0}";
},
{
name = top;
position = "{332, 740}";
}
);
layerId = "C50750D9-3CEA-4BDB-8CD5-6DB84E6A41F9";
shapes = (
{
closed = 1;
nodes = (
(82,0,l),
(161,220,l),
(503,220,l),
(582,0,l),
(619,0,l),
(352,740,l),
(312,740,l),
(45,0,l)
);
},
{
closed = 1;
nodes = (
(332,697,l),
(492,252,l),
(172,252,l)
);
}
);
width = 664;
}
);
leftKerningGroup = A;
rightKerningGroup = A;
unicode = 65;
},
{
glyphname = Aacute;
layers = (
{
layerId = "D43A2A6F-68E8-45C4-A912-BD747FE79F37";
shapes = (
{
closed = 1;
nodes = (
(220,0,l),
(259,124,l),
(532,124,l),
(571,0,l),
(771,0,l),
(525,740,l),
(266,740,l),
(20,0,l)
);
},
{
closed = 1;
nodes = (
(396,561,l),
(481,288,l),
(310,288,l)
);
},
{
closed = 1;
nodes = (
(578,989,l),
(408,989,l),
(331,810,l),
(464,809,l)
);
}
);
width = 791;
},
{
layerId = "F1D6C389-2D1A-40EB-B71A-932DD4B59B34";
shapes = (
{
closed = 1;
nodes = (
(149,0,l),
(211,177,l),
(525,177,l),
(587,0,l),
(691,0,l),
(429,740,l),
(306,740,l),
(45,0,l)
);
},
{
closed = 1;
nodes = (
(368,628,l),
(495,265,l),
(241,265,l)
);
},
{
closed = 1;
nodes = (
(511,1001,l),
(413,1001,l),
(327,821,l),
(408,820,l)
);
}
);
width = 736;
},
{
layerId = "C50750D9-3CEA-4BDB-8CD5-6DB84E6A41F9";
shapes = (
{
closed = 1;
nodes = (
(77,0,l),
(156,220,l),
(498,220,l),
(577,0,l),
(614,0,l),
(347,740,l),
(307,740,l),
(40,0,l)
);
},
{
closed = 1;
nodes = (
(327,697,l),
(487,252,l),
(167,252,l)
);
},
{
closed = 1;
nodes = (
(441,980,l),
(400,980,l),
(315,828,l),
(349,828,l)
);
}
);
width = 654;
}
);
leftKerningGroup = A;
rightKerningGroup = A;
unicode = 193;
},
{
glyphname = Abreve;
layers = (
{
layerId = "D43A2A6F-68E8-45C4-A912-BD747FE79F37";
shapes = (
{
closed = 1;
nodes = (
(220,0,l),
(259,124,l),
(532,124,l),
(571,0,l),
(771,0,l),
(525,740,l),
(266,740,l),
(20,0,l)
);
},
{
closed = 1;
nodes = (
(396,561,l),
(481,288,l),
(310,288,l)
);
},
{
closed = 1;
nodes = (
(596,802,o),
(590,968,o),
(590,968,c),
(471,968,l),
(471,968,o),
(470,904,o),
(396,904,cs),
(322,904,o),
(321,968,o),
(321,968,c),
(202,968,l),
(202,968,o),
(196,802,o),
(396,802,cs)
);
}
);
width = 791;
},
{
layerId = "F1D6C389-2D1A-40EB-B71A-932DD4B59B34";
shapes = (
{
closed = 1;
nodes = (
(149,0,l),
(211,177,l),
(525,177,l),
(587,0,l),
(691,0,l),
(429,740,l),
(306,740,l),
(45,0,l)
);
},
{
closed = 1;
nodes = (
(368,628,l),
(495,265,l),
(241,265,l)
);
},
{
closed = 1;
nodes = (
(525,815,o),
(528,957,o),
(528,957,c),
(457,957,l),
(457,957,o),
(452,878,o),
(368,878,cs),
(284,878,o),
(279,957,o),
(279,957,c),
(208,957,l),
(208,957,o),
(211,815,o),
(368,815,cs)
);
}
);
width = 736;
},
{
layerId = "C50750D9-3CEA-4BDB-8CD5-6DB84E6A41F9";
shapes = (
{
closed = 1;
nodes = (
(77,0,l),
(156,220,l),
(498,220,l),
(577,0,l),
(614,0,l),
(347,740,l),
(307,740,l),
(40,0,l)
);
},
{
closed = 1;
nodes = (
(327,697,l),
(487,252,l),
(167,252,l)
);
},
{
closed = 1;
nodes = (
(453,823,o),
(461,933,o),
(461,933,c),
(430,933,l),
(430,933,o),
(423,852,o),
(327,852,cs),
(231,852,o),
(224,933,o),
(224,933,c),
(193,933,l),
(193,933,o),
(201,823,o),
(327,823,cs)
);
}
);
width = 654;
}
);
leftKerningGroup = A;
rightKerningGroup = A;
unicode = 258;
},
{
glyphname = Abreveacute;
layers = (
{
layerId = "D43A2A6F-68E8-45C4-A912-BD747FE79F37";
shapes = (
{
closed = 1;
nodes = (
(220,0,l),
(259,124,l),
(532,124,l),
(571,0,l),
(771,0,l),
(525,740,l),
(266,740,l),
(20,0,l)
);
},
{
closed = 1;
nodes = (
(396,561,l),
(481,288,l),
(310,288,l)
);
},
{
closed = 1;
nodes = (
(596,802,o),
(590,968,o),
(590,968,c),
(471,968,l),
(471,968,o),
(470,904,o),
(396,904,cs),
(322,904,o),
(321,968,o),
(321,968,c),
(202,968,l),
(202,968,o),
(196,802,o),
(396,802,cs)
);
},
{
closed = 1;
nodes = (
(578,1182,l),
(408,1182,l),
(331,1003,l),
(464,1002,l)
);
}
);
width = 791;
},
{
layerId = "F1D6C389-2D1A-40EB-B71A-932DD4B59B34";
shapes = (
{
closed = 1;
nodes = (
(149,0,l),
(211,177,l),
(525,177,l),
(587,0,l),
(691,0,l),
(429,740,l),
(306,740,l),
(45,0,l)
);
},
{
closed = 1;
nodes = (
(368,628,l),
(495,265,l),
(241,265,l)
);
},
{
closed = 1;
nodes = (
(525,815,o),
(528,957,o),
(528,957,c),
(457,957,l),
(457,957,o),
(452,878,o),
(368,878,cs),
(284,878,o),
(279,957,o),
(279,957,c),
(208,957,l),
(208,957,o),
(211,815,o),
(368,815,cs)
);
},
{
closed = 1;
nodes = (
(511,1166,l),
(413,1166,l),
(327,986,l),
(408,985,l)
);
}
);
width = 736;
},
{
layerId = "C50750D9-3CEA-4BDB-8CD5-6DB84E6A41F9";
shapes = (
{
closed = 1;
nodes = (
(77,0,l),
(156,220,l),
(498,220,l),
(577,0,l),
(614,0,l),
(347,740,l),
(307,740,l),
(40,0,l)
);
},
{
closed = 1;
nodes = (
(327,697,l),
(487,252,l),
(167,252,l)
);
},
{
closed = 1;
nodes = (
(453,823,o),
(461,933,o),
(461,933,c),
(430,933,l),
(430,933,o),
(423,852,o),
(327,852,cs),
(231,852,o),
(224,933,o),
(224,933,c),
(193,933,l),
(193,933,o),
(201,823,o),
(327,823,cs)
);
},
{
closed = 1;
nodes = (
(441,1108,l),
(400,1108,l),
(315,956,l),
(349,956,l)
);
}
);
width = 654;
}
);
leftKerningGroup = A;
rightKerningGroup = A;
unicode = 7854;
},
{
glyphname = Abrevedotbelow;
layers = (
{
layerId = "D43A2A6F-68E8-45C4-A912-BD747FE79F37";
shapes = (
{
closed = 1;
nodes = (
(220,0,l),
(259,124,l),
(532,124,l),
(571,0,l),
(771,0,l),
(525,740,l),
(266,740,l),
(20,0,l)
);
},
{
closed = 1;
nodes = (
(396,561,l),
(481,288,l),
(310,288,l)
);
},
{
closed = 1;
nodes = (
(447,-260,o),
(485,-220,o),
(485,-171,cs),
(485,-121,o),
(447,-82,o),
(396,-82,cs),
(343,-82,o),
(307,-121,o),
(307,-171,cs),
(307,-220,o),
(343,-260,o),
(396,-260,cs)
);
},
{
closed = 1;
nodes = (
(596,802,o),
(590,968,o),
(590,968,c),
(471,968,l),
(471,968,o),
(470,904,o),
(396,904,cs),
(322,904,o),
(321,968,o),
(321,968,c),
(202,968,l),
(202,968,o),
(196,802,o),
(396,802,cs)
);
}
);
width = 791;
},
{
layerId = "F1D6C389-2D1A-40EB-B71A-932DD4B59B34";
shapes = (
{
closed = 1;
nodes = (
(149,0,l),
(211,177,l),
(525,177,l),
(587,0,l),
(691,0,l),
(429,740,l),
(306,740,l),
(45,0,l)
);
},
{
closed = 1;
nodes = (
(368,628,l),
(495,265,l),
(241,265,l)
);
},
{
closed = 1;
nodes = (
(405,-227,o),
(433,-198,o),
(433,-162,cs),
(433,-126,o),
(405,-97,o),
(368,-97,cs),
(330,-97,o),
(303,-126,o),
(303,-162,cs),
(303,-197,o),
(330,-227,o),
(368,-227,cs)
);
},
{
closed = 1;
nodes = (
(525,815,o),
(528,957,o),
(528,957,c),
(457,957,l),
(457,957,o),
(452,878,o),
(368,878,cs),
(284,878,o),
(279,957,o),
(279,957,c),
(208,957,l),
(208,957,o),
(211,815,o),
(368,815,cs)
);
}
);
width = 736;
},
{
layerId = "C50750D9-3CEA-4BDB-8CD5-6DB84E6A41F9";
shapes = (
{
closed = 1;
nodes = (
(77,0,l),
(156,220,l),
(498,220,l),
(577,0,l),
(614,0,l),
(347,740,l),
(307,740,l),
(40,0,l)
);
},
{
closed = 1;
nodes = (
(327,697,l),
(487,252,l),
(167,252,l)
);
},
{
closed = 1;
nodes = (
(347,-192,o),
(364,-175,o),
(364,-154,cs),
(364,-134,o),
(347,-117,o),
(326,-117,cs),
(305,-117,o),
(289,-134,o),
(289,-154,cs),
(289,-175,o),
(305,-192,o),
(326,-192,cs)
);
},
{
closed = 1;
nodes = (
(453,823,o),
(461,933,o),
(461,933,c),
(430,933,l),
(430,933,o),
(423,852,o),
(327,852,cs),
(231,852,o),
(224,933,o),
(224,933,c),
(193,933,l),
(193,933,o),
(201,823,o),
(327,823,cs)
);
}
);
width = 654;
}
);
leftKerningGroup = A;
rightKerningGroup = A;
unicode = 7862;
},
{
glyphname = Abrevegrave;
layers = (
{
layerId = "D43A2A6F-68E8-45C4-A912-BD747FE79F37";
shapes = (
{
closed = 1;
nodes = (
(220,0,l),
(259,124,l),
(532,124,l),
(571,0,l),
(771,0,l),
(525,740,l),
(266,740,l),
(20,0,l)
);
},
{
closed = 1;
nodes = (
(396,561,l),
(481,288,l),
(310,288,l)
);
},
{
closed = 1;
nodes = (
(596,802,o),
(590,968,o),
(590,968,c),
(471,968,l),
(471,968,o),
(470,904,o),
(396,904,cs),
(322,904,o),
(321,968,o),
(321,968,c),
(202,968,l),
(202,968,o),
(196,802,o),
(396,802,cs)
);
},
{
closed = 1;
nodes = (
(464,1003,l),
(387,1182,l),
(217,1182,l),
(331,1002,l)
);
}
);
width = 791;
},
{
layerId = "F1D6C389-2D1A-40EB-B71A-932DD4B59B34";
shapes = (
{
closed = 1;
nodes = (
(149,0,l),
(211,177,l),
(525,177,l),
(587,0,l),
(691,0,l),
(429,740,l),
(306,740,l),
(45,0,l)
);
},
{
closed = 1;
nodes = (
(368,628,l),
(495,265,l),
(241,265,l)
);
},
{
closed = 1;
nodes = (
(523,815,o),
(526,957,o),
(526,957,c),
(455,957,l),
(455,957,o),
(450,878,o),
(366,878,cs),
(282,878,o),
(277,957,o),
(277,957,c),
(206,957,l),
(206,957,o),
(209,815,o),
(366,815,cs)
);
},
{
closed = 1;
nodes = (
(411,986,l),
(325,1166,l),
(227,1166,l),
(330,985,l)
);
}
);
width = 736;
},
{
layerId = "C50750D9-3CEA-4BDB-8CD5-6DB84E6A41F9";
shapes = (
{
closed = 1;
nodes = (
(77,0,l),
(156,220,l),
(498,220,l),
(577,0,l),
(614,0,l),
(347,740,l),
(307,740,l),
(40,0,l)
);
},
{
closed = 1;
nodes = (
(327,697,l),
(487,252,l),
(167,252,l)
);
},
{
closed = 1;
nodes = (
(453,823,o),
(461,933,o),
(461,933,c),
(430,933,l),
(430,933,o),
(423,852,o),
(327,852,cs),
(231,852,o),
(224,933,o),
(224,933,c),
(193,933,l),
(193,933,o),
(201,823,o),
(327,823,cs)
);
},
{
closed = 1;
nodes = (
(341,956,l),
(256,1108,l),
(215,1108,l),
(307,956,l)
);
}
);
width = 654;
}
);
leftKerningGroup = A;
rightKerningGroup = A;
unicode = 7856;
},
{
glyphname = Abrevehookabove;
layers = (
{
layerId = "D43A2A6F-68E8-45C4-A912-BD747FE79F37";
shapes = (
{
closed = 1;
nodes = (
(220,0,l),
(259,124,l),
(532,124,l),
(571,0,l),
(771,0,l),
(525,740,l),
(266,740,l),
(20,0,l)
);
},
{
closed = 1;
nodes = (
(396,561,l),
(481,288,l),
(310,288,l)
);
},
{
closed = 1;
nodes = (
(596,802,o),
(590,968,o),
(590,968,c),
(471,968,l),
(471,968,o),
(470,904,o),
(396,904,cs),
(322,904,o),
(321,968,o),
(321,968,c),
(202,968,l),
(202,968,o),
(196,802,o),
(396,802,cs)
);
},
{
closed = 1;
nodes = (
(448,988,l),
(448,1059,l),
(410,994,l),
(453,1018,ls),
(497,1042,o),
(539,1071,o),
(539,1125,cs),
(539,1186,o),
(485,1239,o),
(397,1239,cs),
(299,1239,o),
(261,1169,o),
(263,1113,c),
(364,1113,l),
(364,1113,o),
(364,1150,o),
(399,1150,cs),
(418,1150,o),
(431,1137,o),
(431,1121,cs),
(431,1099,o),
(415,1089,o),
(390,1076,cs),
(374,1068,ls),
(354,1058,o),
(346,1041,o),
(346,1021,cs),
(346,988,l)
);
}
);
width = 791;
},
{
layerId = "F1D6C389-2D1A-40EB-B71A-932DD4B59B34";
shapes = (
{
closed = 1;
nodes = (
(149,0,l),
(211,177,l),
(525,177,l),
(587,0,l),
(691,0,l),
(429,740,l),
(306,740,l),
(45,0,l)
);
},
{
closed = 1;
nodes = (
(368,628,l),
(495,265,l),
(241,265,l)
);
},
{
closed = 1;
nodes = (
(523,815,o),
(526,957,o),
(526,957,c),
(455,957,l),
(455,957,o),
(450,878,o),
(366,878,cs),
(282,878,o),
(277,957,o),
(277,957,c),
(206,957,l),
(206,957,o),
(209,815,o),
(366,815,cs)
);
},
{
closed = 1;
nodes = (
(399,978,l),
(399,1038,l),
(369,993,l),
(403,1009,ls),
(459,1036,o),
(483,1068,o),
(483,1106,cs),
(483,1157,o),
(439,1199,o),
(369,1199,cs),
(292,1199,o),
(258,1147,o),
(259,1098,c),
(325,1098,l),
(325,1109,o),
(330,1141,o),
(370,1141,cs),
(400,1141,o),
(414,1122,o),
(414,1104,cs),
(414,1085,o),
(400,1069,o),
(368,1053,cs),
(354,1046,ls),
(338,1038,o),
(334,1023,o),
(334,1010,cs),
(334,978,l)
);
}
);
width = 736;
},
{
layerId = "C50750D9-3CEA-4BDB-8CD5-6DB84E6A41F9";
shapes = (
{
closed = 1;
nodes = (
(77,0,l),
(156,220,l),
(498,220,l),
(577,0,l),
(614,0,l),
(347,740,l),
(307,740,l),
(40,0,l)
);
},
{
closed = 1;
nodes = (
(327,697,l),
(487,252,l),
(167,252,l)
);
},
{
closed = 1;
nodes = (
(453,823,o),
(461,933,o),
(461,933,c),
(430,933,l),
(430,933,o),
(423,852,o),
(327,852,cs),
(231,852,o),
(224,933,o),
(224,933,c),
(193,933,l),
(193,933,o),
(201,823,o),
(327,823,cs)
);
},
{
closed = 1;
nodes = (
(343,942,l),
(343,993,l),
(320,966,l),
(344,977,ls),
(399,1002,o),
(417,1032,o),
(417,1062,cs),
(417,1103,o),
(386,1133,o),
(335,1133,cs),
(284,1133,o),
(253,1103,o),
(253,1056,c),
(282,1056,l),
(282,1079,o),
(293,1105,o),
(335,1105,cs),
(374,1105,o),
(387,1081,o),
(387,1061,cs),
(387,1035,o),
(368,1016,o),
(340,1002,cs),
(328,996,ls),
(319,992,o),
(315,984,o),
(315,974,cs),
(315,942,l)
);
}
);
width = 654;
}
);
leftKerningGroup = A;
rightKerningGroup = A;
unicode = 7858;
},
{
glyphname = Abrevetilde;
layers = (
{
layerId = "D43A2A6F-68E8-45C4-A912-BD747FE79F37";
shapes = (
{
closed = 1;
nodes = (
(220,0,l),
(259,124,l),
(532,124,l),
(571,0,l),
(771,0,l),
(525,740,l),
(266,740,l),
(20,0,l)
);
},
{
closed = 1;
nodes = (
(396,561,l),
(481,288,l),
(310,288,l)
);
},
{
closed = 1;
nodes = (
(596,802,o),
(590,968,o),
(590,968,c),
(471,968,l),
(471,968,o),
(470,904,o),
(396,904,cs),
(322,904,o),
(321,968,o),
(321,968,c),
(202,968,l),
(202,968,o),
(196,802,o),
(396,802,cs)
);
},
{
closed = 1;
nodes = (
(565,1015,o),
(582,1105,o),
(582,1174,c),
(489,1174,l),
(489,1140,o),
(483,1121,o),
(464,1121,cs),
(430,1121,o),
(398,1180,o),
(325,1180,cs),
(234,1180,o),
(217,1090,o),
(217,1021,c),
(310,1021,l),
(310,1055,o),
(316,1074,o),
(336,1074,cs),
(372,1074,o),
(401,1015,o),
(474,1015,cs)
);
}
);
width = 791;
},
{
layerId = "F1D6C389-2D1A-40EB-B71A-932DD4B59B34";
shapes = (
{
closed = 1;
nodes = (
(149,0,l),
(211,177,l),
(525,177,l),
(587,0,l),
(691,0,l),
(429,740,l),
(306,740,l),
(45,0,l)
);
},
{
closed = 1;
nodes = (
(368,628,l),
(495,265,l),
(241,265,l)
);
},
{
closed = 1;
nodes = (
(525,815,o),
(528,957,o),
(528,957,c),
(457,957,l),
(457,957,o),
(452,878,o),
(368,878,cs),
(284,878,o),
(279,957,o),
(279,957,c),
(208,957,l),
(208,957,o),
(211,815,o),
(368,815,cs)
);
},
{
closed = 1;
nodes = (
(506,1002,o),
(525,1070,o),
(525,1132,c),
(461,1132,l),
(461,1095,o),
(451,1072,o),
(430,1072,cs),
(394,1072,o),
(374,1137,o),
(301,1137,cs),
(230,1137,o),
(211,1070,o),
(211,1008,c),
(275,1008,l),
(275,1044,o),
(284,1068,o),
(307,1068,cs),
(344,1068,o),
(364,1002,o),
(436,1002,cs)
);
}
);
width = 736;
},
{
layerId = "C50750D9-3CEA-4BDB-8CD5-6DB84E6A41F9";
shapes = (
{
closed = 1;
nodes = (
(77,0,l),
(156,220,l),
(498,220,l),
(577,0,l),
(614,0,l),
(347,740,l),
(307,740,l),
(40,0,l)
);
},
{
closed = 1;
nodes = (
(327,697,l),
(487,252,l),
(167,252,l)
);
},
{
closed = 1;
nodes = (
(453,823,o),
(461,933,o),
(461,933,c),
(430,933,l),
(430,933,o),
(423,852,o),
(327,852,cs),
(231,852,o),
(224,933,o),
(224,933,c),
(193,933,l),
(193,933,o),
(201,823,o),
(327,823,cs)
);
},
{
closed = 1;
nodes = (
(431,979,o),
(451,1026,o),
(451,1084,c),
(421,1084,l),
(421,1037,o),
(411,1008,o),
(386,1008,cs),
(346,1008,o),
(332,1089,o),
(268,1089,cs),
(221,1089,o),
(202,1042,o),
(202,984,c),
(232,984,l),
(232,1032,o),
(242,1060,o),
(268,1060,cs),
(311,1060,o),
(326,979,o),
(386,979,cs)
);
}
);
width = 654;
}
);
leftKerningGroup = A;
rightKerningGroup = A;
unicode = 7860;
},
{
glyphname = Acircumflex;
layers = (
{
layerId = "D43A2A6F-68E8-45C4-A912-BD747FE79F37";
shapes = (
{
closed = 1;
nodes = (
(220,0,l),
(259,124,l),
(532,124,l),
(571,0,l),
(771,0,l),
(525,740,l),
(266,740,l),
(20,0,l)
);
},
{
closed = 1;
nodes = (
(396,561,l),
(481,288,l),
(310,288,l)
);
},
{
closed = 1;
nodes = (
(329,799,l),
(397,880,l),
(464,799,l),
(605,799,l),
(470,958,l),
(323,958,l),
(188,799,l)
);
}
);
width = 791;
},
{
layerId = "F1D6C389-2D1A-40EB-B71A-932DD4B59B34";
shapes = (
{
closed = 1;
nodes = (
(149,0,l),
(211,177,l),
(525,177,l),
(587,0,l),
(691,0,l),
(429,740,l),
(306,740,l),
(45,0,l)
);
},
{
closed = 1;
nodes = (
(368,628,l),
(495,265,l),
(241,265,l)
);
},
{
closed = 1;
nodes = (
(293,816,l),
(368,908,l),
(444,816,l),
(530,816,l),
(409,963,l),
(328,963,l),
(207,816,l)
);
}
);
width = 736;
},
{
layerId = "C50750D9-3CEA-4BDB-8CD5-6DB84E6A41F9";
shapes = (
{
closed = 1;
nodes = (
(77,0,l),
(156,220,l),
(498,220,l),
(577,0,l),
(614,0,l),
(347,740,l),
(307,740,l),
(40,0,l)
);
},
{
closed = 1;
nodes = (
(327,697,l),
(487,252,l),
(167,252,l)
);
},
{
closed = 1;
nodes = (
(235,818,l),
(328,932,l),
(420,818,l),
(457,818,l),
(346,956,l),
(309,956,l),
(198,818,l)
);
}
);
width = 654;
}
);
leftKerningGroup = A;
rightKerningGroup = A;
unicode = 194;
},
{
glyphname = Acircumflexacute;
layers = (
{
layerId = "D43A2A6F-68E8-45C4-A912-BD747FE79F37";
shapes = (
{
closed = 1;
nodes = (
(220,0,l),
(259,124,l),
(532,124,l),
(571,0,l),
(771,0,l),
(525,740,l),
(266,740,l),
(20,0,l)
);
},
{
closed = 1;
nodes = (
(396,561,l),
(481,288,l),
(310,288,l)
);
},
{
closed = 1;
nodes = (
(328,799,l),
(396,880,l),
(463,799,l),
(604,799,l),
(469,958,l),
(322,958,l),
(187,799,l)
);
},
{
closed = 1;
nodes = (
(781,1109,l),
(611,1109,l),
(534,930,l),
(667,929,l)
);
}
);
width = 791;
},
{
layerId = "F1D6C389-2D1A-40EB-B71A-932DD4B59B34";
shapes = (
{
closed = 1;
nodes = (
(149,0,l),
(211,177,l),
(525,177,l),
(587,0,l),
(691,0,l),
(429,740,l),
(306,740,l),
(45,0,l)
);
},
{
closed = 1;
nodes = (
(368,628,l),
(495,265,l),
(241,265,l)
);
},
{
closed = 1;
nodes = (
(293,816,l),
(368,908,l),
(444,816,l),
(530,816,l),
(409,963,l),
(328,963,l),
(207,816,l)
);
},
{
closed = 1;
nodes = (
(664,1125,l),
(566,1125,l),
(480,945,l),
(561,944,l)
);
}
);
width = 736;
},
{
layerId = "C50750D9-3CEA-4BDB-8CD5-6DB84E6A41F9";
shapes = (
{
closed = 1;
nodes = (
(77,0,l),
(156,220,l),
(498,220,l),
(577,0,l),
(614,0,l),
(347,740,l),
(307,740,l),
(40,0,l)
);
},
{
closed = 1;
nodes = (
(327,697,l),
(487,252,l),
(167,252,l)
);
},
{
closed = 1;
nodes = (
(237,818,l),
(330,932,l),
(422,818,l),
(459,818,l),
(348,956,l),
(311,956,l),
(200,818,l)
);
},
{
closed = 1;
nodes = (
(575,1089,l),
(534,1089,l),
(449,937,l),
(483,937,l)
);
}
);
width = 654;
}
);
leftKerningGroup = A;
rightKerningGroup = A;
unicode = 7844;
},
{
glyphname = Acircumflexdotbelow;
layers = (
{
layerId = "D43A2A6F-68E8-45C4-A912-BD747FE79F37";
shapes = (
{
closed = 1;
nodes = (
(220,0,l),
(259,124,l),
(532,124,l),
(571,0,l),
(771,0,l),
(525,740,l),
(266,740,l),
(20,0,l)
);
},
{
closed = 1;
nodes = (
(396,561,l),
(481,288,l),
(310,288,l)
);
},
{
closed = 1;
nodes = (
(447,-260,o),
(485,-220,o),
(485,-171,cs),
(485,-121,o),
(447,-82,o),
(396,-82,cs),
(343,-82,o),
(307,-121,o),
(307,-171,cs),
(307,-220,o),
(343,-260,o),
(396,-260,cs)
);
},
{
closed = 1;
nodes = (
(329,799,l),
(397,880,l),
(464,799,l),
(605,799,l),
(470,958,l),
(323,958,l),
(188,799,l)
);
}
);
width = 791;
},
{
layerId = "F1D6C389-2D1A-40EB-B71A-932DD4B59B34";
shapes = (
{
closed = 1;
nodes = (
(149,0,l),
(211,177,l),
(525,177,l),
(587,0,l),
(691,0,l),
(429,740,l),
(306,740,l),
(45,0,l)
);
},
{
closed = 1;
nodes = (
(368,628,l),
(495,265,l),
(241,265,l)
);
},
{
closed = 1;
nodes = (
(405,-227,o),
(433,-198,o),
(433,-162,cs),
(433,-126,o),
(405,-97,o),
(368,-97,cs),
(330,-97,o),
(303,-126,o),
(303,-162,cs),
(303,-197,o),
(330,-227,o),
(368,-227,cs)
);
},
{
closed = 1;
nodes = (
(293,816,l),
(368,908,l),
(444,816,l),
(530,816,l),
(409,963,l),
(328,963,l),
(207,816,l)
);
}
);
width = 736;
},
{
layerId = "C50750D9-3CEA-4BDB-8CD5-6DB84E6A41F9";
shapes = (
{
closed = 1;
nodes = (
(77,0,l),
(156,220,l),
(498,220,l),
(577,0,l),
(614,0,l),
(347,740,l),
(307,740,l),
(40,0,l)
);
},
{
closed = 1;
nodes = (
(327,697,l),
(487,252,l),
(167,252,l)
);
},
{
closed = 1;
nodes = (
(347,-192,o),
(364,-175,o),
(364,-154,cs),
(364,-134,o),
(347,-117,o),
(326,-117,cs),
(305,-117,o),
(289,-134,o),
(289,-154,cs),
(289,-175,o),
(305,-192,o),
(326,-192,cs)
);
},
{
closed = 1;
nodes = (
(235,818,l),
(328,932,l),
(420,818,l),
(457,818,l),
(346,956,l),
(309,956,l),
(198,818,l)
);
}
);
width = 654;
}
);
leftKerningGroup = A;
rightKerningGroup = A;
unicode = 7852;
},
{
glyphname = Acircumflexgrave;
layers = (
{
layerId = "D43A2A6F-68E8-45C4-A912-BD747FE79F37";
shapes = (
{
closed = 1;
nodes = (
(220,0,l),
(259,124,l),
(532,124,l),
(571,0,l),
(771,0,l),
(525,740,l),
(266,740,l),
(20,0,l)
);
},
{
closed = 1;
nodes = (
(396,561,l),
(481,288,l),
(310,288,l)
);
},
{
closed = 1;
nodes = (
(329,799,l),
(397,880,l),
(464,799,l),
(605,799,l),
(470,958,l),
(323,958,l),
(188,799,l)
);
},
{
closed = 1;
nodes = (
(688,930,l),
(611,1109,l),
(441,1109,l),
(555,929,l)
);
}
);
width = 791;
},
{
layerId = "F1D6C389-2D1A-40EB-B71A-932DD4B59B34";
shapes = (
{
closed = 1;
nodes = (
(149,0,l),
(211,177,l),
(525,177,l),
(587,0,l),
(691,0,l),
(429,740,l),
(306,740,l),
(45,0,l)
);
},
{
closed = 1;
nodes = (
(368,628,l),
(495,265,l),
(241,265,l)
);
},
{
closed = 1;
nodes = (
(293,816,l),
(368,908,l),
(444,816,l),
(530,816,l),
(409,963,l),
(328,963,l),
(207,816,l)
);
},
{
closed = 1;
nodes = (
(586,945,l),
(500,1125,l),
(402,1125,l),
(505,944,l)
);
}
);
width = 736;
},
{
layerId = "C50750D9-3CEA-4BDB-8CD5-6DB84E6A41F9";
shapes = (
{
closed = 1;
nodes = (
(77,0,l),
(156,220,l),
(498,220,l),
(577,0,l),
(614,0,l),
(347,740,l),
(307,740,l),
(40,0,l)
);
},
{
closed = 1;
nodes = (
(327,697,l),
(487,252,l),
(167,252,l)
);
},
{
closed = 1;
nodes = (
(235,818,l),
(328,932,l),
(420,818,l),
(457,818,l),
(346,956,l),
(309,956,l),
(198,818,l)
);
},
{
closed = 1;
nodes = (
(488,937,l),
(403,1089,l),
(362,1089,l),
(454,937,l)
);
}
);
width = 654;
}
);
leftKerningGroup = A;
rightKerningGroup = A;
unicode = 7846;
},
{
glyphname = Acircumflexhookabove;
layers = (
{
layerId = "D43A2A6F-68E8-45C4-A912-BD747FE79F37";
shapes = (
{
closed = 1;
nodes = (
(220,0,l),
(259,124,l),
(532,124,l),
(571,0,l),
(771,0,l),
(525,740,l),
(266,740,l),
(20,0,l)
);
},
{
closed = 1;
nodes = (
(396,561,l),
(481,288,l),
(310,288,l)
);
},
{
closed = 1;
nodes = (
(323,799,l),
(391,880,l),
(458,799,l),
(599,799,l),
(464,958,l),
(317,958,l),
(182,799,l)
);
},
{
closed = 1;
nodes = (
(666,907,l),
(666,978,l),
(628,913,l),
(671,937,ls),
(715,961,o),
(757,990,o),
(757,1044,cs),
(757,1105,o),
(703,1158,o),
(615,1158,cs),
(517,1158,o),
(479,1088,o),
(481,1032,c),
(582,1032,l),
(582,1032,o),
(582,1069,o),
(617,1069,cs),
(636,1069,o),
(649,1056,o),
(649,1040,cs),
(649,1018,o),
(633,1008,o),
(608,995,cs),
(592,987,ls),
(572,977,o),
(564,960,o),
(564,940,cs),
(564,907,l)
);
}
);
width = 791;
},
{
layerId = "F1D6C389-2D1A-40EB-B71A-932DD4B59B34";
shapes = (
{
closed = 1;
nodes = (
(149,0,l),
(211,177,l),
(525,177,l),
(587,0,l),
(691,0,l),
(429,740,l),
(306,740,l),
(45,0,l)
);
},
{
closed = 1;
nodes = (
(368,628,l),
(495,265,l),
(241,265,l)
);
},
{
closed = 1;
nodes = (
(293,816,l),
(368,908,l),
(444,816,l),
(530,816,l),
(409,963,l),
(328,963,l),
(207,816,l)
);
},
{
closed = 1;
nodes = (
(554,937,l),
(554,997,l),
(524,952,l),
(558,968,ls),
(614,995,o),
(638,1027,o),
(638,1065,cs),
(638,1116,o),
(594,1158,o),
(524,1158,cs),
(447,1158,o),
(413,1106,o),
(414,1057,c),
(480,1057,l),
(480,1068,o),
(485,1100,o),
(525,1100,cs),
(555,1100,o),
(569,1081,o),
(569,1063,cs),
(569,1044,o),
(555,1028,o),
(523,1012,cs),
(509,1005,ls),
(493,997,o),
(489,982,o),
(489,969,cs),
(489,937,l)
);
}
);
width = 736;
},
{
layerId = "C50750D9-3CEA-4BDB-8CD5-6DB84E6A41F9";
shapes = (
{
closed = 1;
nodes = (
(77,0,l),
(156,220,l),
(498,220,l),
(577,0,l),
(614,0,l),
(347,740,l),
(307,740,l),
(40,0,l)
);
},
{
closed = 1;
nodes = (
(327,697,l),
(487,252,l),
(167,252,l)
);
},
{
closed = 1;
nodes = (
(235,818,l),
(328,932,l),
(420,818,l),
(457,818,l),
(346,956,l),
(309,956,l),
(198,818,l)
);
},
{
closed = 1;
nodes = (
(475,923,l),
(475,974,l),
(452,947,l),
(476,958,ls),
(531,983,o),
(549,1013,o),
(549,1043,cs),
(549,1084,o),
(518,1114,o),
(467,1114,cs),
(416,1114,o),
(385,1084,o),
(385,1037,c),
(414,1037,l),
(414,1060,o),
(425,1086,o),
(467,1086,cs),
(506,1086,o),
(519,1062,o),
(519,1042,cs),
(519,1016,o),
(500,997,o),
(472,983,cs),
(460,977,ls),
(451,973,o),
(447,965,o),
(447,955,cs),
(447,923,l)
);
}
);
width = 654;
}
);
leftKerningGroup = A;
rightKerningGroup = A;
unicode = 7848;
},
{
glyphname = Acircumflextilde;
layers = (
{
layerId = "D43A2A6F-68E8-45C4-A912-BD747FE79F37";
shapes = (
{
closed = 1;
nodes = (
(220,0,l),
(259,124,l),
(532,124,l),
(571,0,l),
(771,0,l),
(525,740,l),
(266,740,l),
(20,0,l)
);
},
{
closed = 1;
nodes = (
(396,561,l),
(481,288,l),
(310,288,l)
);
},
{
closed = 1;
nodes = (
(328,799,l),
(396,880,l),
(463,799,l),
(604,799,l),
(469,958,l),
(322,958,l),
(187,799,l)
);
},
{
closed = 1;
nodes = (
(561,992,o),
(578,1082,o),
(578,1151,c),
(485,1151,l),
(485,1117,o),
(479,1098,o),
(460,1098,cs),
(426,1098,o),
(394,1157,o),
(321,1157,cs),
(230,1157,o),
(213,1067,o),
(213,998,c),
(306,998,l),
(306,1032,o),
(312,1051,o),
(332,1051,cs),
(368,1051,o),
(397,992,o),
(470,992,cs)
);
}
);
width = 791;
},
{
layerId = "F1D6C389-2D1A-40EB-B71A-932DD4B59B34";
shapes = (
{
closed = 1;
nodes = (
(149,0,l),
(211,177,l),
(525,177,l),
(587,0,l),
(691,0,l),
(429,740,l),
(306,740,l),
(45,0,l)
);
},
{
closed = 1;
nodes = (
(368,628,l),
(495,265,l),
(241,265,l)
);
},
{
closed = 1;
nodes = (
(292,816,l),
(367,908,l),
(443,816,l),
(529,816,l),
(408,963,l),
(327,963,l),
(206,816,l)
);
},
{
closed = 1;
nodes = (
(506,1002,o),
(525,1070,o),
(525,1132,c),
(461,1132,l),
(461,1095,o),
(451,1072,o),
(430,1072,cs),
(394,1072,o),
(374,1137,o),
(301,1137,cs),
(230,1137,o),
(211,1070,o),
(211,1008,c),
(275,1008,l),
(275,1044,o),
(284,1068,o),
(307,1068,cs),
(344,1068,o),
(364,1002,o),
(436,1002,cs)
);
}
);
width = 736;
},
{
layerId = "C50750D9-3CEA-4BDB-8CD5-6DB84E6A41F9";
shapes = (
{
closed = 1;
nodes = (
(77,0,l),
(156,220,l),
(498,220,l),
(577,0,l),
(614,0,l),
(347,740,l),
(307,740,l),
(40,0,l)
);
},
{
closed = 1;
nodes = (
(327,697,l),
(487,252,l),
(167,252,l)
);
},
{
closed = 1;
nodes = (
(235,818,l),
(328,932,l),
(420,818,l),
(457,818,l),
(346,956,l),
(309,956,l),
(198,818,l)
);
},
{
closed = 1;
nodes = (
(432,996,o),
(452,1043,o),
(452,1101,c),
(422,1101,l),
(422,1054,o),
(412,1025,o),
(387,1025,cs),
(347,1025,o),
(333,1106,o),
(269,1106,cs),
(222,1106,o),
(203,1059,o),
(203,1001,c),
(233,1001,l),
(233,1049,o),
(243,1077,o),
(269,1077,cs),
(312,1077,o),
(327,996,o),
(387,996,cs)
);
}
);
width = 654;
}
);
leftKerningGroup = A;
rightKerningGroup = A;
unicode = 7850;
},
{
glyphname = Adieresis;
layers = (
{
layerId = "D43A2A6F-68E8-45C4-A912-BD747FE79F37";
shapes = (
{
closed = 1;
nodes = (
(220,0,l),
(259,124,l),
(532,124,l),
(571,0,l),
(771,0,l),
(525,740,l),
(266,740,l),
(20,0,l)
);
},
{
closed = 1;
nodes = (
(396,561,l),
(481,288,l),
(310,288,l)
);
},
{
closed = 1;
nodes = (
(580,788,o),
(623,832,o),
(623,885,cs),
(623,940,o),
(580,983,o),
(521,983,cs),
(461,983,o),
(419,940,o),
(419,885,cs),
(419,832,o),
(461,788,o),
(521,788,cs)
);
},
{
closed = 1;
nodes = (
(329,788,o),
(372,832,o),
(372,885,cs),
(372,940,o),
(329,983,o),
(270,983,cs),
(210,983,o),
(168,940,o),
(168,885,cs),
(168,832,o),
(210,788,o),
(270,788,cs)
);
}
);
width = 791;
},
{
layerId = "F1D6C389-2D1A-40EB-B71A-932DD4B59B34";
shapes = (
{
closed = 1;
nodes = (
(149,0,l),
(211,177,l),
(525,177,l),
(587,0,l),
(691,0,l),
(429,740,l),
(306,740,l),
(45,0,l)
);
},
{
closed = 1;
nodes = (
(368,628,l),
(495,265,l),
(241,265,l)
);
},
{
closed = 1;
nodes = (
(498,821,o),
(525,848,o),
(525,882,cs),
(525,916,o),
(498,944,o),
(463,944,cs),
(427,944,o),
(401,916,o),
(401,882,cs),
(401,849,o),
(427,821,o),
(463,821,cs)
);
},
{
closed = 1;
nodes = (
(308,821,o),
(335,848,o),
(335,882,cs),
(335,916,o),
(308,944,o),
(273,944,cs),
(237,944,o),
(211,916,o),
(211,882,cs),
(211,849,o),
(237,821,o),
(273,821,cs)
);
}
);
width = 736;
},
{
layerId = "C50750D9-3CEA-4BDB-8CD5-6DB84E6A41F9";
shapes = (
{
closed = 1;
nodes = (
(77,0,l),
(156,220,l),
(498,220,l),
(577,0,l),
(614,0,l),
(347,740,l),
(307,740,l),
(40,0,l)
);
},
{
closed = 1;
nodes = (
(327,697,l),
(487,252,l),
(167,252,l)
);
},
{
closed = 1;
nodes = (
(416,840,o),
(432,856,o),
(432,876,cs),
(432,895,o),
(416,912,o),
(396,912,cs),
(376,912,o),
(361,895,o),
(361,876,cs),
(361,856,o),
(376,840,o),
(396,840,cs)
);
},
{
closed = 1;
nodes = (
(277,840,o),
(293,856,o),
(293,876,cs),
(293,895,o),
(277,912,o),
(257,912,cs),
(237,912,o),
(222,895,o),
(222,876,cs),
(222,856,o),
(237,840,o),
(257,840,cs)
);
}
);
width = 654;
}
);
leftKerningGroup = A;
rightKerningGroup = A;
unicode = 196;
},
{
glyphname = Adotbelow;
layers = (
{
layerId = "D43A2A6F-68E8-45C4-A912-BD747FE79F37";
shapes = (
{
closed = 1;
nodes = (
(220,0,l),
(259,124,l),
(532,124,l),
(571,0,l),
(771,0,l),
(525,740,l),
(266,740,l),
(20,0,l)
);
},
{
closed = 1;
nodes = (
(396,561,l),
(481,288,l),
(310,288,l)
);
},
{
closed = 1;
nodes = (
(447,-260,o),
(485,-220,o),
(485,-171,cs),
(485,-121,o),
(447,-82,o),
(396,-82,cs),
(343,-82,o),
(307,-121,o),
(307,-171,cs),
(307,-220,o),
(343,-260,o),
(396,-260,cs)
);
}
);
width = 791;
},
{
layerId = "F1D6C389-2D1A-40EB-B71A-932DD4B59B34";
shapes = (
{
closed = 1;
nodes = (
(149,0,l),
(211,177,l),
(525,177,l),
(587,0,l),
(691,0,l),
(429,740,l),
(306,740,l),
(45,0,l)
);
},
{
closed = 1;
nodes = (
(368,628,l),
(495,265,l),
(241,265,l)
);
},
{
closed = 1;
nodes = (
(405,-227,o),
(433,-198,o),
(433,-162,cs),
(433,-126,o),
(405,-97,o),
(368,-97,cs),
(330,-97,o),
(303,-126,o),
(303,-162,cs),
(303,-197,o),
(330,-227,o),
(368,-227,cs)
);
}
);
width = 736;
},
{
layerId = "C50750D9-3CEA-4BDB-8CD5-6DB84E6A41F9";
shapes = (
{
closed = 1;
nodes = (
(77,0,l),
(156,220,l),
(498,220,l),
(577,0,l),
(614,0,l),
(347,740,l),
(307,740,l),
(40,0,l)
);
},
{
closed = 1;
nodes = (
(327,697,l),
(487,252,l),
(167,252,l)
);
},
{
closed = 1;
nodes = (
(347,-192,o),
(364,-175,o),
(364,-154,cs),
(364,-134,o),
(347,-117,o),
(326,-117,cs),
(305,-117,o),
(289,-134,o),
(289,-154,cs),
(289,-175,o),
(305,-192,o),
(326,-192,cs)
);
}
);
width = 654;
}
);
leftKerningGroup = A;
rightKerningGroup = A;
unicode = 7840;
},
{
glyphname = Agrave;
layers = (
{
layerId = "D43A2A6F-68E8-45C4-A912-BD747FE79F37";
shapes = (
{
closed = 1;
nodes = (
(220,0,l),
(259,124,l),
(532,124,l),
(571,0,l),
(771,0,l),
(525,740,l),
(266,740,l),
(20,0,l)
);
},
{
closed = 1;
nodes = (
(396,561,l),
(481,288,l),
(310,288,l)
);
},
{
closed = 1;
nodes = (
(464,810,l),
(387,989,l),
(217,989,l),
(331,809,l)
);
}
);
width = 791;
},
{
layerId = "F1D6C389-2D1A-40EB-B71A-932DD4B59B34";
shapes = (
{
closed = 1;
nodes = (
(149,0,l),
(211,177,l),
(525,177,l),
(587,0,l),
(691,0,l),
(429,740,l),
(306,740,l),
(45,0,l)
);
},
{
closed = 1;
nodes = (
(368,628,l),
(495,265,l),
(241,265,l)
);
},
{
closed = 1;
nodes = (
(413,821,l),
(327,1001,l),
(229,1001,l),
(332,820,l)
);
}
);
width = 736;
},
{
layerId = "C50750D9-3CEA-4BDB-8CD5-6DB84E6A41F9";
shapes = (
{
closed = 1;
nodes = (
(77,0,l),
(156,220,l),
(498,220,l),
(577,0,l),
(614,0,l),
(347,740,l),
(307,740,l),
(40,0,l)
);
},
{
closed = 1;
nodes = (
(327,697,l),
(487,252,l),
(167,252,l)
);
},
{
closed = 1;
nodes = (
(341,828,l),
(256,980,l),
(215,980,l),
(307,828,l)
);
}
);
width = 654;
}
);
leftKerningGroup = A;
rightKerningGroup = A;
unicode = 192;
},
{
glyphname = Ahookabove;
layers = (
{
layerId = "D43A2A6F-68E8-45C4-A912-BD747FE79F37";
shapes = (
{
closed = 1;
nodes = (
(220,0,l),
(259,124,l),
(532,124,l),
(571,0,l),
(771,0,l),
(525,740,l),
(266,740,l),
(20,0,l)
);
},
{
closed = 1;
nodes = (
(396,561,l),
(481,288,l),
(310,288,l)
);
},
{
closed = 1;
nodes = (
(448,795,l),
(448,866,l),
(410,801,l),
(453,825,ls),
(497,849,o),
(539,878,o),
(539,932,cs),
(539,993,o),
(485,1046,o),
(397,1046,cs),
(299,1046,o),
(261,976,o),
(263,920,c),
(364,920,l),
(364,920,o),
(364,957,o),
(399,957,cs),
(418,957,o),
(431,944,o),
(431,928,cs),
(431,906,o),
(415,896,o),
(390,883,cs),
(374,875,ls),
(354,865,o),
(346,848,o),
(346,828,cs),
(346,795,l)
);
}
);
width = 791;
},
{
layerId = "F1D6C389-2D1A-40EB-B71A-932DD4B59B34";
shapes = (
{
closed = 1;
nodes = (
(149,0,l),
(211,177,l),
(525,177,l),
(587,0,l),
(691,0,l),
(429,740,l),
(306,740,l),
(45,0,l)
);
},
{
closed = 1;
nodes = (
(368,628,l),
(495,265,l),
(241,265,l)
);
},
{
closed = 1;
nodes = (
(401,813,l),
(401,873,l),
(371,828,l),
(405,844,ls),
(461,871,o),
(485,903,o),
(485,941,cs),
(485,992,o),
(441,1034,o),
(371,1034,cs),
(294,1034,o),
(260,982,o),
(261,933,c),
(327,933,l),
(327,944,o),
(332,976,o),
(372,976,cs),
(402,976,o),
(416,957,o),
(416,939,cs),
(416,920,o),
(402,904,o),
(370,888,cs),
(356,881,ls),
(340,873,o),
(336,858,o),
(336,845,cs),
(336,813,l)
);
}
);
width = 736;
},
{
layerId = "C50750D9-3CEA-4BDB-8CD5-6DB84E6A41F9";
shapes = (
{
closed = 1;
nodes = (
(77,0,l),
(156,220,l),
(498,220,l),
(577,0,l),
(614,0,l),
(347,740,l),
(307,740,l),
(40,0,l)
);
},
{
closed = 1;
nodes = (
(327,697,l),
(487,252,l),
(167,252,l)
);
},
{
closed = 1;
nodes = (
(343,814,l),
(343,865,l),
(320,838,l),
(344,849,ls),
(399,874,o),
(417,904,o),
(417,934,cs),
(417,975,o),
(386,1005,o),
(335,1005,cs),
(284,1005,o),
(253,975,o),
(253,928,c),
(282,928,l),
(282,951,o),
(293,977,o),
(335,977,cs),
(374,977,o),
(387,953,o),
(387,933,cs),
(387,907,o),
(368,888,o),
(340,874,cs),
(328,868,ls),
(319,864,o),
(315,856,o),
(315,846,cs),
(315,814,l)
);
}
);
width = 654;
}
);
leftKerningGroup = A;
rightKerningGroup = A;
unicode = 7842;
},
{
glyphname = Amacron;
layers = (
{
layerId = "D43A2A6F-68E8-45C4-A912-BD747FE79F37";
shapes = (
{
closed = 1;
nodes = (
(220,0,l),
(259,124,l),
(532,124,l),
(571,0,l),
(771,0,l),
(525,740,l),
(266,740,l),
(20,0,l)
);
},
{
closed = 1;
nodes = (
(396,561,l),
(481,288,l),
(310,288,l)
);
},
{
closed = 1;
nodes = (
(566,818,l),
(566,920,l),
(226,920,l),
(226,818,l)
);
}
);
width = 791;
},
{
layerId = "F1D6C389-2D1A-40EB-B71A-932DD4B59B34";
shapes = (
{
closed = 1;
nodes = (
(149,0,l),
(211,177,l),
(525,177,l),
(587,0,l),
(691,0,l),
(429,740,l),
(306,740,l),
(45,0,l)
);
},
{
closed = 1;
nodes = (
(368,628,l),
(495,265,l),
(241,265,l)
);
},
{
closed = 1;
nodes = (
(520,836,l),
(520,908,l),
(216,908,l),
(216,836,l)
);
}
);
width = 736;
},
{
layerId = "C50750D9-3CEA-4BDB-8CD5-6DB84E6A41F9";
shapes = (
{
closed = 1;
nodes = (
(77,0,l),
(156,220,l),
(498,220,l),
(577,0,l),
(614,0,l),
(347,740,l),
(307,740,l),
(40,0,l)
);
},
{
closed = 1;
nodes = (
(327,697,l),
(487,252,l),
(167,252,l)
);
},
{
closed = 1;
nodes = (
(467,848,l),
(467,878,l),
(187,878,l),
(187,848,l)
);
}
);
width = 654;
}
);
leftKerningGroup = A;
rightKerningGroup = A;
unicode = 256;
},
{
glyphname = Aogonek;
layers = (
{
layerId = "D43A2A6F-68E8-45C4-A912-BD747FE79F37";
shapes = (
{
closed = 1;
nodes = (
(220,0,l),
(259,124,l),
(532,124,l),
(571,0,l),
(771,0,l),
(525,740,l),
(266,740,l),
(20,0,l)
);
},
{
closed = 1;
nodes = (
(396,561,l),
(481,288,l),
(310,288,l)
);
},
{
closed = 1;
nodes = (
(780,-194,o),
(806,-189,o),
(806,-189,c),
(806,-87,l),
(806,-87,o),
(790,-90,o),
(774,-90,cs),
(736,-90,o),
(722,-73,o),
(722,-55,cs),
(722,-19,o),
(771,0,o),
(771,0,c),
(712,29,l),
(712,29,o),
(591,9,o),
(591,-87,cs),
(591,-144,o),
(635,-194,o),
(745,-194,cs)
);
}
);
width = 791;
},
{
layerId = "F1D6C389-2D1A-40EB-B71A-932DD4B59B34";
shapes = (
{
closed = 1;
nodes = (
(149,0,l),
(211,177,l),
(525,177,l),
(587,0,l),
(691,0,l),
(429,740,l),
(306,740,l),
(45,0,l)
);
},
{
closed = 1;
nodes = (
(368,628,l),
(495,265,l),
(241,265,l)
);
},
{
closed = 1;
nodes = (
(708,-170,o),
(731,-164,o),
(731,-164,c),
(731,-101,l),
(731,-101,o),
(712,-106,o),
(694,-106,cs),
(656,-106,o),
(637,-87,o),
(637,-63,cs),
(637,-21,o),
(691,0,o),
(691,0,c),
(653,21,l),
(653,21,o),
(559,-2,o),
(559,-80,cs),
(559,-130,o),
(599,-170,o),
(678,-170,cs)
);
}
);
width = 736;
},
{
layerId = "C50750D9-3CEA-4BDB-8CD5-6DB84E6A41F9";
shapes = (
{
closed = 1;
nodes = (
(77,0,l),
(156,220,l),
(498,220,l),
(577,0,l),
(614,0,l),
(347,740,l),
(307,740,l),
(40,0,l)
);
},
{
closed = 1;
nodes = (
(327,697,l),
(487,252,l),
(167,252,l)
);
},
{
closed = 1;
nodes = (
(638,-149,o),
(658,-143,o),
(658,-143,c),
(658,-115,l),
(658,-115,o),
(638,-120,o),
(618,-120,cs),
(577,-120,o),
(556,-100,o),
(556,-71,cs),
(556,-23,o),
(614,0,o),
(614,0,c),
(594,12,l),
(594,12,o),
(525,-13,o),
(525,-75,cs),
(525,-119,o),
(559,-149,o),
(614,-149,cs)
);
}
);
width = 654;
}
);
leftKerningGroup = A;
rightKerningGroup = A;
unicode = 260;
},
{
glyphname = Aring;
layers = (
{
layerId = "D43A2A6F-68E8-45C4-A912-BD747FE79F37";
shapes = (
{
closed = 1;
nodes = (
(220,0,l),
(259,124,l),
(532,124,l),
(571,0,l),
(771,0,l),
(525,740,l),
(266,740,l),
(20,0,l)
);
},
{
closed = 1;
nodes = (
(396,561,l),
(481,288,l),
(310,288,l)
);
},
{
closed = 1;
nodes = (
(474,788,o),
(537,851,o),
(537,929,cs),
(537,1006,o),
(474,1069,o),
(396,1069,cs),
(318,1069,o),
(255,1006,o),
(255,929,cs),
(255,851,o),
(318,788,o),
(396,788,cs)
);
},
{
closed = 1;
nodes = (
(368,878,o),
(345,900,o),
(345,929,cs),
(345,957,o),
(368,979,o),
(396,979,cs),
(424,979,o),
(447,957,o),
(447,929,cs),
(447,900,o),
(424,878,o),
(396,878,cs)
);
}
);
width = 791;
},
{
layerId = "F1D6C389-2D1A-40EB-B71A-932DD4B59B34";
shapes = (
{
closed = 1;
nodes = (
(149,0,l),
(211,177,l),
(525,177,l),
(587,0,l),
(691,0,l),
(429,740,l),
(306,740,l),
(45,0,l)
);
},
{
closed = 1;
nodes = (
(368,628,l),
(495,265,l),
(241,265,l)
);
},
{
closed = 1;
nodes = (
(438,812,o),
(496,869,o),
(496,940,cs),
(496,1011,o),
(438,1068,o),
(368,1068,cs),
(297,1068,o),
(239,1011,o),
(239,940,cs),
(239,869,o),
(297,812,o),
(368,812,cs)
);
},
{
closed = 1;
nodes = (
(334,880,o),
(307,907,o),
(307,940,cs),
(307,973,o),
(334,1000,o),
(368,1000,cs),
(401,1000,o),
(428,973,o),
(428,940,cs),
(428,907,o),
(401,880,o),
(368,880,cs)
);
}
);
width = 736;
},
{
layerId = "C50750D9-3CEA-4BDB-8CD5-6DB84E6A41F9";
shapes = (
{
closed = 1;
nodes = (
(77,0,l),
(156,220,l),
(498,220,l),
(577,0,l),
(614,0,l),
(347,740,l),
(307,740,l),
(40,0,l)
);
},
{
closed = 1;
nodes = (
(327,697,l),
(487,252,l),
(167,252,l)
);
},
{
closed = 1;
nodes = (
(379,824,o),
(420,866,o),
(420,917,cs),
(420,969,o),
(379,1011,o),
(327,1011,cs),
(275,1011,o),
(234,969,o),
(234,917,cs),
(234,866,o),
(275,824,o),
(327,824,cs)
);
},
{
closed = 1;
nodes = (
(292,854,o),
(264,882,o),
(264,917,cs),
(264,952,o),
(292,981,o),
(327,981,cs),
(362,981,o),
(390,952,o),
(390,917,cs),
(390,882,o),
(362,854,o),
(327,854,cs)
);
}
);
width = 654;
}
);
leftKerningGroup = A;
rightKerningGroup = A;
unicode = 197;
},
{
glyphname = Atilde;
layers = (
{
layerId = "D43A2A6F-68E8-45C4-A912-BD747FE79F37";
shapes = (
{
closed = 1;
nodes = (
(220,0,l),
(259,124,l),
(532,124,l),
(571,0,l),
(771,0,l),
(525,740,l),
(266,740,l),
(20,0,l)
);
},
{
closed = 1;
nodes = (
(396,561,l),
(481,288,l),
(310,288,l)
);
},
{
closed = 1;
nodes = (
(565,822,o),
(582,912,o),
(582,981,c),
(489,981,l),
(489,947,o),
(483,928,o),
(464,928,cs),
(430,928,o),
(398,987,o),
(325,987,cs),
(234,987,o),
(217,897,o),
(217,828,c),
(310,828,l),
(310,862,o),
(316,881,o),
(336,881,cs),
(372,881,o),
(401,822,o),
(474,822,cs)
);
}
);
width = 791;
},
{
layerId = "F1D6C389-2D1A-40EB-B71A-932DD4B59B34";
shapes = (
{
closed = 1;
nodes = (
(149,0,l),
(211,177,l),
(525,177,l),
(587,0,l),
(691,0,l),
(429,740,l),
(306,740,l),
(45,0,l)
);
},
{
closed = 1;
nodes = (
(368,628,l),
(495,265,l),
(241,265,l)
);
},
{
closed = 1;
nodes = (
(506,827,o),
(525,895,o),
(525,957,c),
(461,957,l),
(461,920,o),
(451,897,o),
(430,897,cs),
(394,897,o),
(374,962,o),
(301,962,cs),
(230,962,o),
(211,895,o),
(211,833,c),
(275,833,l),
(275,869,o),
(284,893,o),
(307,893,cs),
(344,893,o),
(364,827,o),
(436,827,cs)
);
}
);
width = 736;
},
{
layerId = "C50750D9-3CEA-4BDB-8CD5-6DB84E6A41F9";
shapes = (
{
closed = 1;
nodes = (
(77,0,l),
(156,220,l),
(498,220,l),
(577,0,l),
(614,0,l),
(347,740,l),
(307,740,l),
(40,0,l)
);
},
{
closed = 1;
nodes = (
(327,697,l),
(487,252,l),
(167,252,l)
);
},
{
closed = 1;
nodes = (
(432,831,o),
(452,878,o),
(452,936,c),
(422,936,l),
(422,889,o),
(412,860,o),
(387,860,cs),
(347,860,o),
(333,941,o),
(269,941,cs),
(222,941,o),
(203,894,o),
(203,836,c),
(233,836,l),
(233,884,o),
(243,912,o),
(269,912,cs),
(312,912,o),
(327,831,o),
(387,831,cs)
);
}
);
width = 654;
}
);
leftKerningGroup = A;
rightKerningGroup = A;
unicode = 195;
},
{
glyphname = AE;
leftMetricsKey = A;
rightMetricsKey = E;
layers = (
{
layerId = "D43A2A6F-68E8-45C4-A912-BD747FE79F37";
shapes = (
{
closed = 1;
nodes = (
(220,0,l),
(473,613,l),
(473,740,l),
(326,740,l),
(20,0,l)
);
},
{
closed = 1;
nodes = (
(562,124,l),
(562,285,l),
(163,285,l),
(163,124,l)
);
},
{
closed = 1;
nodes = (
(951,296,l),
(951,454,l),
(460,454,l),
(460,296,l)
);
},
{
closed = 1;
nodes = (
(996,574,l),
(996,740,l),
(460,740,l),
(460,574,l)
);
},
{
closed = 1;
nodes = (
(1001,0,l),
(1001,166,l),
(460,166,l),
(460,0,l)
);
},
{
closed = 1;
nodes = (
(652,0,l),
(652,740,l),
(460,740,l),
(460,0,l)
);
}
);
width = 1056;
},
{
layerId = "F1D6C389-2D1A-40EB-B71A-932DD4B59B34";
shapes = (
{
closed = 1;
nodes = (
(149,0,l),
(498,675,l),
(498,740,l),
(426,740,l),
(45,0,l)
);
},
{
closed = 1;
nodes = (
(564,177,l),
(564,265,l),
(207,265,l),
(207,177,l)
);
},
{
closed = 1;
nodes = (
(904,334,l),
(904,420,l),
(491,420,l),
(491,334,l)
);
},
{
closed = 1;
nodes = (
(950,654,l),
(950,740,l),
(491,740,l),
(491,654,l)
);
},
{
closed = 1;
nodes = (
(955,0,l),
(955,86,l),
(491,86,l),
(491,0,l)
);
},
{
closed = 1;
nodes = (
(578,0,l),
(578,740,l),
(480,740,l),
(480,0,l)
);
}
);
width = 1020;
},
{
layerId = "C50750D9-3CEA-4BDB-8CD5-6DB84E6A41F9";
shapes = (
{
closed = 1;
nodes = (
(82,0,l),
(460,724,l),
(460,740,l),
(432,740,l),
(45,0,l)
);
},
{
closed = 1;
nodes = (
(466,220,l),
(466,252,l),
(190,252,l),
(190,220,l)
);
},
{
closed = 1;
nodes = (
(813,362,l),
(813,396,l),
(448,396,l),
(448,362,l)
);
},
{
closed = 1;
nodes = (
(862,706,l),
(862,740,l),
(448,740,l),
(448,706,l)
);
},
{
closed = 1;
nodes = (
(868,0,l),
(868,34,l),
(448,34,l),
(448,0,l)
);
},
{
closed = 1;
nodes = (
(480,0,l),
(480,740,l),
(445,740,l),
(445,0,l)
);
}
);
width = 943;
}
);
leftKerningGroup = A;
rightKerningGroup = E;
unicode = 198;
},
{
glyphname = B;
leftMetricsKey = l;
layers = (
{
layerId = "D43A2A6F-68E8-45C4-A912-BD747FE79F37";
shapes = (
{
closed = 1;
nodes = (
(448,0,ls),
(623,0,o),
(693,106,o),
(693,212,cs),
(693,331,o),
(604,381,o),
(546,393,c),
(546,402,l),
(606,419,o),
(661,470,o),
(661,559,cs),
(661,660,o),
(585,740,o),
(440,740,cs),
(240,740,l),
(240,581,l),
(400,581,ls),
(451,581,o),
(476,556,o),
(476,517,cs),
(476,477,o),
(451,452,o),
(400,452,cs),
(240,452,l),
(240,309,l),
(414,309,ls),
(472,309,o),
(500,280,o),
(500,235,cs),
(500,189,o),
(472,159,o),
(414,159,cs),
(240,159,l),
(240,0,l)
);
},
{
closed = 1;
nodes = (
(252,0,l),
(252,740,l),
(60,740,l),
(60,0,l)
);
}
);
width = 733;
},
{
layerId = "F1D6C389-2D1A-40EB-B71A-932DD4B59B34";
shapes = (
{
closed = 1;
nodes = (
(382,0,ls),
(559,0,o),
(629,105,o),
(629,208,cs),
(629,323,o),
(544,369,o),
(496,384,c),
(496,390,l),
(525,401,o),
(601,444,o),
(601,554,cs),
(601,654,o),
(516,740,o),
(375,740,cs),
(160,740,l),
(160,655,l),
(371,655,ls),
(466,655,o),
(505,596,o),
(505,537,cs),
(505,478,o),
(466,419,o),
(371,419,cs),
(160,419,l),
(160,340,l),
(379,340,ls),
(488,340,o),
(531,276,o),
(531,213,cs),
(531,149,o),
(488,85,o),
(379,85,cs),
(160,85,l),
(160,0,l)
);
},
{
closed = 1;
nodes = (
(188,0,l),
(188,740,l),
(90,740,l),
(90,0,l)
);
}
);
width = 684;
},
{
layerId = "C50750D9-3CEA-4BDB-8CD5-6DB84E6A41F9";
shapes = (
{
closed = 1;
nodes = (
(358,0,ls),
(509,0,o),
(581,99,o),
(581,195,cs),
(581,277,o),
(529,349,o),
(435,373,c),
(435,377,l),
(513,401,o),
(555,475,o),
(555,551,cs),
(555,645,o),
(491,740,o),
(358,740,cs),
(98,740,l),
(98,706,l),
(358,706,ls),
(467,706,o),
(522,627,o),
(522,549,cs),
(522,470,o),
(467,390,o),
(358,390,cs),
(98,390,l),
(98,358,l),
(358,358,ls),
(484,358,o),
(546,276,o),
(546,196,cs),
(546,115,o),
(484,34,o),
(358,34,cs),
(98,34,l),
(98,0,l)
);
},
{
closed = 1;
nodes = (
(125,0,l),
(125,740,l),
(90,740,l),
(90,0,l)
);
}
);
width = 636;
}
);
leftKerningGroup = l;
rightKerningGroup = B;
unicode = 66;
},
{
glyphname = C;
leftMetricsKey = O;
rightMetricsKey = O;
layers = (
{
anchors = (
{
name = bottom;
position = "{408, 8}";
},
{
name = top;
position = "{408, 738}";
}
);
layerId = "D43A2A6F-68E8-45C4-A912-BD747FE79F37";
shapes = (
{
closed = 1;
nodes = (
(728,-10,o),
(753,267,o),
(753,267,c),
(563,267,l),
(563,267,o),
(547,161,o),
(410,161,cs),
(289,161,o),
(229,267,o),
(229,371,cs),
(229,475,o),
(289,580,o),
(410,580,cs),
(547,580,o),
(563,473,o),
(563,473,c),
(753,473,l),
(753,473,o),
(728,750,o),
(408,750,cs),
(157,750,o),
(30,559,o),
(30,371,cs),
(30,181,o),
(157,-10,o),
(408,-10,cs)
);
}
);
width = 783;
},
{
anchors = (
{
name = bottom;
position = "{416, -4}";
},
{
name = top;
position = "{405, 740}";
}
);
guides = (
{
position = "{0, 713}";
},
{
position = "{0, -7}";
}
);
layerId = "F1D6C389-2D1A-40EB-B71A-932DD4B59B34";
shapes = (
{
closed = 1;
nodes = (
(693,-10,o),
(720,247,o),
(720,247,c),
(622,247,l),
(622,247,o),
(600,81,o),
(406,81,cs),
(239,81,o),
(155,226,o),
(155,370,cs),
(155,514,o),
(239,659,o),
(406,659,cs),
(600,659,o),
(622,494,o),
(622,494,c),
(720,494,l),
(720,494,o),
(693,750,o),
(405,750,cs),
(172,750,o),
(55,560,o),
(55,370,cs),
(55,181,o),
(172,-10,o),
(405,-10,cs)
);
}
);
width = 775;
},
{
anchors = (
{
name = bottom;
position = "{412, 0}";
},
{
name = top;
position = "{395, 740}";
}
);
layerId = "C50750D9-3CEA-4BDB-8CD5-6DB84E6A41F9";
shapes = (
{
closed = 1;
nodes = (
(664,-10,o),
(693,234,o),
(693,234,c),
(656,234,l),
(656,234,o),
(630,24,o),
(395,24,cs),
(196,24,o),
(95,198,o),
(95,371,cs),
(95,542,o),
(196,716,o),
(395,716,cs),
(630,716,o),
(656,506,o),
(656,506,c),
(693,506,l),
(693,506,o),
(664,750,o),
(395,750,cs),
(172,750,o),
(60,560,o),
(60,371,cs),
(60,180,o),
(172,-10,o),
(395,-10,cs)
);
}
);
width = 753;
}
);
leftKerningGroup = O;
rightKerningGroup = O;
unicode = 67;
},
{
glyphname = Cacute;
layers = (
{
layerId = "D43A2A6F-68E8-45C4-A912-BD747FE79F37";
shapes = (
{
closed = 1;
nodes = (
(728,-10,o),
(753,267,o),
(753,267,c),
(563,267,l),
(563,267,o),
(547,161,o),
(410,161,cs),
(289,161,o),
(229,267,o),
(229,371,cs),
(229,475,o),
(289,580,o),
(410,580,cs),
(547,580,o),
(563,473,o),
(563,473,c),
(753,473,l),
(753,473,o),
(728,750,o),
(408,750,cs),
(157,750,o),
(30,559,o),
(30,371,cs),
(30,181,o),
(157,-10,o),
(408,-10,cs)
);
},
{
closed = 1;
nodes = (
(590,987,l),
(420,987,l),
(343,808,l),
(476,807,l)
);
}
);
width = 783;
},
{
layerId = "F1D6C389-2D1A-40EB-B71A-932DD4B59B34";
shapes = (
{
closed = 1;
nodes = (
(693,-10,o),
(720,247,o),
(720,247,c),
(622,247,l),
(622,247,o),
(600,81,o),
(406,81,cs),
(239,81,o),
(155,226,o),
(155,370,cs),
(155,514,o),
(239,659,o),
(406,659,cs),
(600,659,o),
(622,494,o),
(622,494,c),
(720,494,l),
(720,494,o),
(693,750,o),
(405,750,cs),
(172,750,o),
(55,560,o),
(55,370,cs),
(55,181,o),
(172,-10,o),
(405,-10,cs)
);
},
{
closed = 1;
nodes = (
(548,1001,l),
(450,1001,l),
(364,821,l),
(445,820,l)
);
}
);
width = 775;
},
{
layerId = "C50750D9-3CEA-4BDB-8CD5-6DB84E6A41F9";
shapes = (
{
closed = 1;
nodes = (
(664,-10,o),
(693,234,o),
(693,234,c),
(656,234,l),
(656,234,o),
(630,24,o),
(395,24,cs),
(196,24,o),
(95,198,o),
(95,371,cs),
(95,542,o),
(196,716,o),
(395,716,cs),
(630,716,o),
(656,506,o),
(656,506,c),
(693,506,l),
(693,506,o),
(664,750,o),
(395,750,cs),
(172,750,o),
(60,560,o),
(60,371,cs),
(60,180,o),
(172,-10,o),
(395,-10,cs)
);
},
{
closed = 1;
nodes = (
(509,980,l),
(468,980,l),
(383,828,l),
(417,828,l)
);
}
);
width = 753;
}
);
leftKerningGroup = O;
rightKerningGroup = O;
unicode = 262;
},
{
glyphname = Ccaron;
layers = (
{
layerId = "D43A2A6F-68E8-45C4-A912-BD747FE79F37";
shapes = (
{
closed = 1;
nodes = (
(728,-10,o),
(753,267,o),
(753,267,c),
(563,267,l),
(563,267,o),
(547,161,o),
(410,161,cs),
(289,161,o),
(229,267,o),
(229,371,cs),
(229,475,o),
(289,580,o),
(410,580,cs),
(547,580,o),
(563,473,o),
(563,473,c),
(753,473,l),
(753,473,o),
(728,750,o),
(408,750,cs),
(157,750,o),
(30,559,o),
(30,371,cs),
(30,181,o),
(157,-10,o),
(408,-10,cs)
);
},
{
closed = 1;
nodes = (
(481,798,l),
(616,987,l),
(475,987,l),
(383,847,l),
(433,848,l),
(340,987,l),
(199,987,l),
(334,798,l)
);
}
);
width = 783;
},
{
layerId = "F1D6C389-2D1A-40EB-B71A-932DD4B59B34";
shapes = (
{
closed = 1;
nodes = (
(693,-10,o),
(720,247,o),
(720,247,c),
(622,247,l),
(622,247,o),
(600,81,o),
(406,81,cs),
(239,81,o),
(155,226,o),
(155,370,cs),
(155,514,o),
(239,659,o),
(406,659,cs),
(600,659,o),
(622,494,o),
(622,494,c),
(720,494,l),
(720,494,o),
(693,750,o),
(405,750,cs),
(172,750,o),
(55,560,o),
(55,370,cs),
(55,181,o),
(172,-10,o),
(405,-10,cs)
);
},
{
closed = 1;
nodes = (
(446,805,l),
(567,972,l),
(481,972,l),
(379,828,l),
(431,828,l),
(330,972,l),
(244,972,l),
(365,805,l)
);
}
);
width = 775;
},
{
layerId = "C50750D9-3CEA-4BDB-8CD5-6DB84E6A41F9";
shapes = (
{
closed = 1;
nodes = (
(664,-10,o),
(693,234,o),
(693,234,c),
(656,234,l),
(656,234,o),
(630,24,o),
(395,24,cs),
(196,24,o),
(95,198,o),
(95,371,cs),
(95,542,o),
(196,716,o),
(395,716,cs),
(630,716,o),
(656,506,o),
(656,506,c),
(693,506,l),
(693,506,o),
(664,750,o),
(395,750,cs),
(172,750,o),
(60,560,o),
(60,371,cs),
(60,180,o),
(172,-10,o),
(395,-10,cs)
);
},
{
closed = 1;
nodes = (
(413,818,l),
(524,970,l),
(487,970,l),
(385,833,l),
(405,833,l),
(302,970,l),
(265,970,l),
(376,818,l)
);
}
);
width = 753;
}
);
leftKerningGroup = O;
rightKerningGroup = O;
unicode = 268;
},
{
glyphname = Ccedilla;
layers = (
{
layerId = "D43A2A6F-68E8-45C4-A912-BD747FE79F37";
shapes = (
{
closed = 1;
nodes = (
(728,-10,o),
(753,267,o),
(753,267,c),
(563,267,l),
(563,267,o),
(547,161,o),
(410,161,cs),
(289,161,o),
(229,267,o),
(229,371,cs),
(229,475,o),
(289,580,o),
(410,580,cs),
(547,580,o),
(563,473,o),
(563,473,c),
(753,473,l),
(753,473,o),
(728,750,o),
(408,750,cs),
(157,750,o),
(30,559,o),
(30,371,cs),
(30,181,o),
(157,-10,o),
(408,-10,cs)
);
},
{
closed = 1;
nodes = (
(501,-263,o),
(556,-203,o),
(556,-136,cs),
(556,-75,o),
(513,-28,o),
(446,-28,cs),
(370,-28,o),
(355,-92,o),
(355,-92,c),
(382,-92,l),
(475,31,l),
(360,31,l),
(292,-62,l),
(356,-127,l),
(356,-127,o),
(382,-108,o),
(410,-108,cs),
(431,-108,o),
(445,-118,o),
(445,-134,cs),
(445,-150,o),
(431,-169,o),
(373,-169,cs),
(341,-169,o),
(294,-163,o),
(294,-163,c),
(294,-255,l),
(294,-255,o),
(342,-263,o),
(383,-263,cs)
);
}
);
width = 783;
},
{
layerId = "F1D6C389-2D1A-40EB-B71A-932DD4B59B34";
shapes = (
{
closed = 1;
nodes = (
(693,-10,o),
(720,247,o),
(720,247,c),
(622,247,l),
(622,247,o),
(600,81,o),
(406,81,cs),
(239,81,o),
(155,226,o),
(155,370,cs),
(155,514,o),
(239,659,o),
(406,659,cs),
(600,659,o),
(622,494,o),
(622,494,c),
(720,494,l),
(720,494,o),
(693,750,o),
(405,750,cs),
(172,750,o),
(55,560,o),
(55,370,cs),
(55,181,o),
(172,-10,o),
(405,-10,cs)
);
},
{
closed = 1;
nodes = (
(489,-259,o),
(528,-202,o),
(528,-149,cs),
(528,-98,o),
(492,-67,o),
(430,-67,cs),
(364,-67,o),
(347,-103,o),
(347,-103,c),
(372,-103,l),
(443,10,l),
(376,10,l),
(316,-89,l),
(353,-126,l),
(353,-126,o),
(376,-107,o),
(409,-107,cs),
(444,-107,o),
(462,-127,o),
(462,-150,cs),
(462,-173,o),
(445,-201,o),
(388,-201,cs),
(361,-201,o),
(322,-195,o),
(322,-195,c),
(322,-253,l),
(322,-253,o),
(360,-259,o),
(392,-259,cs)
);
}
);
width = 775;
},
{
layerId = "C50750D9-3CEA-4BDB-8CD5-6DB84E6A41F9";
shapes = (
{
closed = 1;
nodes = (
(664,-10,o),
(693,234,o),
(693,234,c),
(656,234,l),
(656,234,o),
(630,24,o),
(395,24,cs),
(196,24,o),
(95,198,o),
(95,371,cs),
(95,542,o),
(196,716,o),
(395,716,cs),
(630,716,o),
(656,506,o),
(656,506,c),
(693,506,l),
(693,506,o),
(664,750,o),
(395,750,cs),
(172,750,o),
(60,560,o),
(60,371,cs),
(60,180,o),
(172,-10,o),
(395,-10,cs)
);
},
{
closed = 1;
nodes = (
(488,-249,o),
(519,-198,o),
(519,-155,cs),
(519,-112,o),
(489,-71,o),
(426,-71,cs),
(369,-71,o),
(350,-107,o),
(350,-107,c),
(371,-107,l),
(427,0,l),
(395,0,l),
(341,-103,l),
(360,-122,l),
(360,-122,o),
(384,-102,o),
(421,-102,cs),
(465,-102,o),
(486,-129,o),
(486,-157,cs),
(486,-185,o),
(465,-218,o),
(411,-218,cs),
(381,-218,o),
(349,-209,o),
(349,-209,c),
(349,-241,l),
(349,-241,o),
(378,-249,o),
(411,-249,cs)
);
}
);
width = 753;
}
);
leftKerningGroup = O;
rightKerningGroup = O;
unicode = 199;
},
{
glyphname = Cdotaccent;
layers = (
{
layerId = "D43A2A6F-68E8-45C4-A912-BD747FE79F37";
shapes = (
{
closed = 1;
nodes = (
(728,-10,o),
(753,267,o),
(753,267,c),
(563,267,l),
(563,267,o),
(547,161,o),
(410,161,cs),
(289,161,o),
(229,267,o),
(229,371,cs),
(229,475,o),
(289,580,o),
(410,580,cs),
(547,580,o),
(563,473,o),
(563,473,c),
(753,473,l),
(753,473,o),
(728,750,o),
(408,750,cs),
(157,750,o),
(30,559,o),
(30,371,cs),
(30,181,o),
(157,-10,o),
(408,-10,cs)
);
},
{
closed = 1;
nodes = (
(471,791,o),
(517,838,o),
(517,894,cs),
(517,952,o),
(471,998,o),
(408,998,cs),
(345,998,o),
(300,952,o),
(300,894,cs),
(300,838,o),
(345,791,o),
(408,791,cs)
);
}
);
width = 783;
},
{
layerId = "F1D6C389-2D1A-40EB-B71A-932DD4B59B34";
shapes = (
{
closed = 1;
nodes = (
(693,-10,o),
(720,247,o),
(720,247,c),
(622,247,l),
(622,247,o),
(600,81,o),
(406,81,cs),
(239,81,o),
(155,226,o),
(155,370,cs),
(155,514,o),
(239,659,o),
(406,659,cs),
(600,659,o),
(622,494,o),
(622,494,c),
(720,494,l),
(720,494,o),
(693,750,o),
(405,750,cs),
(172,750,o),
(55,560,o),
(55,370,cs),
(55,181,o),
(172,-10,o),
(405,-10,cs)
);
},
{
closed = 1;
nodes = (
(440,841,o),
(467,868,o),
(467,902,cs),
(467,936,o),
(440,964,o),
(405,964,cs),
(369,964,o),
(343,936,o),
(343,902,cs),
(343,869,o),
(369,841,o),
(405,841,cs)
);
}
);
width = 775;
},
{
layerId = "C50750D9-3CEA-4BDB-8CD5-6DB84E6A41F9";
shapes = (
{
closed = 1;
nodes = (
(664,-10,o),
(693,234,o),
(693,234,c),
(656,234,l),
(656,234,o),
(630,24,o),
(395,24,cs),
(196,24,o),
(95,198,o),
(95,371,cs),
(95,542,o),
(196,716,o),
(395,716,cs),
(630,716,o),
(656,506,o),
(656,506,c),
(693,506,l),
(693,506,o),
(664,750,o),
(395,750,cs),
(172,750,o),
(60,560,o),
(60,371,cs),
(60,180,o),
(172,-10,o),
(395,-10,cs)
);
},
{
closed = 1;
nodes = (
(414,845,o),
(430,861,o),
(430,881,cs),
(430,900,o),
(414,917,o),
(394,917,cs),
(374,917,o),
(359,900,o),
(359,881,cs),
(359,861,o),
(374,845,o),
(394,845,cs)
);
}
);
width = 753;
}
);
leftKerningGroup = O;
rightKerningGroup = O;
unicode = 266;
},
{
glyphname = D;
leftMetricsKey = l;
rightMetricsKey = O;
layers = (
{
layerId = "D43A2A6F-68E8-45C4-A912-BD747FE79F37";
shapes = (
{
closed = 1;
nodes = (
(366,0,ls),
(612,0,o),
(736,185,o),
(736,370,cs),
(736,555,o),
(612,740,o),
(366,740,cs),
(233,740,l),
(233,572,l),
(357,572,ls),
(486,572,o),
(543,471,o),
(543,372,cs),
(543,272,o),
(486,171,o),
(357,171,cs),
(233,171,l),
(233,0,l)
);
},
{
closed = 1;
nodes = (
(252,0,l),
(252,740,l),
(60,740,l),
(60,0,l)
);
}
);
width = 766;
},
{
layerId = "F1D6C389-2D1A-40EB-B71A-932DD4B59B34";
shapes = (
{
closed = 1;
nodes = (
(330,0,ls),
(566,0,o),
(683,185,o),
(683,370,cs),
(683,555,o),
(566,740,o),
(330,740,cs),
(160,740,l),
(160,654,l),
(326,654,ls),
(499,654,o),
(585,512,o),
(585,370,cs),
(585,228,o),
(499,86,o),
(326,86,cs),
(160,86,l),
(160,0,l)
);
},
{
closed = 1;
nodes = (
(188,0,l),
(188,740,l),
(90,740,l),
(90,0,l)
);
}
);
width = 738;
},
{
layerId = "C50750D9-3CEA-4BDB-8CD5-6DB84E6A41F9";
shapes = (
{
closed = 1;
nodes = (
(303,0,ls),
(534,0,o),
(648,185,o),
(648,370,cs),
(648,555,o),
(534,740,o),
(303,740,cs),
(109,740,l),
(109,706,l),
(303,706,ls),
(509,706,o),
(612,538,o),
(612,370,cs),
(612,202,o),
(509,34,o),
(303,34,cs),
(109,34,l),
(109,0,l)
);
},
{
closed = 1;
nodes = (
(125,0,l),
(125,740,l),
(90,740,l),
(90,0,l)
);
}
);
width = 708;
}
);
leftKerningGroup = h;
rightKerningGroup = O;
unicode = 68;
},
{
glyphname = Eth;
layers = (
{
layerId = "D43A2A6F-68E8-45C4-A912-BD747FE79F37";
shapes = (
{
closed = 1;
nodes = (
(395,296,l),
(395,444,l),
(5,444,l),
(5,296,l)
);
},
{
closed = 1;
nodes = (
(382,0,ls),
(628,0,o),
(752,185,o),
(752,370,cs),
(752,555,o),
(628,740,o),
(382,740,cs),
(249,740,l),
(249,572,l),
(373,572,ls),
(502,572,o),
(559,471,o),
(559,372,cs),
(559,272,o),
(502,171,o),
(373,171,cs),
(249,171,l),
(249,0,l)
);
},
{
closed = 1;
nodes = (
(268,0,l),
(268,740,l),
(76,740,l),
(76,0,l)
);
}
);
width = 782;
},
{
layerId = "F1D6C389-2D1A-40EB-B71A-932DD4B59B34";
shapes = (
{
closed = 1;
nodes = (
(394,326,l),
(394,414,l),
(40,414,l),
(40,326,l)
);
},
{
closed = 1;
nodes = (
(380,0,ls),
(616,0,o),
(733,185,o),
(733,370,cs),
(733,555,o),
(616,740,o),
(380,740,cs),
(210,740,l),
(210,654,l),
(376,654,ls),
(549,654,o),
(635,512,o),
(635,370,cs),
(635,228,o),
(549,86,o),
(376,86,cs),
(210,86,l),
(210,0,l)
);
},
{
closed = 1;
nodes = (
(238,0,l),
(238,740,l),
(140,740,l),
(140,0,l)
);
}
);
width = 788;
},
{
layerId = "C50750D9-3CEA-4BDB-8CD5-6DB84E6A41F9";
shapes = (
{
closed = 1;
nodes = (
(343,354,l),
(343,386,l),
(30,386,l),
(30,354,l)
);
},
{
closed = 1;
nodes = (
(348,0,ls),
(579,0,o),
(693,185,o),
(693,370,cs),
(693,555,o),
(579,740,o),
(348,740,cs),
(154,740,l),
(154,706,l),
(348,706,ls),
(554,706,o),
(657,538,o),
(657,370,cs),
(657,202,o),
(554,34,o),
(348,34,cs),
(154,34,l),
(154,0,l)
);
},
{
closed = 1;
nodes = (
(170,0,l),
(170,740,l),
(135,740,l),
(135,0,l)
);
}
);
width = 753;
}
);
rightKerningGroup = O;
unicode = 208;
},
{
glyphname = Dcaron;
layers = (
{
layerId = "D43A2A6F-68E8-45C4-A912-BD747FE79F37";
shapes = (
{
closed = 1;
nodes = (
(366,0,ls),
(612,0,o),
(736,185,o),
(736,370,cs),
(736,555,o),
(612,740,o),
(366,740,cs),
(233,740,l),
(233,572,l),
(357,572,ls),
(486,572,o),
(543,471,o),
(543,372,cs),
(543,272,o),
(486,171,o),
(357,171,cs),
(233,171,l),
(233,0,l)
);
},
{
closed = 1;
nodes = (
(252,0,l),
(252,740,l),
(60,740,l),
(60,0,l)
);
},
{
closed = 1;
nodes = (
(439,800,l),
(574,989,l),
(433,989,l),
(341,849,l),
(391,850,l),
(298,989,l),
(157,989,l),
(292,800,l)
);
}
);
width = 766;
},
{
layerId = "F1D6C389-2D1A-40EB-B71A-932DD4B59B34";
shapes = (
{
closed = 1;
nodes = (
(330,0,ls),
(566,0,o),
(683,185,o),
(683,370,cs),
(683,555,o),
(566,740,o),
(330,740,cs),
(160,740,l),
(160,654,l),
(326,654,ls),
(499,654,o),
(585,512,o),
(585,370,cs),
(585,228,o),
(499,86,o),
(326,86,cs),
(160,86,l),
(160,0,l)
);
},
{
closed = 1;
nodes = (
(188,0,l),
(188,740,l),
(90,740,l),
(90,0,l)
);
},
{
closed = 1;
nodes = (
(371,805,l),
(492,972,l),
(406,972,l),
(304,828,l),
(356,828,l),
(255,972,l),
(169,972,l),
(290,805,l)
);
}
);
width = 738;
},
{
layerId = "C50750D9-3CEA-4BDB-8CD5-6DB84E6A41F9";
shapes = (
{
closed = 1;
nodes = (
(303,0,ls),
(534,0,o),
(648,185,o),
(648,370,cs),
(648,555,o),
(534,740,o),
(303,740,cs),
(109,740,l),
(109,706,l),
(303,706,ls),
(509,706,o),
(612,538,o),
(612,370,cs),
(612,202,o),
(509,34,o),
(303,34,cs),
(109,34,l),
(109,0,l)
);
},
{
closed = 1;
nodes = (
(125,0,l),
(125,740,l),
(90,740,l),
(90,0,l)
);
},
{
closed = 1;
nodes = (
(321,818,l),
(432,970,l),
(395,970,l),
(293,833,l),
(313,833,l),
(210,970,l),
(173,970,l),
(284,818,l)
);
}
);
width = 708;
}
);
leftKerningGroup = h;
rightKerningGroup = O;
unicode = 270;
},
{
glyphname = Dcroat;
rightMetricsKey = O;
layers = (
{
layerId = "D43A2A6F-68E8-45C4-A912-BD747FE79F37";
shapes = (
{
closed = 1;
nodes = (
(395,296,l),
(395,444,l),
(5,444,l),
(5,296,l)
);
},
{
closed = 1;
nodes = (
(382,0,ls),
(628,0,o),
(752,185,o),
(752,370,cs),
(752,555,o),
(628,740,o),
(382,740,cs),
(249,740,l),
(249,572,l),
(373,572,ls),
(502,572,o),
(559,471,o),
(559,372,cs),
(559,272,o),
(502,171,o),
(373,171,cs),
(249,171,l),
(249,0,l)
);
},
{
closed = 1;
nodes = (
(268,0,l),
(268,740,l),
(76,740,l),
(76,0,l)
);
}
);
width = 782;
},
{
layerId = "F1D6C389-2D1A-40EB-B71A-932DD4B59B34";
shapes = (
{
closed = 1;
nodes = (
(394,326,l),
(394,414,l),
(40,414,l),
(40,326,l)
);
},
{
closed = 1;
nodes = (
(380,0,ls),
(616,0,o),
(733,185,o),
(733,370,cs),
(733,555,o),
(616,740,o),
(380,740,cs),
(210,740,l),
(210,654,l),
(376,654,ls),
(549,654,o),
(635,512,o),
(635,370,cs),
(635,228,o),
(549,86,o),
(376,86,cs),
(210,86,l),
(210,0,l)
);
},
{
closed = 1;
nodes = (
(238,0,l),
(238,740,l),
(140,740,l),
(140,0,l)
);
}
);
width = 788;
},
{
layerId = "C50750D9-3CEA-4BDB-8CD5-6DB84E6A41F9";
shapes = (
{
closed = 1;
nodes = (
(343,354,l),
(343,386,l),
(30,386,l),
(30,354,l)
);
},
{
closed = 1;
nodes = (
(348,0,ls),
(579,0,o),
(693,185,o),
(693,370,cs),
(693,555,o),
(579,740,o),
(348,740,cs),
(154,740,l),
(154,706,l),
(348,706,ls),
(554,706,o),
(657,538,o),
(657,370,cs),
(657,202,o),
(554,34,o),
(348,34,cs),
(154,34,l),
(154,0,l)
);
},
{
closed = 1;
nodes = (
(170,0,l),
(170,740,l),
(135,740,l),
(135,0,l)
);
}
);
width = 753;
}
);
rightKerningGroup = O;
unicode = 272;
},
{
glyphname = E;
leftMetricsKey = l;
layers = (
{
anchors = (
{
name = bottom;
position = "{285, 0}";
},
{
name = ogonek;
position = "{601, 0}";
},
{
name = top;
position = "{328, 740}";
},
{
name = topleft;
position = "{20, 736}";
}
);
layerId = "D43A2A6F-68E8-45C4-A912-BD747FE79F37";
shapes = (
{
closed = 1;
nodes = (
(551,296,l),
(551,454,l),
(60,454,l),
(60,296,l)
);
},
{
closed = 1;
nodes = (
(596,574,l),
(596,740,l),
(60,740,l),
(60,574,l)
);
},
{
closed = 1;
nodes = (
(601,0,l),
(601,166,l),
(60,166,l),
(60,0,l)
);
},
{
closed = 1;
nodes = (
(252,0,l),
(252,740,l),
(60,740,l),
(60,0,l)
);
}
);
width = 656;
},
{
anchors = (
{
name = bottom;
position = "{335, 0}";
},
{
name = ogonek;
position = "{565, 0}";
},
{
name = top;
position = "{335, 740}";
},
{
name = topleft;
position = "{32, 700}";
}
);
layerId = "F1D6C389-2D1A-40EB-B71A-932DD4B59B34";
shapes = (
{
closed = 1;
nodes = (
(514,334,l),
(514,420,l),
(101,420,l),
(101,334,l)
);
},
{
closed = 1;
nodes = (
(560,654,l),
(560,740,l),
(101,740,l),
(101,654,l)
);
},
{
closed = 1;
nodes = (
(565,0,l),
(565,86,l),
(101,86,l),
(101,0,l)
);
},
{
closed = 1;
nodes = (
(188,0,l),
(188,740,l),
(90,740,l),
(90,0,l)
);
}
);
width = 630;
},
{
anchors = (
{
name = bottom;
position = "{293, 0}";
},
{
name = ogonek;
position = "{513, 0}";
},
{
name = top;
position = "{294, 740}";
},
{
name = topleft;
position = "{21, 700}";
}
);
layerId = "C50750D9-3CEA-4BDB-8CD5-6DB84E6A41F9";
shapes = (
{
closed = 1;
nodes = (
(458,362,l),
(458,396,l),
(93,396,l),
(93,362,l)
);
},
{
closed = 1;
nodes = (
(507,706,l),
(507,740,l),
(93,740,l),
(93,706,l)
);
},
{
closed = 1;
nodes = (
(513,0,l),
(513,34,l),
(93,34,l),
(93,0,l)
);
},
{
closed = 1;
nodes = (
(125,0,l),
(125,740,l),
(90,740,l),
(90,0,l)
);
}
);
width = 588;
}
);
leftKerningGroup = l;
rightKerningGroup = E;
unicode = 69;
},
{
glyphname = Eacute;
layers = (
{
layerId = "D43A2A6F-68E8-45C4-A912-BD747FE79F37";
shapes = (
{
closed = 1;
nodes = (
(551,296,l),
(551,454,l),
(60,454,l),
(60,296,l)
);
},
{
closed = 1;
nodes = (
(596,574,l),
(596,740,l),
(60,740,l),
(60,574,l)
);
},
{
closed = 1;
nodes = (
(601,0,l),
(601,166,l),
(60,166,l),
(60,0,l)
);
},
{
closed = 1;
nodes = (
(252,0,l),
(252,740,l),
(60,740,l),
(60,0,l)
);
},
{
closed = 1;
nodes = (
(510,989,l),
(340,989,l),
(263,810,l),
(396,809,l)
);
}
);
width = 656;
},
{
layerId = "F1D6C389-2D1A-40EB-B71A-932DD4B59B34";
shapes = (
{
closed = 1;
nodes = (
(514,334,l),
(514,420,l),
(101,420,l),
(101,334,l)
);
},
{
closed = 1;
nodes = (
(560,654,l),
(560,740,l),
(101,740,l),
(101,654,l)
);
},
{
closed = 1;
nodes = (
(565,0,l),
(565,86,l),
(101,86,l),
(101,0,l)
);
},
{
closed = 1;
nodes = (
(188,0,l),
(188,740,l),
(90,740,l),
(90,0,l)
);
},
{
closed = 1;
nodes = (
(478,1001,l),
(380,1001,l),
(294,821,l),
(375,820,l)
);
}
);
width = 630;
},
{
layerId = "C50750D9-3CEA-4BDB-8CD5-6DB84E6A41F9";
shapes = (
{
closed = 1;
nodes = (
(458,362,l),
(458,396,l),
(93,396,l),
(93,362,l)
);
},
{
closed = 1;
nodes = (
(507,706,l),
(507,740,l),
(93,740,l),
(93,706,l)
);
},
{
closed = 1;
nodes = (
(513,0,l),
(513,34,l),
(93,34,l),
(93,0,l)
);
},
{
closed = 1;
nodes = (
(125,0,l),
(125,740,l),
(90,740,l),
(90,0,l)
);
},
{
closed = 1;
nodes = (
(408,980,l),
(367,980,l),
(282,828,l),
(316,828,l)
);
}
);
width = 588;
}
);
leftKerningGroup = l;
rightKerningGroup = E;
unicode = 201;
},
{
glyphname = Ecaron;
layers = (
{
layerId = "D43A2A6F-68E8-45C4-A912-BD747FE79F37";
shapes = (
{
closed = 1;
nodes = (
(551,296,l),
(551,454,l),
(60,454,l),
(60,296,l)
);
},
{
closed = 1;
nodes = (
(596,574,l),
(596,740,l),
(60,740,l),
(60,574,l)
);
},
{
closed = 1;
nodes = (
(601,0,l),
(601,166,l),
(60,166,l),
(60,0,l)
);
},
{
closed = 1;
nodes = (
(252,0,l),
(252,740,l),
(60,740,l),
(60,0,l)
);
},
{
closed = 1;
nodes = (
(401,800,l),
(536,989,l),
(395,989,l),
(303,849,l),
(353,850,l),
(260,989,l),
(119,989,l),
(254,800,l)
);
}
);
width = 656;
},
{
layerId = "F1D6C389-2D1A-40EB-B71A-932DD4B59B34";
shapes = (
{
closed = 1;
nodes = (
(514,334,l),
(514,420,l),
(101,420,l),
(101,334,l)
);
},
{
closed = 1;
nodes = (
(560,654,l),
(560,740,l),
(101,740,l),
(101,654,l)
);
},
{
closed = 1;
nodes = (
(565,0,l),
(565,86,l),
(101,86,l),
(101,0,l)
);
},
{
closed = 1;
nodes = (
(188,0,l),
(188,740,l),
(90,740,l),
(90,0,l)
);
},
{
closed = 1;
nodes = (
(376,805,l),
(497,972,l),
(411,972,l),
(309,828,l),
(361,828,l),
(260,972,l),
(174,972,l),
(295,805,l)
);
}
);
width = 630;
},
{
layerId = "C50750D9-3CEA-4BDB-8CD5-6DB84E6A41F9";
shapes = (
{
closed = 1;
nodes = (
(458,362,l),
(458,396,l),
(93,396,l),
(93,362,l)
);
},
{
closed = 1;
nodes = (
(507,706,l),
(507,740,l),
(93,740,l),
(93,706,l)
);
},
{
closed = 1;
nodes = (
(513,0,l),
(513,34,l),
(93,34,l),
(93,0,l)
);
},
{
closed = 1;
nodes = (
(125,0,l),
(125,740,l),
(90,740,l),
(90,0,l)
);
},
{
closed = 1;
nodes = (
(312,818,l),
(423,970,l),
(386,970,l),
(284,833,l),
(304,833,l),
(201,970,l),
(164,970,l),
(275,818,l)
);
}
);
width = 588;
}
);
leftKerningGroup = l;
rightKerningGroup = E;
unicode = 282;
},
{
glyphname = Ecircumflex;
layers = (
{
layerId = "D43A2A6F-68E8-45C4-A912-BD747FE79F37";
shapes = (
{
closed = 1;
nodes = (
(551,296,l),
(551,454,l),
(60,454,l),
(60,296,l)
);
},
{
closed = 1;
nodes = (
(596,574,l),
(596,740,l),
(60,740,l),
(60,574,l)
);
},
{
closed = 1;
nodes = (
(601,0,l),
(601,166,l),
(60,166,l),
(60,0,l)
);
},
{
closed = 1;
nodes = (
(252,0,l),
(252,740,l),
(60,740,l),
(60,0,l)
);
},
{
closed = 1;
nodes = (
(261,799,l),
(329,880,l),
(396,799,l),
(537,799,l),
(402,958,l),
(255,958,l),
(120,799,l)
);
}
);
width = 656;
},
{
layerId = "F1D6C389-2D1A-40EB-B71A-932DD4B59B34";
shapes = (
{
closed = 1;
nodes = (
(514,334,l),
(514,420,l),
(101,420,l),
(101,334,l)
);
},
{
closed = 1;
nodes = (
(560,654,l),
(560,740,l),
(101,740,l),
(101,654,l)
);
},
{
closed = 1;
nodes = (
(565,0,l),
(565,86,l),
(101,86,l),
(101,0,l)
);
},
{
closed = 1;
nodes = (
(188,0,l),
(188,740,l),
(90,740,l),
(90,0,l)
);
},
{
closed = 1;
nodes = (
(260,816,l),
(335,908,l),
(411,816,l),
(497,816,l),
(376,963,l),
(295,963,l),
(174,816,l)
);
}
);
width = 630;
},
{
layerId = "C50750D9-3CEA-4BDB-8CD5-6DB84E6A41F9";
shapes = (
{
closed = 1;
nodes = (
(458,362,l),
(458,396,l),
(93,396,l),
(93,362,l)
);
},
{
closed = 1;
nodes = (
(507,706,l),
(507,740,l),
(93,740,l),
(93,706,l)
);
},
{
closed = 1;
nodes = (
(513,0,l),
(513,34,l),
(93,34,l),
(93,0,l)
);
},
{
closed = 1;
nodes = (
(125,0,l),
(125,740,l),
(90,740,l),
(90,0,l)
);
},
{
closed = 1;
nodes = (
(202,818,l),
(295,932,l),
(387,818,l),
(424,818,l),
(313,956,l),
(276,956,l),
(165,818,l)
);
}
);
width = 588;
}
);
leftKerningGroup = l;
rightKerningGroup = E;
unicode = 202;
},
{
glyphname = Ecircumflexacute;
layers = (
{
layerId = "D43A2A6F-68E8-45C4-A912-BD747FE79F37";
shapes = (
{
closed = 1;
nodes = (
(551,296,l),
(551,454,l),
(60,454,l),
(60,296,l)
);
},
{
closed = 1;
nodes = (
(596,574,l),
(596,740,l),
(60,740,l),
(60,574,l)
);
},
{
closed = 1;
nodes = (
(601,0,l),
(601,166,l),
(60,166,l),
(60,0,l)
);
},
{
closed = 1;
nodes = (
(252,0,l),
(252,740,l),
(60,740,l),
(60,0,l)
);
},
{
closed = 1;
nodes = (
(260,799,l),
(328,880,l),
(395,799,l),
(536,799,l),
(401,958,l),
(254,958,l),
(119,799,l)
);
},
{
closed = 1;
nodes = (
(713,1109,l),
(543,1109,l),
(466,930,l),
(599,929,l)
);
}
);
width = 656;
},
{
layerId = "F1D6C389-2D1A-40EB-B71A-932DD4B59B34";
shapes = (
{
closed = 1;
nodes = (
(514,334,l),
(514,420,l),
(101,420,l),
(101,334,l)
);
},
{
closed = 1;
nodes = (
(560,654,l),
(560,740,l),
(101,740,l),
(101,654,l)
);
},
{
closed = 1;
nodes = (
(565,0,l),
(565,86,l),
(101,86,l),
(101,0,l)
);
},
{
closed = 1;
nodes = (
(188,0,l),
(188,740,l),
(90,740,l),
(90,0,l)
);
},
{
closed = 1;
nodes = (
(260,816,l),
(335,908,l),
(411,816,l),
(497,816,l),
(376,963,l),
(295,963,l),
(174,816,l)
);
},
{
closed = 1;
nodes = (
(631,1125,l),
(533,1125,l),
(447,945,l),
(528,944,l)
);
}
);
width = 630;
},
{
layerId = "C50750D9-3CEA-4BDB-8CD5-6DB84E6A41F9";
shapes = (
{
closed = 1;
nodes = (
(458,362,l),
(458,396,l),
(93,396,l),
(93,362,l)
);
},
{
closed = 1;
nodes = (
(507,706,l),
(507,740,l),
(93,740,l),
(93,706,l)
);
},
{
closed = 1;
nodes = (
(513,0,l),
(513,34,l),
(93,34,l),
(93,0,l)
);
},
{
closed = 1;
nodes = (
(125,0,l),
(125,740,l),
(90,740,l),
(90,0,l)
);
},
{
closed = 1;
nodes = (
(204,818,l),
(297,932,l),
(389,818,l),
(426,818,l),
(315,956,l),
(278,956,l),
(167,818,l)
);
},
{
closed = 1;
nodes = (
(542,1089,l),
(501,1089,l),
(416,937,l),
(450,937,l)
);
}
);
width = 588;
}
);
leftKerningGroup = l;
rightKerningGroup = E;
unicode = 7870;
},
{
glyphname = Ecircumflexdotbelow;
layers = (
{
layerId = "D43A2A6F-68E8-45C4-A912-BD747FE79F37";
shapes = (
{
closed = 1;
nodes = (
(551,296,l),
(551,454,l),
(60,454,l),
(60,296,l)
);
},
{
closed = 1;
nodes = (
(596,574,l),
(596,740,l),
(60,740,l),
(60,574,l)
);
},
{
closed = 1;
nodes = (
(601,0,l),
(601,166,l),
(60,166,l),
(60,0,l)
);
},
{
closed = 1;
nodes = (
(252,0,l),
(252,740,l),
(60,740,l),
(60,0,l)
);
},
{
closed = 1;
nodes = (
(336,-260,o),
(374,-220,o),
(374,-171,cs),
(374,-121,o),
(336,-82,o),
(285,-82,cs),
(232,-82,o),
(196,-121,o),
(196,-171,cs),
(196,-220,o),
(232,-260,o),
(285,-260,cs)
);
},
{
closed = 1;
nodes = (
(261,799,l),
(329,880,l),
(396,799,l),
(537,799,l),
(402,958,l),
(255,958,l),
(120,799,l)
);
}
);
width = 656;
},
{
layerId = "F1D6C389-2D1A-40EB-B71A-932DD4B59B34";
shapes = (
{
closed = 1;
nodes = (
(514,334,l),
(514,420,l),
(101,420,l),
(101,334,l)
);
},
{
closed = 1;
nodes = (
(560,654,l),
(560,740,l),
(101,740,l),
(101,654,l)
);
},
{
closed = 1;
nodes = (
(565,0,l),
(565,86,l),
(101,86,l),
(101,0,l)
);
},
{
closed = 1;
nodes = (
(188,0,l),
(188,740,l),
(90,740,l),
(90,0,l)
);
},
{
closed = 1;
nodes = (
(372,-227,o),
(400,-198,o),
(400,-162,cs),
(400,-126,o),
(372,-97,o),
(335,-97,cs),
(297,-97,o),
(270,-126,o),
(270,-162,cs),
(270,-197,o),
(297,-227,o),
(335,-227,cs)
);
},
{
closed = 1;
nodes = (
(260,816,l),
(335,908,l),
(411,816,l),
(497,816,l),
(376,963,l),
(295,963,l),
(174,816,l)
);
}
);
width = 630;
},
{
layerId = "C50750D9-3CEA-4BDB-8CD5-6DB84E6A41F9";
shapes = (
{
closed = 1;
nodes = (
(458,362,l),
(458,396,l),
(93,396,l),
(93,362,l)
);
},
{
closed = 1;
nodes = (
(507,706,l),
(507,740,l),
(93,740,l),
(93,706,l)
);
},
{
closed = 1;
nodes = (
(513,0,l),
(513,34,l),
(93,34,l),
(93,0,l)
);
},
{
closed = 1;
nodes = (
(125,0,l),
(125,740,l),
(90,740,l),
(90,0,l)
);
},
{
closed = 1;
nodes = (
(313,-192,o),
(330,-175,o),
(330,-154,cs),
(330,-134,o),
(313,-117,o),
(292,-117,cs),
(271,-117,o),
(255,-134,o),
(255,-154,cs),
(255,-175,o),
(271,-192,o),
(292,-192,cs)
);
},
{
closed = 1;
nodes = (
(202,818,l),
(295,932,l),
(387,818,l),
(424,818,l),
(313,956,l),
(276,956,l),
(165,818,l)
);
}
);
width = 588;
}
);
leftKerningGroup = l;
rightKerningGroup = E;
unicode = 7878;
},
{
glyphname = Ecircumflexgrave;
layers = (
{
layerId = "D43A2A6F-68E8-45C4-A912-BD747FE79F37";
shapes = (
{
closed = 1;
nodes = (
(551,296,l),
(551,454,l),
(60,454,l),
(60,296,l)
);
},
{
closed = 1;
nodes = (
(596,574,l),
(596,740,l),
(60,740,l),
(60,574,l)
);
},
{
closed = 1;
nodes = (
(601,0,l),
(601,166,l),
(60,166,l),
(60,0,l)
);
},
{
closed = 1;
nodes = (
(252,0,l),
(252,740,l),
(60,740,l),
(60,0,l)
);
},
{
closed = 1;
nodes = (
(261,799,l),
(329,880,l),
(396,799,l),
(537,799,l),
(402,958,l),
(255,958,l),
(120,799,l)
);
},
{
closed = 1;
nodes = (
(620,930,l),
(543,1109,l),
(373,1109,l),
(487,929,l)
);
}
);
width = 656;
},
{
layerId = "F1D6C389-2D1A-40EB-B71A-932DD4B59B34";
shapes = (
{
closed = 1;
nodes = (
(514,334,l),
(514,420,l),
(101,420,l),
(101,334,l)
);
},
{
closed = 1;
nodes = (
(560,654,l),
(560,740,l),
(101,740,l),
(101,654,l)
);
},
{
closed = 1;
nodes = (
(565,0,l),
(565,86,l),
(101,86,l),
(101,0,l)
);
},
{
closed = 1;
nodes = (
(188,0,l),
(188,740,l),
(90,740,l),
(90,0,l)
);
},
{
closed = 1;
nodes = (
(260,816,l),
(335,908,l),
(411,816,l),
(497,816,l),
(376,963,l),
(295,963,l),
(174,816,l)
);
},
{
closed = 1;
nodes = (
(553,945,l),
(467,1125,l),
(369,1125,l),
(472,944,l)
);
}
);
width = 630;
},
{
layerId = "C50750D9-3CEA-4BDB-8CD5-6DB84E6A41F9";
shapes = (
{
closed = 1;
nodes = (
(458,362,l),
(458,396,l),
(93,396,l),
(93,362,l)
);
},
{
closed = 1;
nodes = (
(507,706,l),
(507,740,l),
(93,740,l),
(93,706,l)
);
},
{
closed = 1;
nodes = (
(513,0,l),
(513,34,l),
(93,34,l),
(93,0,l)
);
},
{
closed = 1;
nodes = (
(125,0,l),
(125,740,l),
(90,740,l),
(90,0,l)
);
},
{
closed = 1;
nodes = (
(202,818,l),
(295,932,l),
(387,818,l),
(424,818,l),
(313,956,l),
(276,956,l),
(165,818,l)
);
},
{
closed = 1;
nodes = (
(455,937,l),
(370,1089,l),
(329,1089,l),
(421,937,l)
);
}
);
width = 588;
}
);
leftKerningGroup = l;
rightKerningGroup = E;
unicode = 7872;
},
{
glyphname = Ecircumflexhookabove;
layers = (
{
layerId = "D43A2A6F-68E8-45C4-A912-BD747FE79F37";
shapes = (
{
closed = 1;
nodes = (
(551,296,l),
(551,454,l),
(60,454,l),
(60,296,l)
);
},
{
closed = 1;
nodes = (
(596,574,l),
(596,740,l),
(60,740,l),
(60,574,l)
);
},
{
closed = 1;
nodes = (
(601,0,l),
(601,166,l),
(60,166,l),
(60,0,l)
);
},
{
closed = 1;
nodes = (
(252,0,l),
(252,740,l),
(60,740,l),
(60,0,l)
);
},
{
closed = 1;
nodes = (
(255,799,l),
(323,880,l),
(390,799,l),
(531,799,l),
(396,958,l),
(249,958,l),
(114,799,l)
);
},
{
closed = 1;
nodes = (
(598,907,l),
(598,978,l),
(560,913,l),
(603,937,ls),
(647,961,o),
(689,990,o),
(689,1044,cs),
(689,1105,o),
(635,1158,o),
(547,1158,cs),
(449,1158,o),
(411,1088,o),
(413,1032,c),
(514,1032,l),
(514,1032,o),
(514,1069,o),
(549,1069,cs),
(568,1069,o),
(581,1056,o),
(581,1040,cs),
(581,1018,o),
(565,1008,o),
(540,995,cs),
(524,987,ls),
(504,977,o),
(496,960,o),
(496,940,cs),
(496,907,l)
);
}
);
width = 656;
},
{
layerId = "F1D6C389-2D1A-40EB-B71A-932DD4B59B34";
shapes = (
{
closed = 1;
nodes = (
(514,334,l),
(514,420,l),
(101,420,l),
(101,334,l)
);
},
{
closed = 1;
nodes = (
(560,654,l),
(560,740,l),
(101,740,l),
(101,654,l)
);
},
{
closed = 1;
nodes = (
(565,0,l),
(565,86,l),
(101,86,l),
(101,0,l)
);
},
{
closed = 1;
nodes = (
(188,0,l),
(188,740,l),
(90,740,l),
(90,0,l)
);
},
{
closed = 1;
nodes = (
(260,816,l),
(335,908,l),
(411,816,l),
(497,816,l),
(376,963,l),
(295,963,l),
(174,816,l)
);
},
{
closed = 1;
nodes = (
(521,937,l),
(521,997,l),
(491,952,l),
(525,968,ls),
(581,995,o),
(605,1027,o),
(605,1065,cs),
(605,1116,o),
(561,1158,o),
(491,1158,cs),
(414,1158,o),
(380,1106,o),
(381,1057,c),
(447,1057,l),
(447,1068,o),
(452,1100,o),
(492,1100,cs),
(522,1100,o),
(536,1081,o),
(536,1063,cs),
(536,1044,o),
(522,1028,o),
(490,1012,cs),
(476,1005,ls),
(460,997,o),
(456,982,o),
(456,969,cs),
(456,937,l)
);
}
);
width = 630;
},
{
layerId = "C50750D9-3CEA-4BDB-8CD5-6DB84E6A41F9";
shapes = (
{
closed = 1;
nodes = (
(458,362,l),
(458,396,l),
(93,396,l),
(93,362,l)
);
},
{
closed = 1;
nodes = (
(507,706,l),
(507,740,l),
(93,740,l),
(93,706,l)
);
},
{
closed = 1;
nodes = (
(513,0,l),
(513,34,l),
(93,34,l),
(93,0,l)
);
},
{
closed = 1;
nodes = (
(125,0,l),
(125,740,l),
(90,740,l),
(90,0,l)
);
},
{
closed = 1;
nodes = (
(202,818,l),
(295,932,l),
(387,818,l),
(424,818,l),
(313,956,l),
(276,956,l),
(165,818,l)
);
},
{
closed = 1;
nodes = (
(442,923,l),
(442,974,l),
(419,947,l),
(443,958,ls),
(498,983,o),
(516,1013,o),
(516,1043,cs),
(516,1084,o),
(485,1114,o),
(434,1114,cs),
(383,1114,o),
(352,1084,o),
(352,1037,c),
(381,1037,l),
(381,1060,o),
(392,1086,o),
(434,1086,cs),
(473,1086,o),
(486,1062,o),
(486,1042,cs),
(486,1016,o),
(467,997,o),
(439,983,cs),
(427,977,ls),
(418,973,o),
(414,965,o),
(414,955,cs),
(414,923,l)
);
}
);
width = 588;
}
);
leftKerningGroup = l;
rightKerningGroup = E;
unicode = 7874;
},
{
glyphname = Ecircumflextilde;
layers = (
{
layerId = "D43A2A6F-68E8-45C4-A912-BD747FE79F37";
shapes = (
{
closed = 1;
nodes = (
(551,296,l),
(551,454,l),
(60,454,l),
(60,296,l)
);
},
{
closed = 1;
nodes = (
(596,574,l),
(596,740,l),
(60,740,l),
(60,574,l)
);
},
{
closed = 1;
nodes = (
(601,0,l),
(601,166,l),
(60,166,l),
(60,0,l)
);
},
{
closed = 1;
nodes = (
(252,0,l),
(252,740,l),
(60,740,l),
(60,0,l)
);
},
{
closed = 1;
nodes = (
(260,799,l),
(328,880,l),
(395,799,l),
(536,799,l),
(401,958,l),
(254,958,l),
(119,799,l)
);
},
{
closed = 1;
nodes = (
(493,992,o),
(510,1082,o),
(510,1151,c),
(417,1151,l),
(417,1117,o),
(411,1098,o),
(392,1098,cs),
(358,1098,o),
(326,1157,o),
(253,1157,cs),
(162,1157,o),
(145,1067,o),
(145,998,c),
(238,998,l),
(238,1032,o),
(244,1051,o),
(264,1051,cs),
(300,1051,o),
(329,992,o),
(402,992,cs)
);
}
);
width = 656;
},
{
layerId = "F1D6C389-2D1A-40EB-B71A-932DD4B59B34";
shapes = (
{
closed = 1;
nodes = (
(514,334,l),
(514,420,l),
(101,420,l),
(101,334,l)
);
},
{
closed = 1;
nodes = (
(560,654,l),
(560,740,l),
(101,740,l),
(101,654,l)
);
},
{
closed = 1;
nodes = (
(565,0,l),
(565,86,l),
(101,86,l),
(101,0,l)
);
},
{
closed = 1;
nodes = (
(188,0,l),
(188,740,l),
(90,740,l),
(90,0,l)
);
},
{
closed = 1;
nodes = (
(259,816,l),
(334,908,l),
(410,816,l),
(496,816,l),
(375,963,l),
(294,963,l),
(173,816,l)
);
},
{
closed = 1;
nodes = (
(473,1002,o),
(492,1070,o),
(492,1132,c),
(428,1132,l),
(428,1095,o),
(418,1072,o),
(397,1072,cs),
(361,1072,o),
(341,1137,o),
(268,1137,cs),
(197,1137,o),
(178,1070,o),
(178,1008,c),
(242,1008,l),
(242,1044,o),
(251,1068,o),
(274,1068,cs),
(311,1068,o),
(331,1002,o),
(403,1002,cs)
);
}
);
width = 630;
},
{
layerId = "C50750D9-3CEA-4BDB-8CD5-6DB84E6A41F9";
shapes = (
{
closed = 1;
nodes = (
(458,362,l),
(458,396,l),
(93,396,l),
(93,362,l)
);
},
{
closed = 1;
nodes = (
(507,706,l),
(507,740,l),
(93,740,l),
(93,706,l)
);
},
{
closed = 1;
nodes = (
(513,0,l),
(513,34,l),
(93,34,l),
(93,0,l)
);
},
{
closed = 1;
nodes = (
(125,0,l),
(125,740,l),
(90,740,l),
(90,0,l)
);
},
{
closed = 1;
nodes = (
(202,818,l),
(295,932,l),
(387,818,l),
(424,818,l),
(313,956,l),
(276,956,l),
(165,818,l)
);
},
{
closed = 1;
nodes = (
(399,996,o),
(419,1043,o),
(419,1101,c),
(389,1101,l),
(389,1054,o),
(379,1025,o),
(354,1025,cs),
(314,1025,o),
(300,1106,o),
(236,1106,cs),
(189,1106,o),
(170,1059,o),
(170,1001,c),
(200,1001,l),
(200,1049,o),
(210,1077,o),
(236,1077,cs),
(279,1077,o),
(294,996,o),
(354,996,cs)
);
}
);
width = 588;
}
);
leftKerningGroup = l;
rightKerningGroup = E;
unicode = 7876;
},
{
glyphname = Edieresis;
layers = (
{
layerId = "D43A2A6F-68E8-45C4-A912-BD747FE79F37";
shapes = (
{
closed = 1;
nodes = (
(551,296,l),
(551,454,l),
(60,454,l),
(60,296,l)
);
},
{
closed = 1;
nodes = (
(596,574,l),
(596,740,l),
(60,740,l),
(60,574,l)
);
},
{
closed = 1;
nodes = (
(601,0,l),
(601,166,l),
(60,166,l),
(60,0,l)
);
},
{
closed = 1;
nodes = (
(252,0,l),
(252,740,l),
(60,740,l),
(60,0,l)
);
},
{
closed = 1;
nodes = (
(512,788,o),
(555,832,o),
(555,885,cs),
(555,940,o),
(512,983,o),
(453,983,cs),
(393,983,o),
(351,940,o),
(351,885,cs),
(351,832,o),
(393,788,o),
(453,788,cs)
);
},
{
closed = 1;
nodes = (
(261,788,o),
(304,832,o),
(304,885,cs),
(304,940,o),
(261,983,o),
(202,983,cs),
(142,983,o),
(100,940,o),
(100,885,cs),
(100,832,o),
(142,788,o),
(202,788,cs)
);
}
);
width = 656;
},
{
layerId = "F1D6C389-2D1A-40EB-B71A-932DD4B59B34";
shapes = (
{
closed = 1;
nodes = (
(514,334,l),
(514,420,l),
(101,420,l),
(101,334,l)
);
},
{
closed = 1;
nodes = (
(560,654,l),
(560,740,l),
(101,740,l),
(101,654,l)
);
},
{
closed = 1;
nodes = (
(565,0,l),
(565,86,l),
(101,86,l),
(101,0,l)
);
},
{
closed = 1;
nodes = (
(188,0,l),
(188,740,l),
(90,740,l),
(90,0,l)
);
},
{
closed = 1;
nodes = (
(465,821,o),
(492,848,o),
(492,882,cs),
(492,916,o),
(465,944,o),
(430,944,cs),
(394,944,o),
(368,916,o),
(368,882,cs),
(368,849,o),
(394,821,o),
(430,821,cs)
);
},
{
closed = 1;
nodes = (
(275,821,o),
(302,848,o),
(302,882,cs),
(302,916,o),
(275,944,o),
(240,944,cs),
(204,944,o),
(178,916,o),
(178,882,cs),
(178,849,o),
(204,821,o),
(240,821,cs)
);
}
);
width = 630;
},
{
layerId = "C50750D9-3CEA-4BDB-8CD5-6DB84E6A41F9";
shapes = (
{
closed = 1;
nodes = (
(458,362,l),
(458,396,l),
(93,396,l),
(93,362,l)
);
},
{
closed = 1;
nodes = (
(507,706,l),
(507,740,l),
(93,740,l),
(93,706,l)
);
},
{
closed = 1;
nodes = (
(513,0,l),
(513,34,l),
(93,34,l),
(93,0,l)
);
},
{
closed = 1;
nodes = (
(125,0,l),
(125,740,l),
(90,740,l),
(90,0,l)
);
},
{
closed = 1;
nodes = (
(383,840,o),
(399,856,o),
(399,876,cs),
(399,895,o),
(383,912,o),
(363,912,cs),
(343,912,o),
(328,895,o),
(328,876,cs),
(328,856,o),
(343,840,o),
(363,840,cs)
);
},
{
closed = 1;
nodes = (
(244,840,o),
(260,856,o),
(260,876,cs),
(260,895,o),
(244,912,o),
(224,912,cs),
(204,912,o),
(189,895,o),
(189,876,cs),
(189,856,o),
(204,840,o),
(224,840,cs)
);
}
);
width = 588;
}
);
leftKerningGroup = l;
rightKerningGroup = E;
unicode = 203;
},
{
glyphname = Edotaccent;
layers = (
{
layerId = "D43A2A6F-68E8-45C4-A912-BD747FE79F37";
shapes = (
{
closed = 1;
nodes = (
(551,296,l),
(551,454,l),
(60,454,l),
(60,296,l)
);
},
{
closed = 1;
nodes = (
(596,574,l),
(596,740,l),
(60,740,l),
(60,574,l)
);
},
{
closed = 1;
nodes = (
(601,0,l),
(601,166,l),
(60,166,l),
(60,0,l)
);
},
{
closed = 1;
nodes = (
(252,0,l),
(252,740,l),
(60,740,l),
(60,0,l)
);
},
{
closed = 1;
nodes = (
(391,793,o),
(437,840,o),
(437,896,cs),
(437,954,o),
(391,1000,o),
(328,1000,cs),
(265,1000,o),
(220,954,o),
(220,896,cs),
(220,840,o),
(265,793,o),
(328,793,cs)
);
}
);
width = 656;
},
{
layerId = "F1D6C389-2D1A-40EB-B71A-932DD4B59B34";
shapes = (
{
closed = 1;
nodes = (
(514,334,l),
(514,420,l),
(101,420,l),
(101,334,l)
);
},
{
closed = 1;
nodes = (
(560,654,l),
(560,740,l),
(101,740,l),
(101,654,l)
);
},
{
closed = 1;
nodes = (
(565,0,l),
(565,86,l),
(101,86,l),
(101,0,l)
);
},
{
closed = 1;
nodes = (
(188,0,l),
(188,740,l),
(90,740,l),
(90,0,l)
);
},
{
closed = 1;
nodes = (
(370,841,o),
(397,868,o),
(397,902,cs),
(397,936,o),
(370,964,o),
(335,964,cs),
(299,964,o),
(273,936,o),
(273,902,cs),
(273,869,o),
(299,841,o),
(335,841,cs)
);
}
);
width = 630;
},
{
layerId = "C50750D9-3CEA-4BDB-8CD5-6DB84E6A41F9";
shapes = (
{
closed = 1;
nodes = (
(458,362,l),
(458,396,l),
(93,396,l),
(93,362,l)
);
},
{
closed = 1;
nodes = (
(507,706,l),
(507,740,l),
(93,740,l),
(93,706,l)
);
},
{
closed = 1;
nodes = (
(513,0,l),
(513,34,l),
(93,34,l),
(93,0,l)
);
},
{
closed = 1;
nodes = (
(125,0,l),
(125,740,l),
(90,740,l),
(90,0,l)
);
},
{
closed = 1;
nodes = (
(313,845,o),
(329,861,o),
(329,881,cs),
(329,900,o),
(313,917,o),
(293,917,cs),
(273,917,o),
(258,900,o),
(258,881,cs),
(258,861,o),
(273,845,o),
(293,845,cs)
);
}
);
width = 588;
}
);
leftKerningGroup = l;
rightKerningGroup = E;
unicode = 278;
},
{
glyphname = Edotbelow;
layers = (
{
layerId = "D43A2A6F-68E8-45C4-A912-BD747FE79F37";
shapes = (
{
closed = 1;
nodes = (
(551,296,l),
(551,454,l),
(60,454,l),
(60,296,l)
);
},
{
closed = 1;
nodes = (
(596,574,l),
(596,740,l),
(60,740,l),
(60,574,l)
);
},
{
closed = 1;
nodes = (
(601,0,l),
(601,166,l),
(60,166,l),
(60,0,l)
);
},
{
closed = 1;
nodes = (
(252,0,l),
(252,740,l),
(60,740,l),
(60,0,l)
);
},
{
closed = 1;
nodes = (
(336,-260,o),
(374,-220,o),
(374,-171,cs),
(374,-121,o),
(336,-82,o),
(285,-82,cs),
(232,-82,o),
(196,-121,o),
(196,-171,cs),
(196,-220,o),
(232,-260,o),
(285,-260,cs)
);
}
);
width = 656;
},
{
layerId = "F1D6C389-2D1A-40EB-B71A-932DD4B59B34";
shapes = (
{
closed = 1;
nodes = (
(514,334,l),
(514,420,l),
(101,420,l),
(101,334,l)
);
},
{
closed = 1;
nodes = (
(560,654,l),
(560,740,l),
(101,740,l),
(101,654,l)
);
},
{
closed = 1;
nodes = (
(565,0,l),
(565,86,l),
(101,86,l),
(101,0,l)
);
},
{
closed = 1;
nodes = (
(188,0,l),
(188,740,l),
(90,740,l),
(90,0,l)
);
},
{
closed = 1;
nodes = (
(372,-227,o),
(400,-198,o),
(400,-162,cs),
(400,-126,o),
(372,-97,o),
(335,-97,cs),
(297,-97,o),
(270,-126,o),
(270,-162,cs),
(270,-197,o),
(297,-227,o),
(335,-227,cs)
);
}
);
width = 630;
},
{
layerId = "C50750D9-3CEA-4BDB-8CD5-6DB84E6A41F9";
shapes = (
{
closed = 1;
nodes = (
(458,362,l),
(458,396,l),
(93,396,l),
(93,362,l)
);
},
{
closed = 1;
nodes = (
(507,706,l),
(507,740,l),
(93,740,l),
(93,706,l)
);
},
{
closed = 1;
nodes = (
(513,0,l),
(513,34,l),
(93,34,l),
(93,0,l)
);
},
{
closed = 1;
nodes = (
(125,0,l),
(125,740,l),
(90,740,l),
(90,0,l)
);
},
{
closed = 1;
nodes = (
(313,-192,o),
(330,-175,o),
(330,-154,cs),
(330,-134,o),
(313,-117,o),
(292,-117,cs),
(271,-117,o),
(255,-134,o),
(255,-154,cs),
(255,-175,o),
(271,-192,o),
(292,-192,cs)
);
}
);
width = 588;
}
);
leftKerningGroup = l;
rightKerningGroup = E;
unicode = 7864;
},
{
glyphname = Egrave;
layers = (
{
layerId = "D43A2A6F-68E8-45C4-A912-BD747FE79F37";
shapes = (
{
closed = 1;
nodes = (
(551,296,l),
(551,454,l),
(60,454,l),
(60,296,l)
);
},
{
closed = 1;
nodes = (
(596,574,l),
(596,740,l),
(60,740,l),
(60,574,l)
);
},
{
closed = 1;
nodes = (
(601,0,l),
(601,166,l),
(60,166,l),
(60,0,l)
);
},
{
closed = 1;
nodes = (
(252,0,l),
(252,740,l),
(60,740,l),
(60,0,l)
);
},
{
closed = 1;
nodes = (
(396,810,l),
(319,989,l),
(149,989,l),
(263,809,l)
);
}
);
width = 656;
},
{
layerId = "F1D6C389-2D1A-40EB-B71A-932DD4B59B34";
shapes = (
{
closed = 1;
nodes = (
(514,334,l),
(514,420,l),
(101,420,l),
(101,334,l)
);
},
{
closed = 1;
nodes = (
(560,654,l),
(560,740,l),
(101,740,l),
(101,654,l)
);
},
{
closed = 1;
nodes = (
(565,0,l),
(565,86,l),
(101,86,l),
(101,0,l)
);
},
{
closed = 1;
nodes = (
(188,0,l),
(188,740,l),
(90,740,l),
(90,0,l)
);
},
{
closed = 1;
nodes = (
(380,821,l),
(294,1001,l),
(196,1001,l),
(299,820,l)
);
}
);
width = 630;
},
{
layerId = "C50750D9-3CEA-4BDB-8CD5-6DB84E6A41F9";
shapes = (
{
closed = 1;
nodes = (
(458,362,l),
(458,396,l),
(93,396,l),
(93,362,l)
);
},
{
closed = 1;
nodes = (
(507,706,l),
(507,740,l),
(93,740,l),
(93,706,l)
);
},
{
closed = 1;
nodes = (
(513,0,l),
(513,34,l),
(93,34,l),
(93,0,l)
);
},
{
closed = 1;
nodes = (
(125,0,l),
(125,740,l),
(90,740,l),
(90,0,l)
);
},
{
closed = 1;
nodes = (
(308,828,l),
(223,980,l),
(182,980,l),
(274,828,l)
);
}
);
width = 588;
}
);
leftKerningGroup = l;
rightKerningGroup = E;
unicode = 200;
},
{
glyphname = Ehookabove;
layers = (
{
layerId = "D43A2A6F-68E8-45C4-A912-BD747FE79F37";
shapes = (
{
closed = 1;
nodes = (
(551,296,l),
(551,454,l),
(60,454,l),
(60,296,l)
);
},
{
closed = 1;
nodes = (
(596,574,l),
(596,740,l),
(60,740,l),
(60,574,l)
);
},
{
closed = 1;
nodes = (
(601,0,l),
(601,166,l),
(60,166,l),
(60,0,l)
);
},
{
closed = 1;
nodes = (
(252,0,l),
(252,740,l),
(60,740,l),
(60,0,l)
);
},
{
closed = 1;
nodes = (
(380,795,l),
(380,866,l),
(342,801,l),
(385,825,ls),
(429,849,o),
(471,878,o),
(471,932,cs),
(471,993,o),
(417,1046,o),
(329,1046,cs),
(231,1046,o),
(193,976,o),
(195,920,c),
(296,920,l),
(296,920,o),
(296,957,o),
(331,957,cs),
(350,957,o),
(363,944,o),
(363,928,cs),
(363,906,o),
(347,896,o),
(322,883,cs),
(306,875,ls),
(286,865,o),
(278,848,o),
(278,828,cs),
(278,795,l)
);
}
);
width = 656;
},
{
layerId = "F1D6C389-2D1A-40EB-B71A-932DD4B59B34";
shapes = (
{
closed = 1;
nodes = (
(514,334,l),
(514,420,l),
(101,420,l),
(101,334,l)
);
},
{
closed = 1;
nodes = (
(560,654,l),
(560,740,l),
(101,740,l),
(101,654,l)
);
},
{
closed = 1;
nodes = (
(565,0,l),
(565,86,l),
(101,86,l),
(101,0,l)
);
},
{
closed = 1;
nodes = (
(188,0,l),
(188,740,l),
(90,740,l),
(90,0,l)
);
},
{
closed = 1;
nodes = (
(368,813,l),
(368,873,l),
(338,828,l),
(372,844,ls),
(428,871,o),
(452,903,o),
(452,941,cs),
(452,992,o),
(408,1034,o),
(338,1034,cs),
(261,1034,o),
(227,982,o),
(228,933,c),
(294,933,l),
(294,944,o),
(299,976,o),
(339,976,cs),
(369,976,o),
(383,957,o),
(383,939,cs),
(383,920,o),
(369,904,o),
(337,888,cs),
(323,881,ls),
(307,873,o),
(303,858,o),
(303,845,cs),
(303,813,l)
);
}
);
width = 630;
},
{
layerId = "C50750D9-3CEA-4BDB-8CD5-6DB84E6A41F9";
shapes = (
{
closed = 1;
nodes = (
(458,362,l),
(458,396,l),
(93,396,l),
(93,362,l)
);
},
{
closed = 1;
nodes = (
(507,706,l),
(507,740,l),
(93,740,l),
(93,706,l)
);
},
{
closed = 1;
nodes = (
(513,0,l),
(513,34,l),
(93,34,l),
(93,0,l)
);
},
{
closed = 1;
nodes = (
(125,0,l),
(125,740,l),
(90,740,l),
(90,0,l)
);
},
{
closed = 1;
nodes = (
(310,814,l),
(310,865,l),
(287,838,l),
(311,849,ls),
(366,874,o),
(384,904,o),
(384,934,cs),
(384,975,o),
(353,1005,o),
(302,1005,cs),
(251,1005,o),
(220,975,o),
(220,928,c),
(249,928,l),
(249,951,o),
(260,977,o),
(302,977,cs),
(341,977,o),
(354,953,o),
(354,933,cs),
(354,907,o),
(335,888,o),
(307,874,cs),
(295,868,ls),
(286,864,o),
(282,856,o),
(282,846,cs),
(282,814,l)
);
}
);
width = 588;
}
);
leftKerningGroup = l;
rightKerningGroup = E;
unicode = 7866;
},
{
glyphname = Emacron;
layers = (
{
layerId = "D43A2A6F-68E8-45C4-A912-BD747FE79F37";
shapes = (
{
closed = 1;
nodes = (
(551,296,l),
(551,454,l),
(60,454,l),
(60,296,l)
);
},
{
closed = 1;
nodes = (
(596,574,l),
(596,740,l),
(60,740,l),
(60,574,l)
);
},
{
closed = 1;
nodes = (
(601,0,l),
(601,166,l),
(60,166,l),
(60,0,l)
);
},
{
closed = 1;
nodes = (
(252,0,l),
(252,740,l),
(60,740,l),
(60,0,l)
);
},
{
closed = 1;
nodes = (
(498,818,l),
(498,920,l),
(158,920,l),
(158,818,l)
);
}
);
width = 656;
},
{
layerId = "F1D6C389-2D1A-40EB-B71A-932DD4B59B34";
shapes = (
{
closed = 1;
nodes = (
(514,334,l),
(514,420,l),
(101,420,l),
(101,334,l)
);
},
{
closed = 1;
nodes = (
(560,654,l),
(560,740,l),
(101,740,l),
(101,654,l)
);
},
{
closed = 1;
nodes = (
(565,0,l),
(565,86,l),
(101,86,l),
(101,0,l)
);
},
{
closed = 1;
nodes = (
(188,0,l),
(188,740,l),
(90,740,l),
(90,0,l)
);
},
{
closed = 1;
nodes = (
(487,836,l),
(487,908,l),
(183,908,l),
(183,836,l)
);
}
);
width = 630;
},
{
layerId = "C50750D9-3CEA-4BDB-8CD5-6DB84E6A41F9";
shapes = (
{
closed = 1;
nodes = (
(458,362,l),
(458,396,l),
(93,396,l),
(93,362,l)
);
},
{
closed = 1;
nodes = (
(507,706,l),
(507,740,l),
(93,740,l),
(93,706,l)
);
},
{
closed = 1;
nodes = (
(513,0,l),
(513,34,l),
(93,34,l),
(93,0,l)
);
},
{
closed = 1;
nodes = (
(125,0,l),
(125,740,l),
(90,740,l),
(90,0,l)
);
},
{
closed = 1;
nodes = (
(434,848,l),
(434,878,l),
(154,878,l),
(154,848,l)
);
}
);
width = 588;
}
);
leftKerningGroup = l;
rightKerningGroup = E;
unicode = 274;
},
{
glyphname = Eogonek;
layers = (
{
layerId = "D43A2A6F-68E8-45C4-A912-BD747FE79F37";
shapes = (
{
closed = 1;
nodes = (
(551,296,l),
(551,454,l),
(60,454,l),
(60,296,l)
);
},
{
closed = 1;
nodes = (
(596,574,l),
(596,740,l),
(60,740,l),
(60,574,l)
);
},
{
closed = 1;
nodes = (
(601,0,l),
(601,166,l),
(60,166,l),
(60,0,l)
);
},
{
closed = 1;
nodes = (
(252,0,l),
(252,740,l),
(60,740,l),
(60,0,l)
);
},
{
closed = 1;
nodes = (
(610,-194,o),
(636,-189,o),
(636,-189,c),
(636,-87,l),
(636,-87,o),
(620,-90,o),
(604,-90,cs),
(566,-90,o),
(552,-73,o),
(552,-55,cs),
(552,-19,o),
(601,0,o),
(601,0,c),
(542,29,l),
(542,29,o),
(421,9,o),
(421,-87,cs),
(421,-144,o),
(465,-194,o),
(575,-194,cs)
);
}
);
width = 656;
},
{
layerId = "F1D6C389-2D1A-40EB-B71A-932DD4B59B34";
shapes = (
{
closed = 1;
nodes = (
(514,334,l),
(514,420,l),
(101,420,l),
(101,334,l)
);
},
{
closed = 1;
nodes = (
(560,654,l),
(560,740,l),
(101,740,l),
(101,654,l)
);
},
{
closed = 1;
nodes = (
(565,0,l),
(565,86,l),
(101,86,l),
(101,0,l)
);
},
{
closed = 1;
nodes = (
(188,0,l),
(188,740,l),
(90,740,l),
(90,0,l)
);
},
{
closed = 1;
nodes = (
(582,-170,o),
(605,-164,o),
(605,-164,c),
(605,-101,l),
(605,-101,o),
(586,-106,o),
(568,-106,cs),
(530,-106,o),
(511,-87,o),
(511,-63,cs),
(511,-21,o),
(565,0,o),
(565,0,c),
(527,21,l),
(527,21,o),
(433,-2,o),
(433,-80,cs),
(433,-130,o),
(473,-170,o),
(552,-170,cs)
);
}
);
width = 630;
},
{
layerId = "C50750D9-3CEA-4BDB-8CD5-6DB84E6A41F9";
shapes = (
{
closed = 1;
nodes = (
(458,362,l),
(458,396,l),
(93,396,l),
(93,362,l)
);
},
{
closed = 1;
nodes = (
(507,706,l),
(507,740,l),
(93,740,l),
(93,706,l)
);
},
{
closed = 1;
nodes = (
(513,0,l),
(513,34,l),
(93,34,l),
(93,0,l)
);
},
{
closed = 1;
nodes = (
(125,0,l),
(125,740,l),
(90,740,l),
(90,0,l)
);
},
{
closed = 1;
nodes = (
(537,-149,o),
(557,-143,o),
(557,-143,c),
(557,-115,l),
(557,-115,o),
(537,-120,o),
(517,-120,cs),
(476,-120,o),
(455,-100,o),
(455,-71,cs),
(455,-23,o),
(513,0,o),
(513,0,c),
(493,12,l),
(493,12,o),
(424,-13,o),
(424,-75,cs),
(424,-119,o),
(458,-149,o),
(513,-149,cs)
);
}
);
width = 588;
}
);
leftKerningGroup = l;
rightKerningGroup = E;
unicode = 280;
},
{
glyphname = Etilde;
layers = (
{
layerId = "D43A2A6F-68E8-45C4-A912-BD747FE79F37";
shapes = (
{
closed = 1;
nodes = (
(551,296,l),
(551,454,l),
(60,454,l),
(60,296,l)
);
},
{
closed = 1;
nodes = (
(596,574,l),
(596,740,l),
(60,740,l),
(60,574,l)
);
},
{
closed = 1;
nodes = (
(601,0,l),
(601,166,l),
(60,166,l),
(60,0,l)
);
},
{
closed = 1;
nodes = (
(252,0,l),
(252,740,l),
(60,740,l),
(60,0,l)
);
},
{
closed = 1;
nodes = (
(497,822,o),
(514,912,o),
(514,981,c),
(421,981,l),
(421,947,o),
(415,928,o),
(396,928,cs),
(362,928,o),
(330,987,o),
(257,987,cs),
(166,987,o),
(149,897,o),
(149,828,c),
(242,828,l),
(242,862,o),
(248,881,o),
(268,881,cs),
(304,881,o),
(333,822,o),
(406,822,cs)
);
}
);
width = 656;
},
{
layerId = "F1D6C389-2D1A-40EB-B71A-932DD4B59B34";
shapes = (
{
closed = 1;
nodes = (
(514,334,l),
(514,420,l),
(101,420,l),
(101,334,l)
);
},
{
closed = 1;
nodes = (
(560,654,l),
(560,740,l),
(101,740,l),
(101,654,l)
);
},
{
closed = 1;
nodes = (
(565,0,l),
(565,86,l),
(101,86,l),
(101,0,l)
);
},
{
closed = 1;
nodes = (
(188,0,l),
(188,740,l),
(90,740,l),
(90,0,l)
);
},
{
closed = 1;
nodes = (
(473,827,o),
(492,895,o),
(492,957,c),
(428,957,l),
(428,920,o),
(418,897,o),
(397,897,cs),
(361,897,o),
(341,962,o),
(268,962,cs),
(197,962,o),
(178,895,o),
(178,833,c),
(242,833,l),
(242,869,o),
(251,893,o),
(274,893,cs),
(311,893,o),
(331,827,o),
(403,827,cs)
);
}
);
width = 630;
},
{
layerId = "C50750D9-3CEA-4BDB-8CD5-6DB84E6A41F9";
shapes = (
{
closed = 1;
nodes = (
(458,362,l),
(458,396,l),
(93,396,l),
(93,362,l)
);
},
{
closed = 1;
nodes = (
(507,706,l),
(507,740,l),
(93,740,l),
(93,706,l)
);
},
{
closed = 1;
nodes = (
(513,0,l),
(513,34,l),
(93,34,l),
(93,0,l)
);
},
{
closed = 1;
nodes = (
(125,0,l),
(125,740,l),
(90,740,l),
(90,0,l)
);
},
{
closed = 1;
nodes = (
(399,831,o),
(419,878,o),
(419,936,c),
(389,936,l),
(389,889,o),
(379,860,o),
(354,860,cs),
(314,860,o),
(300,941,o),
(236,941,cs),
(189,941,o),
(170,894,o),
(170,836,c),
(200,836,l),
(200,884,o),
(210,912,o),
(236,912,cs),
(279,912,o),
(294,831,o),
(354,831,cs)
);
}
);
width = 588;
}
);
leftKerningGroup = l;
rightKerningGroup = E;
unicode = 7868;
},
{
glyphname = F;
leftMetricsKey = l;
rightMetricsKey = E;
layers = (
{
layerId = "D43A2A6F-68E8-45C4-A912-BD747FE79F37";
shapes = (
{
closed = 1;
nodes = (
(551,255,l),
(551,414,l),
(60,414,l),
(60,255,l)
);
},
{
closed = 1;
nodes = (
(596,574,l),
(596,740,l),
(60,740,l),
(60,574,l)
);
},
{
closed = 1;
nodes = (
(252,0,l),
(252,740,l),
(60,740,l),
(60,0,l)
);
}
);
width = 651;
},
{
layerId = "F1D6C389-2D1A-40EB-B71A-932DD4B59B34";
shapes = (
{
closed = 1;
nodes = (
(532,324,l),
(532,410,l),
(109,410,l),
(109,324,l)
);
},
{
closed = 1;
nodes = (
(578,654,l),
(578,740,l),
(109,740,l),
(109,654,l)
);
},
{
closed = 1;
nodes = (
(188,0,l),
(188,740,l),
(90,740,l),
(90,0,l)
);
}
);
width = 643;
},
{
layerId = "C50750D9-3CEA-4BDB-8CD5-6DB84E6A41F9";
shapes = (
{
closed = 1;
nodes = (
(467,352,l),
(467,386,l),
(102,386,l),
(102,352,l)
);
},
{
closed = 1;
nodes = (
(516,706,l),
(516,740,l),
(102,740,l),
(102,706,l)
);
},
{
closed = 1;
nodes = (
(125,0,l),
(125,740,l),
(90,740,l),
(90,0,l)
);
}
);
width = 591;
}
);
leftKerningGroup = l;
rightKerningGroup = F;
unicode = 70;
},
{
glyphname = G;
leftMetricsKey = O;
layers = (
{
anchors = (
{
name = bottom;
position = "{428, 0}";
},
{
name = top;
position = "{419, 740}";
}
);
layerId = "D43A2A6F-68E8-45C4-A912-BD747FE79F37";
shapes = (
{
closed = 1;
nodes = (
(619,-10,o),
(764,113,o),
(764,348,cs),
(764,409,l),
(400,409,l),
(400,261,l),
(624,261,l),
(578,313,l),
(578,305,ls),
(578,218,o),
(525,157,o),
(423,157,cs),
(294,157,o),
(228,265,o),
(228,372,cs),
(228,477,o),
(292,582,o),
(419,582,cs),
(546,582,o),
(567,484,o),
(567,484,c),
(757,484,l),
(757,484,o),
(728,750,o),
(419,750,cs),
(160,750,o),
(30,559,o),
(30,369,cs),
(30,179,o),
(159,-10,o),
(414,-10,cs)
);
}
);
width = 795;
},
{
anchors = (
{
name = bottom;
position = "{408, 0}";
},
{
name = top;
position = "{413, 740}";
}
);
guides = (
{
angle = 90;
position = "{689, 0}";
},
{
position = "{0, 716}";
}
);
layerId = "F1D6C389-2D1A-40EB-B71A-932DD4B59B34";
shapes = (
{
closed = 1;
nodes = (
(589,-10,o),
(733,106,o),
(733,333,cs),
(733,384,l),
(419,384,l),
(419,303,l),
(672,303,l),
(639,338,l),
(639,318,ls),
(639,172,o),
(553,79,o),
(410,79,cs),
(241,79,o),
(154,223,o),
(154,371,cs),
(154,514,o),
(238,661,o),
(414,661,cs),
(600,661,o),
(624,503,o),
(624,503,c),
(723,503,l),
(723,503,o),
(693,750,o),
(413,750,cs),
(169,750,o),
(55,558,o),
(55,369,cs),
(55,180,o),
(169,-10,o),
(410,-10,cs)
);
}
);
width = 783;
},
{
anchors = (
{
name = bottom;
position = "{387, 0}";
},
{
name = top;
position = "{397, 740}";
}
);
layerId = "C50750D9-3CEA-4BDB-8CD5-6DB84E6A41F9";
shapes = (
{
closed = 1;
nodes = (
(602,-10,o),
(703,141,o),
(703,317,cs),
(703,366,l),
(409,366,l),
(409,333,l),
(698,333,l),
(669,354,l),
(669,318,ls),
(669,145,o),
(571,24,o),
(396,24,cs),
(194,24,o),
(95,197,o),
(95,370,cs),
(95,543,o),
(194,716,o),
(397,716,cs),
(636,716,o),
(662,517,o),
(662,517,c),
(699,517,l),
(699,517,o),
(669,750,o),
(397,750,cs),
(173,750,o),
(60,560,o),
(60,370,cs),
(60,181,o),
(173,-10,o),
(396,-10,cs)
);
}
);
width = 772;
}
);
leftKerningGroup = O;
rightKerningGroup = G;
unicode = 71;
},
{
glyphname = Gbreve;
layers = (
{
layerId = "D43A2A6F-68E8-45C4-A912-BD747FE79F37";
shapes = (
{
closed = 1;
nodes = (
(619,-10,o),
(764,113,o),
(764,348,cs),
(764,409,l),
(400,409,l),
(400,261,l),
(624,261,l),
(578,313,l),
(578,305,ls),
(578,218,o),
(525,157,o),
(423,157,cs),
(294,157,o),
(228,265,o),
(228,372,cs),
(228,477,o),
(292,582,o),
(419,582,cs),
(546,582,o),
(567,484,o),
(567,484,c),
(757,484,l),
(757,484,o),
(728,750,o),
(419,750,cs),
(160,750,o),
(30,559,o),
(30,369,cs),
(30,179,o),
(159,-10,o),
(414,-10,cs)
);
},
{
closed = 1;
nodes = (
(619,802,o),
(613,988,o),
(613,988,c),
(494,988,l),
(494,988,o),
(493,907,o),
(419,907,cs),
(345,907,o),
(344,988,o),
(344,988,c),
(225,988,l),
(225,988,o),
(219,802,o),
(419,802,cs)
);
}
);
width = 795;
},
{
layerId = "F1D6C389-2D1A-40EB-B71A-932DD4B59B34";
shapes = (
{
closed = 1;
nodes = (
(589,-10,o),
(733,106,o),
(733,333,cs),
(733,384,l),
(419,384,l),
(419,303,l),
(672,303,l),
(639,338,l),
(639,318,ls),
(639,172,o),
(553,79,o),
(410,79,cs),
(241,79,o),
(154,223,o),
(154,371,cs),
(154,514,o),
(238,661,o),
(414,661,cs),
(600,661,o),
(624,503,o),
(624,503,c),
(723,503,l),
(723,503,o),
(693,750,o),
(413,750,cs),
(169,750,o),
(55,558,o),
(55,369,cs),
(55,180,o),
(169,-10,o),
(410,-10,cs)
);
},
{
closed = 1;
nodes = (
(574,815,o),
(573,967,o),
(573,967,c),
(502,967,l),
(502,967,o),
(501,879,o),
(413,879,cs),
(325,879,o),
(324,967,o),
(324,967,c),
(253,967,l),
(253,967,o),
(252,815,o),
(413,815,cs)
);
}
);
width = 783;
},
{
layerId = "C50750D9-3CEA-4BDB-8CD5-6DB84E6A41F9";
shapes = (
{
closed = 1;
nodes = (
(602,-10,o),
(703,141,o),
(703,317,cs),
(703,366,l),
(409,366,l),
(409,333,l),
(698,333,l),
(669,354,l),
(669,318,ls),
(669,145,o),
(571,24,o),
(396,24,cs),
(194,24,o),
(95,197,o),
(95,370,cs),
(95,543,o),
(194,716,o),
(397,716,cs),
(636,716,o),
(662,517,o),
(662,517,c),
(699,517,l),
(699,517,o),
(669,750,o),
(397,750,cs),
(173,750,o),
(60,560,o),
(60,370,cs),
(60,181,o),
(173,-10,o),
(396,-10,cs)
);
},
{
closed = 1;
nodes = (
(529,823,o),
(531,953,o),
(531,953,c),
(499,953,l),
(499,953,o),
(498,853,o),
(397,853,cs),
(296,853,o),
(295,953,o),
(295,953,c),
(263,953,l),
(263,953,o),
(265,823,o),
(397,823,cs)
);
}
);
width = 772;
}
);
leftKerningGroup = O;
rightKerningGroup = G;
unicode = 286;
},
{
glyphname = Gcaron;
layers = (
{
layerId = "D43A2A6F-68E8-45C4-A912-BD747FE79F37";
shapes = (
{
closed = 1;
nodes = (
(619,-10,o),
(764,113,o),
(764,348,cs),
(764,409,l),
(400,409,l),
(400,261,l),
(624,261,l),
(578,313,l),
(578,305,ls),
(578,218,o),
(525,157,o),
(423,157,cs),
(294,157,o),
(228,265,o),
(228,372,cs),
(228,477,o),
(292,582,o),
(419,582,cs),
(546,582,o),
(567,484,o),
(567,484,c),
(757,484,l),
(757,484,o),
(728,750,o),
(419,750,cs),
(160,750,o),
(30,559,o),
(30,369,cs),
(30,179,o),
(159,-10,o),
(414,-10,cs)
);
},
{
closed = 1;
nodes = (
(492,800,l),
(627,989,l),
(486,989,l),
(394,849,l),
(444,850,l),
(351,989,l),
(210,989,l),
(345,800,l)
);
}
);
width = 795;
},
{
layerId = "F1D6C389-2D1A-40EB-B71A-932DD4B59B34";
shapes = (
{
closed = 1;
nodes = (
(589,-10,o),
(733,106,o),
(733,333,cs),
(733,384,l),
(419,384,l),
(419,303,l),
(672,303,l),
(639,338,l),
(639,318,ls),
(639,172,o),
(553,79,o),
(410,79,cs),
(241,79,o),
(154,223,o),
(154,371,cs),
(154,514,o),
(238,661,o),
(414,661,cs),
(600,661,o),
(624,503,o),
(624,503,c),
(723,503,l),
(723,503,o),
(693,750,o),
(413,750,cs),
(169,750,o),
(55,558,o),
(55,369,cs),
(55,180,o),
(169,-10,o),
(410,-10,cs)
);
},
{
closed = 1;
nodes = (
(454,805,l),
(575,972,l),
(489,972,l),
(387,828,l),
(439,828,l),
(338,972,l),
(252,972,l),
(373,805,l)
);
}
);
width = 783;
},
{
layerId = "C50750D9-3CEA-4BDB-8CD5-6DB84E6A41F9";
shapes = (
{
closed = 1;
nodes = (
(602,-10,o),
(703,141,o),
(703,317,cs),
(703,366,l),
(409,366,l),
(409,333,l),
(698,333,l),
(669,354,l),
(669,318,ls),
(669,145,o),
(571,24,o),
(396,24,cs),
(194,24,o),
(95,197,o),
(95,370,cs),
(95,543,o),
(194,716,o),
(397,716,cs),
(636,716,o),
(662,517,o),
(662,517,c),
(699,517,l),
(699,517,o),
(669,750,o),
(397,750,cs),
(173,750,o),
(60,560,o),
(60,370,cs),
(60,181,o),
(173,-10,o),
(396,-10,cs)
);
},
{
closed = 1;
nodes = (
(415,818,l),
(526,970,l),
(489,970,l),
(387,833,l),
(407,833,l),
(304,970,l),
(267,970,l),
(378,818,l)
);
}
);
width = 772;
}
);
leftKerningGroup = O;
rightKerningGroup = G;
unicode = 486;
},
{
glyphname = Gdotaccent;
layers = (
{
layerId = "D43A2A6F-68E8-45C4-A912-BD747FE79F37";
shapes = (
{
closed = 1;
nodes = (
(619,-10,o),
(764,113,o),
(764,348,cs),
(764,409,l),
(400,409,l),
(400,261,l),
(624,261,l),
(578,313,l),
(578,305,ls),
(578,218,o),
(525,157,o),
(423,157,cs),
(294,157,o),
(228,265,o),
(228,372,cs),
(228,477,o),
(292,582,o),
(419,582,cs),
(546,582,o),
(567,484,o),
(567,484,c),
(757,484,l),
(757,484,o),
(728,750,o),
(419,750,cs),
(160,750,o),
(30,559,o),
(30,369,cs),
(30,179,o),
(159,-10,o),
(414,-10,cs)
);
},
{
closed = 1;
nodes = (
(482,793,o),
(528,840,o),
(528,896,cs),
(528,954,o),
(482,1000,o),
(419,1000,cs),
(356,1000,o),
(311,954,o),
(311,896,cs),
(311,840,o),
(356,793,o),
(419,793,cs)
);
}
);
width = 795;
},
{
layerId = "F1D6C389-2D1A-40EB-B71A-932DD4B59B34";
shapes = (
{
closed = 1;
nodes = (
(589,-10,o),
(733,106,o),
(733,333,cs),
(733,384,l),
(419,384,l),
(419,303,l),
(672,303,l),
(639,338,l),
(639,318,ls),
(639,172,o),
(553,79,o),
(410,79,cs),
(241,79,o),
(154,223,o),
(154,371,cs),
(154,514,o),
(238,661,o),
(414,661,cs),
(600,661,o),
(624,503,o),
(624,503,c),
(723,503,l),
(723,503,o),
(693,750,o),
(413,750,cs),
(169,750,o),
(55,558,o),
(55,369,cs),
(55,180,o),
(169,-10,o),
(410,-10,cs)
);
},
{
closed = 1;
nodes = (
(448,841,o),
(475,868,o),
(475,902,cs),
(475,936,o),
(448,964,o),
(413,964,cs),
(377,964,o),
(351,936,o),
(351,902,cs),
(351,869,o),
(377,841,o),
(413,841,cs)
);
}
);
width = 783;
},
{
layerId = "C50750D9-3CEA-4BDB-8CD5-6DB84E6A41F9";
shapes = (
{
closed = 1;
nodes = (
(602,-10,o),
(703,141,o),
(703,317,cs),
(703,366,l),
(409,366,l),
(409,333,l),
(698,333,l),
(669,354,l),
(669,318,ls),
(669,145,o),
(571,24,o),
(396,24,cs),
(194,24,o),
(95,197,o),
(95,370,cs),
(95,543,o),
(194,716,o),
(397,716,cs),
(636,716,o),
(662,517,o),
(662,517,c),
(699,517,l),
(699,517,o),
(669,750,o),
(397,750,cs),
(173,750,o),
(60,560,o),
(60,370,cs),
(60,181,o),
(173,-10,o),
(396,-10,cs)
);
},
{
closed = 1;
nodes = (
(416,845,o),
(432,861,o),
(432,881,cs),
(432,900,o),
(416,917,o),
(396,917,cs),
(376,917,o),
(361,900,o),
(361,881,cs),
(361,861,o),
(376,845,o),
(396,845,cs)
);
}
);
width = 772;
}
);
leftKerningGroup = O;
rightKerningGroup = G;
unicode = 288;
},
{
glyphname = Gmacron;
layers = (
{
layerId = "D43A2A6F-68E8-45C4-A912-BD747FE79F37";
shapes = (
{
closed = 1;
nodes = (
(619,-10,o),
(764,113,o),
(764,348,cs),
(764,409,l),
(400,409,l),
(400,261,l),
(624,261,l),
(578,313,l),
(578,305,ls),
(578,218,o),
(525,157,o),
(423,157,cs),
(294,157,o),
(228,265,o),
(228,372,cs),
(228,477,o),
(292,582,o),
(419,582,cs),
(546,582,o),
(567,484,o),
(567,484,c),
(757,484,l),
(757,484,o),
(728,750,o),
(419,750,cs),
(160,750,o),
(30,559,o),
(30,369,cs),
(30,179,o),
(159,-10,o),
(414,-10,cs)
);
},
{
closed = 1;
nodes = (
(589,818,l),
(589,920,l),
(249,920,l),
(249,818,l)
);
}
);
width = 795;
},
{
layerId = "F1D6C389-2D1A-40EB-B71A-932DD4B59B34";
shapes = (
{
closed = 1;
nodes = (
(589,-10,o),
(733,106,o),
(733,333,cs),
(733,384,l),
(419,384,l),
(419,303,l),
(672,303,l),
(639,338,l),
(639,318,ls),
(639,172,o),
(553,79,o),
(410,79,cs),
(241,79,o),
(154,223,o),
(154,371,cs),
(154,514,o),
(238,661,o),
(414,661,cs),
(600,661,o),
(624,503,o),
(624,503,c),
(723,503,l),
(723,503,o),
(693,750,o),
(413,750,cs),
(169,750,o),
(55,558,o),
(55,369,cs),
(55,180,o),
(169,-10,o),
(410,-10,cs)
);
},
{
closed = 1;
nodes = (
(565,836,l),
(565,908,l),
(261,908,l),
(261,836,l)
);
}
);
width = 783;
},
{
layerId = "C50750D9-3CEA-4BDB-8CD5-6DB84E6A41F9";
shapes = (
{
closed = 1;
nodes = (
(602,-10,o),
(703,141,o),
(703,317,cs),
(703,366,l),
(409,366,l),
(409,333,l),
(698,333,l),
(669,354,l),
(669,318,ls),
(669,145,o),
(571,24,o),
(396,24,cs),
(194,24,o),
(95,197,o),
(95,370,cs),
(95,543,o),
(194,716,o),
(397,716,cs),
(636,716,o),
(662,517,o),
(662,517,c),
(699,517,l),
(699,517,o),
(669,750,o),
(397,750,cs),
(173,750,o),
(60,560,o),
(60,370,cs),
(60,181,o),
(173,-10,o),
(396,-10,cs)
);
},
{
closed = 1;
nodes = (
(537,848,l),
(537,878,l),
(257,878,l),
(257,848,l)
);
}
);
width = 772;
}
);
leftKerningGroup = O;
rightKerningGroup = G;
unicode = 7712;
},
{
glyphname = H;
leftMetricsKey = l;
rightMetricsKey = l;
layers = (
{
anchors = (
{
name = bottom;
position = "{592, 0}";
},
{
name = ogonek;
position = "{688, 0}";
},
{
name = top;
position = "{382, 740}";
},
{
name = topleft;
position = "{466, 736}";
}
);
layerId = "D43A2A6F-68E8-45C4-A912-BD747FE79F37";
shapes = (
{
closed = 1;
nodes = (
(252,0,l),
(252,740,l),
(60,740,l),
(60,0,l)
);
},
{
closed = 1;
nodes = (
(688,0,l),
(688,740,l),
(496,740,l),
(496,0,l)
);
},
{
closed = 1;
nodes = (
(596,298,l),
(596,462,l),
(168,462,l),
(168,298,l)
);
}
);
width = 748;
},
{
anchors = (
{
name = bottom;
position = "{590, 0}";
},
{
name = ogonek;
position = "{639, 0}";
},
{
name = top;
position = "{362, 740}";
},
{
name = topleft;
position = "{486, 700}";
}
);
layerId = "F1D6C389-2D1A-40EB-B71A-932DD4B59B34";
shapes = (
{
closed = 1;
nodes = (
(188,0,l),
(188,740,l),
(90,740,l),
(90,0,l)
);
},
{
closed = 1;
nodes = (
(639,0,l),
(639,740,l),
(541,740,l),
(541,0,l)
);
},
{
closed = 1;
nodes = (
(553,331,l),
(553,419,l),
(107,419,l),
(107,331,l)
);
}
);
width = 729;
},
{
anchors = (
{
name = bottom;
position = "{549, 0}";
},
{
name = ogonek;
position = "{566, 0}";
},
{
name = top;
position = "{340, 740}";
},
{
name = topleft;
position = "{459, 740}";
}
);
layerId = "C50750D9-3CEA-4BDB-8CD5-6DB84E6A41F9";
shapes = (
{
closed = 1;
nodes = (
(125,0,l),
(125,740,l),
(90,740,l),
(90,0,l)
);
},
{
closed = 1;
nodes = (
(566,0,l),
(566,740,l),
(531,740,l),
(531,0,l)
);
},
{
closed = 1;
nodes = (
(541,374,l),
(541,406,l),
(118,406,l),
(118,374,l)
);
}
);
width = 656;
}
);
leftKerningGroup = l;
rightKerningGroup = l;
unicode = 72;
},
{
glyphname = Hbar;
leftMetricsKey = "=l-50";
rightMetricsKey = "=l-50";
layers = (
{
layerId = "D43A2A6F-68E8-45C4-A912-BD747FE79F37";
shapes = (
{
closed = 1;
nodes = (
(781,527,l),
(781,658,l),
(10,658,l),
(10,527,l)
);
},
{
closed = 1;
nodes = (
(274,0,l),
(274,740,l),
(82,740,l),
(82,0,l)
);
},
{
closed = 1;
nodes = (
(710,0,l),
(710,740,l),
(518,740,l),
(518,0,l)
);
},
{
closed = 1;
nodes = (
(618,298,l),
(618,462,l),
(190,462,l),
(190,298,l)
);
}
);
width = 791;
},
{
layerId = "F1D6C389-2D1A-40EB-B71A-932DD4B59B34";
shapes = (
{
closed = 1;
nodes = (
(755,579,l),
(755,667,l),
(40,667,l),
(40,579,l)
);
},
{
closed = 1;
nodes = (
(231,0,l),
(231,740,l),
(133,740,l),
(133,0,l)
);
},
{
closed = 1;
nodes = (
(682,0,l),
(682,740,l),
(584,740,l),
(584,0,l)
);
},
{
closed = 1;
nodes = (
(596,331,l),
(596,419,l),
(150,419,l),
(150,331,l)
);
}
);
width = 795;
},
{
layerId = "C50750D9-3CEA-4BDB-8CD5-6DB84E6A41F9";
shapes = (
{
closed = 1;
nodes = (
(717,622,l),
(717,654,l),
(40,654,l),
(40,622,l)
);
},
{
closed = 1;
nodes = (
(176,0,l),
(176,740,l),
(141,740,l),
(141,0,l)
);
},
{
closed = 1;
nodes = (
(617,0,l),
(617,740,l),
(582,740,l),
(582,0,l)
);
},
{
closed = 1;
nodes = (
(592,374,l),
(592,406,l),
(169,406,l),
(169,374,l)
);
}
);
width = 757;
}
);
unicode = 294;
},
{
glyphname = I;
leftMetricsKey = l;
rightMetricsKey = l;
layers = (
{
anchors = (
{
name = bottom;
position = "{156, 0}";
},
{
name = ogonek;
position = "{252, 0}";
},
{
name = top;
position = "{156, 740}";
},
{
name = topleft;
position = "{30, 736}";
}
);
layerId = "D43A2A6F-68E8-45C4-A912-BD747FE79F37";
shapes = (
{
closed = 1;
nodes = (
(252,0,l),
(252,740,l),
(60,740,l),
(60,0,l)
);
}
);
width = 312;
},
{
anchors = (
{
name = bottom;
position = "{139, 0}";
},
{
name = ogonek;
position = "{188, 0}";
},
{
name = top;
position = "{139, 740}";
},
{
name = topleft;
position = "{35, 700}";
}
);
layerId = "F1D6C389-2D1A-40EB-B71A-932DD4B59B34";
shapes = (
{
closed = 1;
nodes = (
(188,0,l),
(188,740,l),
(90,740,l),
(90,0,l)
);
}
);
width = 278;
},
{
anchors = (
{
name = bottom;
position = "{108, 0}";
},
{
name = ogonek;
position = "{125, 0}";
},
{
name = top;
position = "{108, 740}";
},
{
name = topleft;
position = "{18, 740}";
}
);
layerId = "C50750D9-3CEA-4BDB-8CD5-6DB84E6A41F9";
shapes = (
{
closed = 1;
nodes = (
(125,0,l),
(125,740,l),
(90,740,l),
(90,0,l)
);
}
);
width = 215;
}
);
leftKerningGroup = l;
rightKerningGroup = l;
unicode = 73;
},
{
glyphname = Iacute;
layers = (
{
layerId = "D43A2A6F-68E8-45C4-A912-BD747FE79F37";
shapes = (
{
closed = 1;
nodes = (
(252,0,l),
(252,740,l),
(60,740,l),
(60,0,l)
);
},
{
closed = 1;
nodes = (
(338,989,l),
(168,989,l),
(91,810,l),
(224,809,l)
);
}
);
width = 312;
},
{
layerId = "F1D6C389-2D1A-40EB-B71A-932DD4B59B34";
shapes = (
{
closed = 1;
nodes = (
(188,0,l),
(188,740,l),
(90,740,l),
(90,0,l)
);
},
{
closed = 1;
nodes = (
(282,1001,l),
(184,1001,l),
(98,821,l),
(179,820,l)
);
}
);
width = 278;
},
{
layerId = "C50750D9-3CEA-4BDB-8CD5-6DB84E6A41F9";
shapes = (
{
closed = 1;
nodes = (
(125,0,l),
(125,740,l),
(90,740,l),
(90,0,l)
);
},
{
closed = 1;
nodes = (
(222,980,l),
(181,980,l),
(96,828,l),
(130,828,l)
);
}
);
width = 215;
}
);
leftKerningGroup = l;
rightKerningGroup = l;
unicode = 205;
},
{
glyphname = Icircumflex;
layers = (
{
layerId = "D43A2A6F-68E8-45C4-A912-BD747FE79F37";
shapes = (
{
closed = 1;
nodes = (
(252,0,l),
(252,740,l),
(60,740,l),
(60,0,l)
);
},
{
closed = 1;
nodes = (
(89,799,l),
(157,901,l),
(224,799,l),
(365,799,l),
(230,988,l),
(83,988,l),
(-52,799,l)
);
}
);
width = 312;
},
{
layerId = "F1D6C389-2D1A-40EB-B71A-932DD4B59B34";
shapes = (
{
closed = 1;
nodes = (
(188,0,l),
(188,740,l),
(90,740,l),
(90,0,l)
);
},
{
closed = 1;
nodes = (
(64,816,l),
(139,923,l),
(215,816,l),
(301,816,l),
(180,983,l),
(99,983,l),
(-22,816,l)
);
}
);
width = 278;
},
{
layerId = "C50750D9-3CEA-4BDB-8CD5-6DB84E6A41F9";
shapes = (
{
closed = 1;
nodes = (
(125,0,l),
(125,740,l),
(90,740,l),
(90,0,l)
);
},
{
closed = 1;
nodes = (
(16,818,l),
(109,942,l),
(201,818,l),
(238,818,l),
(127,970,l),
(90,970,l),
(-21,818,l)
);
}
);
width = 215;
}
);
leftKerningGroup = l;
rightKerningGroup = l;
unicode = 206;
},
{
glyphname = Idieresis;
layers = (
{
layerId = "D43A2A6F-68E8-45C4-A912-BD747FE79F37";
shapes = (
{
closed = 1;
nodes = (
(252,0,l),
(252,740,l),
(60,740,l),
(60,0,l)
);
},
{
closed = 1;
nodes = (
(340,788,o),
(383,832,o),
(383,885,cs),
(383,940,o),
(340,983,o),
(281,983,cs),
(221,983,o),
(179,940,o),
(179,885,cs),
(179,832,o),
(221,788,o),
(281,788,cs)
);
},
{
closed = 1;
nodes = (
(89,788,o),
(132,832,o),
(132,885,cs),
(132,940,o),
(89,983,o),
(30,983,cs),
(-30,983,o),
(-72,940,o),
(-72,885,cs),
(-72,832,o),
(-30,788,o),
(30,788,cs)
);
}
);
width = 312;
},
{
layerId = "F1D6C389-2D1A-40EB-B71A-932DD4B59B34";
shapes = (
{
closed = 1;
nodes = (
(188,0,l),
(188,740,l),
(90,740,l),
(90,0,l)
);
},
{
closed = 1;
nodes = (
(269,821,o),
(296,848,o),
(296,882,cs),
(296,916,o),
(269,944,o),
(234,944,cs),
(198,944,o),
(172,916,o),
(172,882,cs),
(172,849,o),
(198,821,o),
(234,821,cs)
);
},
{
closed = 1;
nodes = (
(79,821,o),
(106,848,o),
(106,882,cs),
(106,916,o),
(79,944,o),
(44,944,cs),
(8,944,o),
(-18,916,o),
(-18,882,cs),
(-18,849,o),
(8,821,o),
(44,821,cs)
);
}
);
width = 278;
},
{
layerId = "C50750D9-3CEA-4BDB-8CD5-6DB84E6A41F9";
shapes = (
{
closed = 1;
nodes = (
(125,0,l),
(125,740,l),
(90,740,l),
(90,0,l)
);
},
{
closed = 1;
nodes = (
(197,840,o),
(213,856,o),
(213,876,cs),
(213,895,o),
(197,912,o),
(177,912,cs),
(157,912,o),
(142,895,o),
(142,876,cs),
(142,856,o),
(157,840,o),
(177,840,cs)
);
},
{
closed = 1;
nodes = (
(58,840,o),
(74,856,o),
(74,876,cs),
(74,895,o),
(58,912,o),
(38,912,cs),
(18,912,o),
(3,895,o),
(3,876,cs),
(3,856,o),
(18,840,o),
(38,840,cs)
);
}
);
width = 215;
}
);
leftKerningGroup = l;
rightKerningGroup = l;
unicode = 207;
},
{
glyphname = Idotaccent;
layers = (
{
layerId = "D43A2A6F-68E8-45C4-A912-BD747FE79F37";
shapes = (
{
closed = 1;
nodes = (
(252,0,l),
(252,740,l),
(60,740,l),
(60,0,l)
);
},
{
closed = 1;
nodes = (
(219,793,o),
(265,840,o),
(265,896,cs),
(265,954,o),
(219,1000,o),
(156,1000,cs),
(93,1000,o),
(48,954,o),
(48,896,cs),
(48,840,o),
(93,793,o),
(156,793,cs)
);
}
);
width = 312;
},
{
layerId = "F1D6C389-2D1A-40EB-B71A-932DD4B59B34";
shapes = (
{
closed = 1;
nodes = (
(188,0,l),
(188,740,l),
(90,740,l),
(90,0,l)
);
},
{
closed = 1;
nodes = (
(174,841,o),
(201,868,o),
(201,902,cs),
(201,936,o),
(174,964,o),
(139,964,cs),
(103,964,o),
(77,936,o),
(77,902,cs),
(77,869,o),
(103,841,o),
(139,841,cs)
);
}
);
width = 278;
},
{
layerId = "C50750D9-3CEA-4BDB-8CD5-6DB84E6A41F9";
shapes = (
{
closed = 1;
nodes = (
(125,0,l),
(125,740,l),
(90,740,l),
(90,0,l)
);
},
{
closed = 1;
nodes = (
(127,845,o),
(143,861,o),
(143,881,cs),
(143,900,o),
(127,917,o),
(107,917,cs),
(87,917,o),
(72,900,o),
(72,881,cs),
(72,861,o),
(87,845,o),
(107,845,cs)
);
}
);
width = 215;
}
);
leftKerningGroup = l;
rightKerningGroup = l;
unicode = 304;
},
{
glyphname = Idotbelow;
layers = (
{
layerId = "D43A2A6F-68E8-45C4-A912-BD747FE79F37";
shapes = (
{
closed = 1;
nodes = (
(252,0,l),
(252,740,l),
(60,740,l),
(60,0,l)
);
},
{
closed = 1;
nodes = (
(207,-260,o),
(245,-220,o),
(245,-171,cs),
(245,-121,o),
(207,-82,o),
(156,-82,cs),
(103,-82,o),
(67,-121,o),
(67,-171,cs),
(67,-220,o),
(103,-260,o),
(156,-260,cs)
);
}
);
width = 312;
},
{
layerId = "F1D6C389-2D1A-40EB-B71A-932DD4B59B34";
shapes = (
{
closed = 1;
nodes = (
(188,0,l),
(188,740,l),
(90,740,l),
(90,0,l)
);
},
{
closed = 1;
nodes = (
(176,-227,o),
(204,-198,o),
(204,-162,cs),
(204,-126,o),
(176,-97,o),
(139,-97,cs),
(101,-97,o),
(74,-126,o),
(74,-162,cs),
(74,-197,o),
(101,-227,o),
(139,-227,cs)
);
}
);
width = 278;
},
{
layerId = "C50750D9-3CEA-4BDB-8CD5-6DB84E6A41F9";
shapes = (
{
closed = 1;
nodes = (
(125,0,l),
(125,740,l),
(90,740,l),
(90,0,l)
);
},
{
closed = 1;
nodes = (
(128,-192,o),
(145,-175,o),
(145,-154,cs),
(145,-134,o),
(128,-117,o),
(107,-117,cs),
(86,-117,o),
(70,-134,o),
(70,-154,cs),
(70,-175,o),
(86,-192,o),
(107,-192,cs)
);
}
);
width = 215;
}
);
leftKerningGroup = l;
rightKerningGroup = l;
unicode = 7882;
},
{
glyphname = Igrave;
layers = (
{
layerId = "D43A2A6F-68E8-45C4-A912-BD747FE79F37";
shapes = (
{
closed = 1;
nodes = (
(252,0,l),
(252,740,l),
(60,740,l),
(60,0,l)
);
},
{
closed = 1;
nodes = (
(224,810,l),
(147,989,l),
(-23,989,l),
(91,809,l)
);
}
);
width = 312;
},
{
layerId = "F1D6C389-2D1A-40EB-B71A-932DD4B59B34";
shapes = (
{
closed = 1;
nodes = (
(188,0,l),
(188,740,l),
(90,740,l),
(90,0,l)
);
},
{
closed = 1;
nodes = (
(184,821,l),
(98,1001,l),
(0,1001,l),
(103,820,l)
);
}
);
width = 278;
},
{
layerId = "C50750D9-3CEA-4BDB-8CD5-6DB84E6A41F9";
shapes = (
{
closed = 1;
nodes = (
(125,0,l),
(125,740,l),
(90,740,l),
(90,0,l)
);
},
{
closed = 1;
nodes = (
(122,828,l),
(37,980,l),
(-4,980,l),
(88,828,l)
);
}
);
width = 215;
}
);
leftKerningGroup = l;
rightKerningGroup = l;
unicode = 204;
},
{
glyphname = Ihookabove;
layers = (
{
layerId = "D43A2A6F-68E8-45C4-A912-BD747FE79F37";
shapes = (
{
closed = 1;
nodes = (
(252,0,l),
(252,740,l),
(60,740,l),
(60,0,l)
);
},
{
closed = 1;
nodes = (
(208,795,l),
(208,866,l),
(170,801,l),
(213,825,ls),
(257,849,o),
(299,878,o),
(299,932,cs),
(299,993,o),
(245,1046,o),
(157,1046,cs),
(59,1046,o),
(21,976,o),
(23,920,c),
(124,920,l),
(124,920,o),
(124,957,o),
(159,957,cs),
(178,957,o),
(191,944,o),
(191,928,cs),
(191,906,o),
(175,896,o),
(150,883,cs),
(134,875,ls),
(114,865,o),
(106,848,o),
(106,828,cs),
(106,795,l)
);
}
);
width = 312;
},
{
layerId = "F1D6C389-2D1A-40EB-B71A-932DD4B59B34";
shapes = (
{
closed = 1;
nodes = (
(188,0,l),
(188,740,l),
(90,740,l),
(90,0,l)
);
},
{
closed = 1;
nodes = (
(172,813,l),
(172,873,l),
(142,828,l),
(176,844,ls),
(232,871,o),
(256,903,o),
(256,941,cs),
(256,992,o),
(212,1034,o),
(142,1034,cs),
(65,1034,o),
(31,982,o),
(32,933,c),
(98,933,l),
(98,944,o),
(103,976,o),
(143,976,cs),
(173,976,o),
(187,957,o),
(187,939,cs),
(187,920,o),
(173,904,o),
(141,888,cs),
(127,881,ls),
(111,873,o),
(107,858,o),
(107,845,cs),
(107,813,l)
);
}
);
width = 278;
},
{
layerId = "C50750D9-3CEA-4BDB-8CD5-6DB84E6A41F9";
shapes = (
{
closed = 1;
nodes = (
(125,0,l),
(125,740,l),
(90,740,l),
(90,0,l)
);
},
{
closed = 1;
nodes = (
(124,814,l),
(124,865,l),
(101,838,l),
(125,849,ls),
(180,874,o),
(198,904,o),
(198,934,cs),
(198,975,o),
(167,1005,o),
(116,1005,cs),
(65,1005,o),
(34,975,o),
(34,928,c),
(63,928,l),
(63,951,o),
(74,977,o),
(116,977,cs),
(155,977,o),
(168,953,o),
(168,933,cs),
(168,907,o),
(149,888,o),
(121,874,cs),
(109,868,ls),
(100,864,o),
(96,856,o),
(96,846,cs),
(96,814,l)
);
}
);
width = 215;
}
);
leftKerningGroup = l;
rightKerningGroup = l;
unicode = 7880;
},
{
glyphname = Imacron;
layers = (
{
layerId = "D43A2A6F-68E8-45C4-A912-BD747FE79F37";
shapes = (
{
closed = 1;
nodes = (
(252,0,l),
(252,740,l),
(60,740,l),
(60,0,l)
);
},
{
closed = 1;
nodes = (
(326,818,l),
(326,920,l),
(-14,920,l),
(-14,818,l)
);
}
);
width = 312;
},
{
layerId = "F1D6C389-2D1A-40EB-B71A-932DD4B59B34";
shapes = (
{
closed = 1;
nodes = (
(188,0,l),
(188,740,l),
(90,740,l),
(90,0,l)
);
},
{
closed = 1;
nodes = (
(291,836,l),
(291,908,l),
(-13,908,l),
(-13,836,l)
);
}
);
width = 278;
},
{
layerId = "C50750D9-3CEA-4BDB-8CD5-6DB84E6A41F9";
shapes = (
{
closed = 1;
nodes = (
(125,0,l),
(125,740,l),
(90,740,l),
(90,0,l)
);
},
{
closed = 1;
nodes = (
(248,848,l),
(248,878,l),
(-32,878,l),
(-32,848,l)
);
}
);
width = 215;
}
);
leftKerningGroup = l;
rightKerningGroup = l;
unicode = 298;
},
{
glyphname = Iogonek;
layers = (
{
layerId = "D43A2A6F-68E8-45C4-A912-BD747FE79F37";
shapes = (
{
closed = 1;
nodes = (
(252,0,l),
(252,740,l),
(60,740,l),
(60,0,l)
);
},
{
closed = 1;
nodes = (
(261,-194,o),
(287,-189,o),
(287,-189,c),
(287,-87,l),
(287,-87,o),
(271,-90,o),
(255,-90,cs),
(217,-90,o),
(203,-73,o),
(203,-55,cs),
(203,-19,o),
(252,0,o),
(252,0,c),
(193,29,l),
(193,29,o),
(72,9,o),
(72,-87,cs),
(72,-144,o),
(116,-194,o),
(226,-194,cs)
);
}
);
width = 312;
},
{
layerId = "F1D6C389-2D1A-40EB-B71A-932DD4B59B34";
shapes = (
{
closed = 1;
nodes = (
(188,0,l),
(188,740,l),
(90,740,l),
(90,0,l)
);
},
{
closed = 1;
nodes = (
(205,-170,o),
(228,-164,o),
(228,-164,c),
(228,-101,l),
(228,-101,o),
(209,-106,o),
(191,-106,cs),
(153,-106,o),
(134,-87,o),
(134,-63,cs),
(134,-21,o),
(188,0,o),
(188,0,c),
(150,21,l),
(150,21,o),
(56,-2,o),
(56,-80,cs),
(56,-130,o),
(96,-170,o),
(175,-170,cs)
);
}
);
width = 278;
},
{
layerId = "C50750D9-3CEA-4BDB-8CD5-6DB84E6A41F9";
shapes = (
{
closed = 1;
nodes = (
(125,0,l),
(125,740,l),
(90,740,l),
(90,0,l)
);
},
{
closed = 1;
nodes = (
(149,-149,o),
(169,-143,o),
(169,-143,c),
(169,-115,l),
(169,-115,o),
(149,-120,o),
(129,-120,cs),
(88,-120,o),
(67,-100,o),
(67,-71,cs),
(67,-23,o),
(125,0,o),
(125,0,c),
(105,12,l),
(105,12,o),
(36,-13,o),
(36,-75,cs),
(36,-119,o),
(70,-149,o),
(125,-149,cs)
);
}
);
width = 215;
}
);
leftKerningGroup = l;
rightKerningGroup = l;
unicode = 302;
},
{
glyphname = Itilde;
layers = (
{
layerId = "D43A2A6F-68E8-45C4-A912-BD747FE79F37";
shapes = (
{
closed = 1;
nodes = (
(252,0,l),
(252,740,l),
(60,740,l),
(60,0,l)
);
},
{
closed = 1;
nodes = (
(325,822,o),
(342,912,o),
(342,981,c),
(249,981,l),
(249,947,o),
(243,928,o),
(224,928,cs),
(190,928,o),
(158,987,o),
(85,987,cs),
(-6,987,o),
(-23,897,o),
(-23,828,c),
(70,828,l),
(70,862,o),
(76,881,o),
(96,881,cs),
(132,881,o),
(161,822,o),
(234,822,cs)
);
}
);
width = 312;
},
{
layerId = "F1D6C389-2D1A-40EB-B71A-932DD4B59B34";
shapes = (
{
closed = 1;
nodes = (
(188,0,l),
(188,740,l),
(90,740,l),
(90,0,l)
);
},
{
closed = 1;
nodes = (
(277,827,o),
(296,895,o),
(296,957,c),
(232,957,l),
(232,920,o),
(222,897,o),
(201,897,cs),
(165,897,o),
(145,962,o),
(72,962,cs),
(1,962,o),
(-18,895,o),
(-18,833,c),
(46,833,l),
(46,869,o),
(55,893,o),
(78,893,cs),
(115,893,o),
(135,827,o),
(207,827,cs)
);
}
);
width = 278;
},
{
layerId = "C50750D9-3CEA-4BDB-8CD5-6DB84E6A41F9";
shapes = (
{
closed = 1;
nodes = (
(125,0,l),
(125,740,l),
(90,740,l),
(90,0,l)
);
},
{
closed = 1;
nodes = (
(213,831,o),
(233,878,o),
(233,936,c),
(203,936,l),
(203,889,o),
(193,860,o),
(168,860,cs),
(128,860,o),
(114,941,o),
(50,941,cs),
(3,941,o),
(-16,894,o),
(-16,836,c),
(14,836,l),
(14,884,o),
(24,912,o),
(50,912,cs),
(93,912,o),
(108,831,o),
(168,831,cs)
);
}
);
width = 215;
}
);
leftKerningGroup = l;
rightKerningGroup = l;
unicode = 296;
},
{
glyphname = J;
rightMetricsKey = l;
layers = (
{
layerId = "D43A2A6F-68E8-45C4-A912-BD747FE79F37";
shapes = (
{
closed = 1;
nodes = (
(375,-10,o),
(448,130,o),
(448,286,cs),
(448,740,l),
(258,740,l),
(258,291,ls),
(258,186,o),
(204,152,o),
(119,152,cs),
(77,152,o),
(40,157,o),
(40,157,c),
(40,0,l),
(40,0,o),
(91,-10,o),
(158,-10,cs)
);
}
);
width = 508;
},
{
layerId = "F1D6C389-2D1A-40EB-B71A-932DD4B59B34";
shapes = (
{
closed = 1;
nodes = (
(297,-10,o),
(385,90,o),
(385,248,cs),
(385,740,l),
(287,740,l),
(287,248,ls),
(287,124,o),
(221,79,o),
(119,79,cs),
(85,79,o),
(40,84,o),
(40,84,c),
(40,-3,l),
(40,-3,o),
(86,-10,o),
(131,-10,cs)
);
}
);
width = 475;
},
{
layerId = "C50750D9-3CEA-4BDB-8CD5-6DB84E6A41F9";
shapes = (
{
closed = 1;
nodes = (
(245,-10,o),
(322,63,o),
(322,207,cs),
(322,740,l),
(287,740,l),
(287,207,ls),
(287,86,o),
(226,23,o),
(109,23,cs),
(71,23,o),
(30,29,o),
(30,29,c),
(30,-4,l),
(30,-4,o),
(70,-10,o),
(109,-10,cs)
);
}
);
width = 412;
}
);
leftKerningGroup = J;
rightKerningGroup = U;
unicode = 74;
},
{
glyphname = K;
leftMetricsKey = l;
layers = (
{
anchors = (
{
name = bottom;
position = "{370, 0}";
},
{
name = ogonek;
position = "{252, 0}";
},
{
name = top;
position = "{370, 740}";
},
{
name = topleft;
position = "{30, 736}";
}
);
layerId = "D43A2A6F-68E8-45C4-A912-BD747FE79F37";
shapes = (
{
closed = 1;
nodes = (
(720,0,l),
(407,412,l),
(362,307,l),
(711,740,l),
(479,740,l),
(201,378,l),
(479,0,l)
);
},
{
closed = 1;
nodes = (
(252,0,l),
(252,740,l),
(60,740,l),
(60,0,l)
);
}
);
width = 740;
},
{
anchors = (
{
name = bottom;
position = "{335, 0}";
},
{
name = ogonek;
position = "{188, 0}";
},
{
name = top;
position = "{335, 740}";
},
{
name = topleft;
position = "{35, 700}";
}
);
layerId = "F1D6C389-2D1A-40EB-B71A-932DD4B59B34";
shapes = (
{
closed = 1;
nodes = (
(651,0,l),
(269,406,l),
(245,338,l),
(636,739,l),
(508,739,l),
(163,380,l),
(519,0,l)
);
},
{
closed = 1;
nodes = (
(188,0,l),
(188,740,l),
(90,740,l),
(90,0,l)
);
}
);
width = 689;
},
{
anchors = (
{
name = bottom;
position = "{307, 0}";
},
{
name = ogonek;
position = "{125, 0}";
},
{
name = top;
position = "{307, 740}";
},
{
name = topleft;
position = "{18, 740}";
}
);
layerId = "C50750D9-3CEA-4BDB-8CD5-6DB84E6A41F9";
shapes = (
{
closed = 1;
nodes = (
(558,0,l),
(135,402,l),
(131,359,l),
(542,739,l),
(492,739,l),
(107,381,l),
(508,0,l)
);
},
{
closed = 1;
nodes = (
(125,0,l),
(125,740,l),
(90,740,l),
(90,0,l)
);
}
);
width = 603;
}
);
leftKerningGroup = l;
rightKerningGroup = K;
unicode = 75;
},
{
glyphname = L;
leftMetricsKey = l;
rightMetricsKey = E;
layers = (
{
anchors = (
{
name = bottom;
position = "{318, 0}";
},
{
name = center;
position = "{408, 370}";
},
{
name = ogonek;
position = "{252, 0}";
},
{
name = top;
position = "{156, 740}";
},
{
name = topleft;
position = "{30, 736}";
},
{
name = topright;
position = "{616, 740}";
}
);
layerId = "D43A2A6F-68E8-45C4-A912-BD747FE79F37";
shapes = (
{
closed = 1;
nodes = (
(601,0,l),
(601,166,l),
(60,166,l),
(60,0,l)
);
},
{
closed = 1;
nodes = (
(252,0,l),
(252,740,l),
(60,740,l),
(60,0,l)
);
}
);
width = 656;
},
{
anchors = (
{
name = bottom;
position = "{331, 0}";
},
{
name = center;
position = "{408, 340}";
},
{
name = ogonek;
position = "{188, 0}";
},
{
name = top;
position = "{148, 740}";
},
{
name = topleft;
position = "{35, 700}";
},
{
name = topright;
position = "{604, 700}";
}
);
layerId = "F1D6C389-2D1A-40EB-B71A-932DD4B59B34";
shapes = (
{
closed = 1;
nodes = (
(569,0,l),
(569,86,l),
(105,86,l),
(105,0,l)
);
},
{
closed = 1;
nodes = (
(188,0,l),
(188,740,l),
(90,740,l),
(90,0,l)
);
}
);
width = 634;
},
{
anchors = (
{
name = bottom;
position = "{275, 0}";
},
{
name = center;
position = "{408, 350}";
},
{
name = ogonek;
position = "{125, 0}";
},
{
name = top;
position = "{107, 740}";
},
{
name = topleft;
position = "{18, 740}";
},
{
name = topright;
position = "{517, 700}";
}
);
layerId = "C50750D9-3CEA-4BDB-8CD5-6DB84E6A41F9";
shapes = (
{
closed = 1;
nodes = (
(523,0,l),
(523,34,l),
(93,34,l),
(93,0,l)
);
},
{
closed = 1;
nodes = (
(125,0,l),
(125,740,l),
(90,740,l),
(90,0,l)
);
}
);
width = 598;
}
);
leftKerningGroup = l;
rightKerningGroup = L;
unicode = 76;
},
{
glyphname = Lacute;
layers = (
{
layerId = "D43A2A6F-68E8-45C4-A912-BD747FE79F37";
shapes = (
{
closed = 1;
nodes = (
(601,0,l),
(601,166,l),
(60,166,l),
(60,0,l)
);
},
{
closed = 1;
nodes = (
(252,0,l),
(252,740,l),
(60,740,l),
(60,0,l)
);
},
{
closed = 1;
nodes = (
(338,989,l),
(168,989,l),
(91,810,l),
(224,809,l)
);
}
);
width = 656;
},
{
layerId = "F1D6C389-2D1A-40EB-B71A-932DD4B59B34";
shapes = (
{
closed = 1;
nodes = (
(569,0,l),
(569,86,l),
(105,86,l),
(105,0,l)
);
},
{
closed = 1;
nodes = (
(188,0,l),
(188,740,l),
(90,740,l),
(90,0,l)
);
},
{
closed = 1;
nodes = (
(291,1001,l),
(193,1001,l),
(107,821,l),
(188,820,l)
);
}
);
width = 634;
},
{
layerId = "C50750D9-3CEA-4BDB-8CD5-6DB84E6A41F9";
shapes = (
{
closed = 1;
nodes = (
(523,0,l),
(523,34,l),
(93,34,l),
(93,0,l)
);
},
{
closed = 1;
nodes = (
(125,0,l),
(125,740,l),
(90,740,l),
(90,0,l)
);
},
{
closed = 1;
nodes = (
(221,980,l),
(180,980,l),
(95,828,l),
(129,828,l)
);
}
);
width = 598;
}
);
leftKerningGroup = l;
rightKerningGroup = L;
unicode = 313;
},
{
glyphname = Lcaron;
layers = (
{
layerId = "D43A2A6F-68E8-45C4-A912-BD747FE79F37";
shapes = (
{
closed = 1;
nodes = (
(601,0,l),
(601,166,l),
(60,166,l),
(60,0,l)
);
},
{
closed = 1;
nodes = (
(252,0,l),
(252,740,l),
(60,740,l),
(60,0,l)
);
},
{
closed = 1;
nodes = (
(229,800,l),
(364,989,l),
(223,989,l),
(131,849,l),
(181,850,l),
(88,989,l),
(-53,989,l),
(82,800,l)
);
}
);
width = 656;
},
{
layerId = "F1D6C389-2D1A-40EB-B71A-932DD4B59B34";
shapes = (
{
closed = 1;
nodes = (
(569,0,l),
(569,86,l),
(105,86,l),
(105,0,l)
);
},
{
closed = 1;
nodes = (
(188,0,l),
(188,740,l),
(90,740,l),
(90,0,l)
);
},
{
closed = 1;
nodes = (
(189,805,l),
(310,972,l),
(224,972,l),
(122,828,l),
(174,828,l),
(73,972,l),
(-13,972,l),
(108,805,l)
);
}
);
width = 634;
},
{
layerId = "C50750D9-3CEA-4BDB-8CD5-6DB84E6A41F9";
shapes = (
{
closed = 1;
nodes = (
(523,0,l),
(523,34,l),
(93,34,l),
(93,0,l)
);
},
{
closed = 1;
nodes = (
(125,0,l),
(125,740,l),
(90,740,l),
(90,0,l)
);
},
{
closed = 1;
nodes = (
(125,818,l),
(236,970,l),
(199,970,l),
(97,833,l),
(117,833,l),
(14,970,l),
(-23,970,l),
(88,818,l)
);
}
);
width = 598;
}
);
leftKerningGroup = l;
rightKerningGroup = L;
unicode = 317;
},
{
glyphname = Lslash;
leftMetricsKey = "=l-69";
rightMetricsKey = L;
layers = (
{
layerId = "D43A2A6F-68E8-45C4-A912-BD747FE79F37";
shapes = (
{
closed = 1;
nodes = (
(381,419,l),
(381,553,l),
(-9,361,l),
(-9,227,l)
);
},
{
closed = 1;
nodes = (
(612,0,l),
(612,166,l),
(71,166,l),
(71,0,l)
);
},
{
closed = 1;
nodes = (
(263,0,l),
(263,740,l),
(71,740,l),
(71,0,l)
);
}
);
width = 667;
},
{
layerId = "F1D6C389-2D1A-40EB-B71A-932DD4B59B34";
shapes = (
{
closed = 1;
nodes = (
(382,406,l),
(382,488,l),
(21,382,l),
(21,300,l)
);
},
{
closed = 1;
nodes = (
(594,0,l),
(594,86,l),
(130,86,l),
(130,0,l)
);
},
{
closed = 1;
nodes = (
(213,0,l),
(213,740,l),
(115,740,l),
(115,0,l)
);
}
);
width = 659;
},
{
layerId = "C50750D9-3CEA-4BDB-8CD5-6DB84E6A41F9";
shapes = (
{
closed = 1;
nodes = (
(304,431,l),
(304,464,l),
(21,330,l),
(21,297,l)
);
},
{
closed = 1;
nodes = (
(544,0,l),
(544,34,l),
(114,34,l),
(114,0,l)
);
},
{
closed = 1;
nodes = (
(146,0,l),
(146,740,l),
(111,740,l),
(111,0,l)
);
}
);
width = 619;
}
);
rightKerningGroup = L;
unicode = 321;
},
{
glyphname = M;
layers = (
{
layerId = "D43A2A6F-68E8-45C4-A912-BD747FE79F37";
shapes = (
{
closed = 1;
nodes = (
(457,240,l),
(330,740,l),
(60,740,l),
(60,0,l),
(250,0,l),
(250,443,l),
(358,0,l),
(554,0,l),
(662,441,l),
(662,0,l),
(852,0,l),
(852,740,l),
(592,740,l)
);
}
);
width = 912;
},
{
layerId = "F1D6C389-2D1A-40EB-B71A-932DD4B59B34";
shapes = (
{
closed = 1;
nodes = (
(436,106,l),
(224,740,l),
(90,740,l),
(90,0,l),
(182,0,l),
(182,605,l),
(381,0,l),
(490,0,l),
(690,603,l),
(690,0,l),
(781,0,l),
(781,740,l),
(648,740,l)
);
}
);
width = 871;
},
{
layerId = "C50750D9-3CEA-4BDB-8CD5-6DB84E6A41F9";
shapes = (
{
closed = 1;
nodes = (
(425,44,l),
(144,740,l),
(90,740,l),
(90,0,l),
(124,0,l),
(124,698,l),
(405,2,l),
(445,2,l),
(726,698,l),
(726,0,l),
(760,0,l),
(760,740,l),
(706,740,l)
);
}
);
width = 850;
}
);
leftKerningGroup = l;
rightKerningGroup = l;
unicode = 77;
},
{
glyphname = N;
leftMetricsKey = l;
rightMetricsKey = l;
layers = (
{
layerId = "D43A2A6F-68E8-45C4-A912-BD747FE79F37";
shapes = (
{
closed = 1;
nodes = (
(250,0,l),
(250,432,l),
(225,426,l),
(521,0,l),
(700,0,l),
(700,740,l),
(510,740,l),
(510,288,l),
(534,293,l),
(237,740,l),
(60,740,l),
(60,0,l)
);
}
);
width = 760;
},
{
layerId = "F1D6C389-2D1A-40EB-B71A-932DD4B59B34";
shapes = (
{
closed = 1;
nodes = (
(188,0,l),
(188,610,l),
(161,601,l),
(574,0,l),
(662,0,l),
(662,740,l),
(564,740,l),
(564,131,l),
(591,138,l),
(178,740,l),
(90,740,l),
(90,0,l)
);
}
);
width = 752;
},
{
layerId = "C50750D9-3CEA-4BDB-8CD5-6DB84E6A41F9";
shapes = (
{
closed = 1;
nodes = (
(125,0,l),
(125,731,l),
(98,721,l),
(591,0,l),
(627,0,l),
(627,740,l),
(592,740,l),
(592,11,l),
(619,20,l),
(126,740,l),
(90,740,l),
(90,0,l)
);
}
);
width = 717;
}
);
leftKerningGroup = l;
rightKerningGroup = l;
unicode = 78;
},
{
glyphname = Nacute;
layers = (
{
layerId = "D43A2A6F-68E8-45C4-A912-BD747FE79F37";
shapes = (
{
closed = 1;
nodes = (
(250,0,l),
(250,432,l),
(225,426,l),
(521,0,l),
(700,0,l),
(700,740,l),
(510,740,l),
(510,288,l),
(534,293,l),
(237,740,l),
(60,740,l),
(60,0,l)
);
},
{
closed = 1;
nodes = (
(558,989,l),
(388,989,l),
(311,810,l),
(444,809,l)
);
}
);
width = 760;
},
{
layerId = "F1D6C389-2D1A-40EB-B71A-932DD4B59B34";
shapes = (
{
closed = 1;
nodes = (
(188,0,l),
(188,610,l),
(161,601,l),
(574,0,l),
(662,0,l),
(662,740,l),
(564,740,l),
(564,131,l),
(591,138,l),
(178,740,l),
(90,740,l),
(90,0,l)
);
},
{
closed = 1;
nodes = (
(517,1001,l),
(419,1001,l),
(333,821,l),
(414,820,l)
);
}
);
width = 752;
},
{
layerId = "C50750D9-3CEA-4BDB-8CD5-6DB84E6A41F9";
shapes = (
{
closed = 1;
nodes = (
(125,0,l),
(125,731,l),
(98,721,l),
(591,0,l),
(627,0,l),
(627,740,l),
(592,740,l),
(592,11,l),
(619,20,l),
(126,740,l),
(90,740,l),
(90,0,l)
);
},
{
closed = 1;
nodes = (
(484,980,l),
(443,980,l),
(358,828,l),
(392,828,l)
);
}
);
width = 717;
}
);
leftKerningGroup = l;
rightKerningGroup = l;
unicode = 323;
},
{
glyphname = Ncaron;
layers = (
{
layerId = "D43A2A6F-68E8-45C4-A912-BD747FE79F37";
shapes = (
{
closed = 1;
nodes = (
(250,0,l),
(250,432,l),
(225,426,l),
(521,0,l),
(700,0,l),
(700,740,l),
(510,740,l),
(510,288,l),
(534,293,l),
(237,740,l),
(60,740,l),
(60,0,l)
);
},
{
closed = 1;
nodes = (
(449,800,l),
(584,989,l),
(443,989,l),
(351,849,l),
(401,850,l),
(308,989,l),
(167,989,l),
(302,800,l)
);
}
);
width = 760;
},
{
layerId = "F1D6C389-2D1A-40EB-B71A-932DD4B59B34";
shapes = (
{
closed = 1;
nodes = (
(188,0,l),
(188,610,l),
(161,601,l),
(574,0,l),
(662,0,l),
(662,740,l),
(564,740,l),
(564,131,l),
(591,138,l),
(178,740,l),
(90,740,l),
(90,0,l)
);
},
{
closed = 1;
nodes = (
(415,805,l),
(536,972,l),
(450,972,l),
(348,828,l),
(400,828,l),
(299,972,l),
(213,972,l),
(334,805,l)
);
}
);
width = 752;
},
{
layerId = "C50750D9-3CEA-4BDB-8CD5-6DB84E6A41F9";
shapes = (
{
closed = 1;
nodes = (
(125,0,l),
(125,731,l),
(98,721,l),
(591,0,l),
(627,0,l),
(627,740,l),
(592,740,l),
(592,11,l),
(619,20,l),
(126,740,l),
(90,740,l),
(90,0,l)
);
},
{
closed = 1;
nodes = (
(388,818,l),
(499,970,l),
(462,970,l),
(360,833,l),
(380,833,l),
(277,970,l),
(240,970,l),
(351,818,l)
);
}
);
width = 717;
}
);
leftKerningGroup = l;
rightKerningGroup = l;
unicode = 327;
},
{
glyphname = Ntilde;
layers = (
{
layerId = "D43A2A6F-68E8-45C4-A912-BD747FE79F37";
shapes = (
{
closed = 1;
nodes = (
(250,0,l),
(250,432,l),
(225,426,l),
(521,0,l),
(700,0,l),
(700,740,l),
(510,740,l),
(510,288,l),
(534,293,l),
(237,740,l),
(60,740,l),
(60,0,l)
);
},
{
closed = 1;
nodes = (
(545,822,o),
(562,912,o),
(562,981,c),
(469,981,l),
(469,947,o),
(463,928,o),
(444,928,cs),
(410,928,o),
(378,987,o),
(305,987,cs),
(214,987,o),
(197,897,o),
(197,828,c),
(290,828,l),
(290,862,o),
(296,881,o),
(316,881,cs),
(352,881,o),
(381,822,o),
(454,822,cs)
);
}
);
width = 760;
},
{
layerId = "F1D6C389-2D1A-40EB-B71A-932DD4B59B34";
shapes = (
{
closed = 1;
nodes = (
(188,0,l),
(188,610,l),
(161,601,l),
(574,0,l),
(662,0,l),
(662,740,l),
(564,740,l),
(564,131,l),
(591,138,l),
(178,740,l),
(90,740,l),
(90,0,l)
);
},
{
closed = 1;
nodes = (
(512,827,o),
(531,895,o),
(531,957,c),
(467,957,l),
(467,920,o),
(457,897,o),
(436,897,cs),
(400,897,o),
(380,962,o),
(307,962,cs),
(236,962,o),
(217,895,o),
(217,833,c),
(281,833,l),
(281,869,o),
(290,893,o),
(313,893,cs),
(350,893,o),
(370,827,o),
(442,827,cs)
);
}
);
width = 752;
},
{
layerId = "C50750D9-3CEA-4BDB-8CD5-6DB84E6A41F9";
shapes = (
{
closed = 1;
nodes = (
(125,0,l),
(125,731,l),
(98,721,l),
(591,0,l),
(627,0,l),
(627,740,l),
(592,740,l),
(592,11,l),
(619,20,l),
(126,740,l),
(90,740,l),
(90,0,l)
);
},
{
closed = 1;
nodes = (
(475,831,o),
(495,878,o),
(495,936,c),
(465,936,l),
(465,889,o),
(455,860,o),
(430,860,cs),
(390,860,o),
(376,941,o),
(312,941,cs),
(265,941,o),
(246,894,o),
(246,836,c),
(276,836,l),
(276,884,o),
(286,912,o),
(312,912,cs),
(355,912,o),
(370,831,o),
(430,831,cs)
);
}
);
width = 717;
}
);
leftKerningGroup = l;
rightKerningGroup = l;
unicode = 209;
},
{
glyphname = O;
layers = (
{
anchors = (
{
name = bottom;
position = "{415, 0}";
},
{
name = center;
position = "{416, 357}";
},
{
name = ogonek;
position = "{724, 11}";
},
{
name = top;
position = "{415, 750}";
},
{
name = topleft;
position = "{51, 738}";
},
{
name = topright;
position = "{415, 749}";
}
);
layerId = "D43A2A6F-68E8-45C4-A912-BD747FE79F37";
shapes = (
{
closed = 1;
nodes = (
(671,-10,o),
(800,181,o),
(800,371,cs),
(800,559,o),
(671,750,o),
(415,750,cs),
(160,750,o),
(30,559,o),
(30,371,cs),
(30,181,o),
(160,-10,o),
(415,-10,cs)
);
},
{
closed = 1;
nodes = (
(292,161,o),
(231,266,o),
(231,371,cs),
(231,475,o),
(292,580,o),
(415,580,cs),
(538,580,o),
(600,475,o),
(600,371,cs),
(600,266,o),
(538,161,o),
(415,161,cs)
);
}
);
width = 830;
},
{
anchors = (
{
name = bottom;
position = "{413, 0}";
},
{
name = center;
position = "{416, 232}";
},
{
name = ogonek;
position = "{727, 11}";
},
{
name = top;
position = "{413, 750}";
},
{
name = topleft;
position = "{49, 738}";
},
{
name = topright;
position = "{413, 750}";
}
);
layerId = "F1D6C389-2D1A-40EB-B71A-932DD4B59B34";
shapes = (
{
closed = 1;
nodes = (
(648,-10,o),
(771,181,o),
(771,371,cs),
(771,559,o),
(648,750,o),
(413,750,cs),
(178,750,o),
(55,559,o),
(55,371,cs),
(55,181,o),
(178,-10,o),
(413,-10,cs)
);
},
{
closed = 1;
nodes = (
(246,81,o),
(155,222,o),
(155,371,cs),
(155,518,o),
(246,659,o),
(413,659,cs),
(580,659,o),
(671,518,o),
(671,371,cs),
(671,222,o),
(580,81,o),
(413,81,cs)
);
}
);
width = 826;
},
{
anchors = (
{
name = bottom;
position = "{406, 0}";
},
{
name = center;
position = "{411, 371}";
},
{
name = ogonek;
position = "{729, 11}";
},
{
name = top;
position = "{406, 750}";
},
{
name = topleft;
position = "{36, 738}";
},
{
name = topright;
position = "{406, 749}";
}
);
layerId = "C50750D9-3CEA-4BDB-8CD5-6DB84E6A41F9";
shapes = (
{
closed = 1;
nodes = (
(633,-10,o),
(752,181,o),
(752,370,cs),
(752,560,o),
(633,750,o),
(406,750,cs),
(179,750,o),
(60,560,o),
(60,370,cs),
(60,181,o),
(179,-10,o),
(406,-10,cs)
);
},
{
closed = 1;
nodes = (
(251,24,o),
(96,140,o),
(96,370,cs),
(96,601,o),
(251,716,o),
(406,716,cs),
(561,716,o),
(716,601,o),
(716,370,cs),
(716,140,o),
(561,24,o),
(406,24,cs)
);
}
);
width = 812;
}
);
leftKerningGroup = O;
rightKerningGroup = O;
unicode = 79;
},
{
glyphname = Oacute;
layers = (
{
layerId = "D43A2A6F-68E8-45C4-A912-BD747FE79F37";
shapes = (
{
closed = 1;
nodes = (
(671,-10,o),
(800,181,o),
(800,371,cs),
(800,559,o),
(671,750,o),
(415,750,cs),
(160,750,o),
(30,559,o),
(30,371,cs),
(30,181,o),
(160,-10,o),
(415,-10,cs)
);
},
{
closed = 1;
nodes = (
(292,161,o),
(231,266,o),
(231,371,cs),
(231,475,o),
(292,580,o),
(415,580,cs),
(538,580,o),
(600,475,o),
(600,371,cs),
(600,266,o),
(538,161,o),
(415,161,cs)
);
},
{
closed = 1;
nodes = (
(597,999,l),
(427,999,l),
(350,820,l),
(483,819,l)
);
}
);
width = 830;
},
{
layerId = "F1D6C389-2D1A-40EB-B71A-932DD4B59B34";
shapes = (
{
closed = 1;
nodes = (
(648,-10,o),
(771,181,o),
(771,371,cs),
(771,559,o),
(648,750,o),
(413,750,cs),
(178,750,o),
(55,559,o),
(55,371,cs),
(55,181,o),
(178,-10,o),
(413,-10,cs)
);
},
{
closed = 1;
nodes = (
(246,81,o),
(155,222,o),
(155,371,cs),
(155,518,o),
(246,659,o),
(413,659,cs),
(580,659,o),
(671,518,o),
(671,371,cs),
(671,222,o),
(580,81,o),
(413,81,cs)
);
},
{
closed = 1;
nodes = (
(556,1011,l),
(458,1011,l),
(372,831,l),
(453,830,l)
);
}
);
width = 826;
},
{
layerId = "C50750D9-3CEA-4BDB-8CD5-6DB84E6A41F9";
shapes = (
{
closed = 1;
nodes = (
(633,-10,o),
(752,181,o),
(752,370,cs),
(752,560,o),
(633,750,o),
(406,750,cs),
(179,750,o),
(60,560,o),
(60,370,cs),
(60,181,o),
(179,-10,o),
(406,-10,cs)
);
},
{
closed = 1;
nodes = (
(251,24,o),
(96,140,o),
(96,370,cs),
(96,601,o),
(251,716,o),
(406,716,cs),
(561,716,o),
(716,601,o),
(716,370,cs),
(716,140,o),
(561,24,o),
(406,24,cs)
);
},
{
closed = 1;
nodes = (
(520,990,l),
(479,990,l),
(394,838,l),
(428,838,l)
);
}
);
width = 812;
}
);
leftKerningGroup = O;
rightKerningGroup = O;
unicode = 211;
},
{
glyphname = Ocircumflex;
layers = (
{
layerId = "D43A2A6F-68E8-45C4-A912-BD747FE79F37";
shapes = (
{
closed = 1;
nodes = (
(671,-10,o),
(800,181,o),
(800,371,cs),
(800,559,o),
(671,750,o),
(415,750,cs),
(160,750,o),
(30,559,o),
(30,371,cs),
(30,181,o),
(160,-10,o),
(415,-10,cs)
);
},
{
closed = 1;
nodes = (
(292,161,o),
(231,266,o),
(231,371,cs),
(231,475,o),
(292,580,o),
(415,580,cs),
(538,580,o),
(600,475,o),
(600,371,cs),
(600,266,o),
(538,161,o),
(415,161,cs)
);
},
{
closed = 1;
nodes = (
(348,809,l),
(416,890,l),
(483,809,l),
(624,809,l),
(489,968,l),
(342,968,l),
(207,809,l)
);
}
);
width = 830;
},
{
layerId = "F1D6C389-2D1A-40EB-B71A-932DD4B59B34";
shapes = (
{
closed = 1;
nodes = (
(648,-10,o),
(771,181,o),
(771,371,cs),
(771,559,o),
(648,750,o),
(413,750,cs),
(178,750,o),
(55,559,o),
(55,371,cs),
(55,181,o),
(178,-10,o),
(413,-10,cs)
);
},
{
closed = 1;
nodes = (
(246,81,o),
(155,222,o),
(155,371,cs),
(155,518,o),
(246,659,o),
(413,659,cs),
(580,659,o),
(671,518,o),
(671,371,cs),
(671,222,o),
(580,81,o),
(413,81,cs)
);
},
{
closed = 1;
nodes = (
(338,826,l),
(413,918,l),
(489,826,l),
(575,826,l),
(454,973,l),
(373,973,l),
(252,826,l)
);
}
);
width = 826;
},
{
layerId = "C50750D9-3CEA-4BDB-8CD5-6DB84E6A41F9";
shapes = (
{
closed = 1;
nodes = (
(633,-10,o),
(752,181,o),
(752,370,cs),
(752,560,o),
(633,750,o),
(406,750,cs),
(179,750,o),
(60,560,o),
(60,370,cs),
(60,181,o),
(179,-10,o),
(406,-10,cs)
);
},
{
closed = 1;
nodes = (
(251,24,o),
(96,140,o),
(96,370,cs),
(96,601,o),
(251,716,o),
(406,716,cs),
(561,716,o),
(716,601,o),
(716,370,cs),
(716,140,o),
(561,24,o),
(406,24,cs)
);
},
{
closed = 1;
nodes = (
(314,828,l),
(407,942,l),
(499,828,l),
(536,828,l),
(425,966,l),
(388,966,l),
(277,828,l)
);
}
);
width = 812;
}
);
leftKerningGroup = O;
rightKerningGroup = O;
unicode = 212;
},
{
glyphname = Ocircumflexacute;
layers = (
{
layerId = "D43A2A6F-68E8-45C4-A912-BD747FE79F37";
shapes = (
{
closed = 1;
nodes = (
(671,-10,o),
(800,181,o),
(800,371,cs),
(800,559,o),
(671,750,o),
(415,750,cs),
(160,750,o),
(30,559,o),
(30,371,cs),
(30,181,o),
(160,-10,o),
(415,-10,cs)
);
},
{
closed = 1;
nodes = (
(292,161,o),
(231,266,o),
(231,371,cs),
(231,475,o),
(292,580,o),
(415,580,cs),
(538,580,o),
(600,475,o),
(600,371,cs),
(600,266,o),
(538,161,o),
(415,161,cs)
);
},
{
closed = 1;
nodes = (
(347,809,l),
(415,890,l),
(482,809,l),
(623,809,l),
(488,968,l),
(341,968,l),
(206,809,l)
);
},
{
closed = 1;
nodes = (
(800,1119,l),
(630,1119,l),
(553,940,l),
(686,939,l)
);
}
);
width = 830;
},
{
layerId = "F1D6C389-2D1A-40EB-B71A-932DD4B59B34";
shapes = (
{
closed = 1;
nodes = (
(648,-10,o),
(771,181,o),
(771,371,cs),
(771,559,o),
(648,750,o),
(413,750,cs),
(178,750,o),
(55,559,o),
(55,371,cs),
(55,181,o),
(178,-10,o),
(413,-10,cs)
);
},
{
closed = 1;
nodes = (
(246,81,o),
(155,222,o),
(155,371,cs),
(155,518,o),
(246,659,o),
(413,659,cs),
(580,659,o),
(671,518,o),
(671,371,cs),
(671,222,o),
(580,81,o),
(413,81,cs)
);
},
{
closed = 1;
nodes = (
(338,826,l),
(413,918,l),
(489,826,l),
(575,826,l),
(454,973,l),
(373,973,l),
(252,826,l)
);
},
{
closed = 1;
nodes = (
(709,1135,l),
(611,1135,l),
(525,955,l),
(606,954,l)
);
}
);
width = 826;
},
{
layerId = "C50750D9-3CEA-4BDB-8CD5-6DB84E6A41F9";
shapes = (
{
closed = 1;
nodes = (
(633,-10,o),
(752,181,o),
(752,370,cs),
(752,560,o),
(633,750,o),
(406,750,cs),
(179,750,o),
(60,560,o),
(60,370,cs),
(60,181,o),
(179,-10,o),
(406,-10,cs)
);
},
{
closed = 1;
nodes = (
(251,24,o),
(96,140,o),
(96,370,cs),
(96,601,o),
(251,716,o),
(406,716,cs),
(561,716,o),
(716,601,o),
(716,370,cs),
(716,140,o),
(561,24,o),
(406,24,cs)
);
},
{
closed = 1;
nodes = (
(316,828,l),
(409,942,l),
(501,828,l),
(538,828,l),
(427,966,l),
(390,966,l),
(279,828,l)
);
},
{
closed = 1;
nodes = (
(654,1099,l),
(613,1099,l),
(528,947,l),
(562,947,l)
);
}
);
width = 812;
}
);
leftKerningGroup = O;
rightKerningGroup = O;
unicode = 7888;
},
{
glyphname = Ocircumflexdotbelow;
layers = (
{
layerId = "D43A2A6F-68E8-45C4-A912-BD747FE79F37";
shapes = (
{
closed = 1;
nodes = (
(671,-10,o),
(800,181,o),
(800,371,cs),
(800,559,o),
(671,750,o),
(415,750,cs),
(160,750,o),
(30,559,o),
(30,371,cs),
(30,181,o),
(160,-10,o),
(415,-10,cs)
);
},
{
closed = 1;
nodes = (
(292,161,o),
(231,266,o),
(231,371,cs),
(231,475,o),
(292,580,o),
(415,580,cs),
(538,580,o),
(600,475,o),
(600,371,cs),
(600,266,o),
(538,161,o),
(415,161,cs)
);
},
{
closed = 1;
nodes = (
(466,-260,o),
(504,-220,o),
(504,-171,cs),
(504,-121,o),
(466,-82,o),
(415,-82,cs),
(362,-82,o),
(326,-121,o),
(326,-171,cs),
(326,-220,o),
(362,-260,o),
(415,-260,cs)
);
},
{
closed = 1;
nodes = (
(348,809,l),
(416,890,l),
(483,809,l),
(624,809,l),
(489,968,l),
(342,968,l),
(207,809,l)
);
}
);
width = 830;
},
{
layerId = "F1D6C389-2D1A-40EB-B71A-932DD4B59B34";
shapes = (
{
closed = 1;
nodes = (
(648,-10,o),
(771,181,o),
(771,371,cs),
(771,559,o),
(648,750,o),
(413,750,cs),
(178,750,o),
(55,559,o),
(55,371,cs),
(55,181,o),
(178,-10,o),
(413,-10,cs)
);
},
{
closed = 1;
nodes = (
(246,81,o),
(155,222,o),
(155,371,cs),
(155,518,o),
(246,659,o),
(413,659,cs),
(580,659,o),
(671,518,o),
(671,371,cs),
(671,222,o),
(580,81,o),
(413,81,cs)
);
},
{
closed = 1;
nodes = (
(450,-227,o),
(478,-198,o),
(478,-162,cs),
(478,-126,o),
(450,-97,o),
(413,-97,cs),
(375,-97,o),
(348,-126,o),
(348,-162,cs),
(348,-197,o),
(375,-227,o),
(413,-227,cs)
);
},
{
closed = 1;
nodes = (
(338,826,l),
(413,918,l),
(489,826,l),
(575,826,l),
(454,973,l),
(373,973,l),
(252,826,l)
);
}
);
width = 826;
},
{
layerId = "C50750D9-3CEA-4BDB-8CD5-6DB84E6A41F9";
shapes = (
{
closed = 1;
nodes = (
(633,-10,o),
(752,181,o),
(752,370,cs),
(752,560,o),
(633,750,o),
(406,750,cs),
(179,750,o),
(60,560,o),
(60,370,cs),
(60,181,o),
(179,-10,o),
(406,-10,cs)
);
},
{
closed = 1;
nodes = (
(251,24,o),
(96,140,o),
(96,370,cs),
(96,601,o),
(251,716,o),
(406,716,cs),
(561,716,o),
(716,601,o),
(716,370,cs),
(716,140,o),
(561,24,o),
(406,24,cs)
);
},
{
closed = 1;
nodes = (
(426,-192,o),
(443,-175,o),
(443,-154,cs),
(443,-134,o),
(426,-117,o),
(405,-117,cs),
(384,-117,o),
(368,-134,o),
(368,-154,cs),
(368,-175,o),
(384,-192,o),
(405,-192,cs)
);
},
{
closed = 1;
nodes = (
(314,828,l),
(407,942,l),
(499,828,l),
(536,828,l),
(425,966,l),
(388,966,l),
(277,828,l)
);
}
);
width = 812;
}
);
leftKerningGroup = O;
rightKerningGroup = O;
unicode = 7896;
},
{
glyphname = Ocircumflexgrave;
layers = (
{
layerId = "D43A2A6F-68E8-45C4-A912-BD747FE79F37";
shapes = (
{
closed = 1;
nodes = (
(671,-10,o),
(800,181,o),
(800,371,cs),
(800,559,o),
(671,750,o),
(415,750,cs),
(160,750,o),
(30,559,o),
(30,371,cs),
(30,181,o),
(160,-10,o),
(415,-10,cs)
);
},
{
closed = 1;
nodes = (
(292,161,o),
(231,266,o),
(231,371,cs),
(231,475,o),
(292,580,o),
(415,580,cs),
(538,580,o),
(600,475,o),
(600,371,cs),
(600,266,o),
(538,161,o),
(415,161,cs)
);
},
{
closed = 1;
nodes = (
(348,809,l),
(416,890,l),
(483,809,l),
(624,809,l),
(489,968,l),
(342,968,l),
(207,809,l)
);
},
{
closed = 1;
nodes = (
(707,940,l),
(630,1119,l),
(460,1119,l),
(574,939,l)
);
}
);
width = 830;
},
{
layerId = "F1D6C389-2D1A-40EB-B71A-932DD4B59B34";
shapes = (
{
closed = 1;
nodes = (
(648,-10,o),
(771,181,o),
(771,371,cs),
(771,559,o),
(648,750,o),
(413,750,cs),
(178,750,o),
(55,559,o),
(55,371,cs),
(55,181,o),
(178,-10,o),
(413,-10,cs)
);
},
{
closed = 1;
nodes = (
(246,81,o),
(155,222,o),
(155,371,cs),
(155,518,o),
(246,659,o),
(413,659,cs),
(580,659,o),
(671,518,o),
(671,371,cs),
(671,222,o),
(580,81,o),
(413,81,cs)
);
},
{
closed = 1;
nodes = (
(338,826,l),
(413,918,l),
(489,826,l),
(575,826,l),
(454,973,l),
(373,973,l),
(252,826,l)
);
},
{
closed = 1;
nodes = (
(631,955,l),
(545,1135,l),
(447,1135,l),
(550,954,l)
);
}
);
width = 826;
},
{
layerId = "C50750D9-3CEA-4BDB-8CD5-6DB84E6A41F9";
shapes = (
{
closed = 1;
nodes = (
(633,-10,o),
(752,181,o),
(752,370,cs),
(752,560,o),
(633,750,o),
(406,750,cs),
(179,750,o),
(60,560,o),
(60,370,cs),
(60,181,o),
(179,-10,o),
(406,-10,cs)
);
},
{
closed = 1;
nodes = (
(251,24,o),
(96,140,o),
(96,370,cs),
(96,601,o),
(251,716,o),
(406,716,cs),
(561,716,o),
(716,601,o),
(716,370,cs),
(716,140,o),
(561,24,o),
(406,24,cs)
);
},
{
closed = 1;
nodes = (
(314,828,l),
(407,942,l),
(499,828,l),
(536,828,l),
(425,966,l),
(388,966,l),
(277,828,l)
);
},
{
closed = 1;
nodes = (
(567,947,l),
(482,1099,l),
(441,1099,l),
(533,947,l)
);
}
);
width = 812;
}
);
leftKerningGroup = O;
rightKerningGroup = O;
unicode = 7890;
},
{
glyphname = Ocircumflexhookabove;
layers = (
{
layerId = "D43A2A6F-68E8-45C4-A912-BD747FE79F37";
shapes = (
{
closed = 1;
nodes = (
(671,-10,o),
(800,181,o),
(800,371,cs),
(800,559,o),
(671,750,o),
(415,750,cs),
(160,750,o),
(30,559,o),
(30,371,cs),
(30,181,o),
(160,-10,o),
(415,-10,cs)
);
},
{
closed = 1;
nodes = (
(292,161,o),
(231,266,o),
(231,371,cs),
(231,475,o),
(292,580,o),
(415,580,cs),
(538,580,o),
(600,475,o),
(600,371,cs),
(600,266,o),
(538,161,o),
(415,161,cs)
);
},
{
closed = 1;
nodes = (
(342,809,l),
(410,890,l),
(477,809,l),
(618,809,l),
(483,968,l),
(336,968,l),
(201,809,l)
);
},
{
closed = 1;
nodes = (
(685,917,l),
(685,988,l),
(647,923,l),
(690,947,ls),
(734,971,o),
(776,1000,o),
(776,1054,cs),
(776,1115,o),
(722,1168,o),
(634,1168,cs),
(536,1168,o),
(498,1098,o),
(500,1042,c),
(601,1042,l),
(601,1042,o),
(601,1079,o),
(636,1079,cs),
(655,1079,o),
(668,1066,o),
(668,1050,cs),
(668,1028,o),
(652,1018,o),
(627,1005,cs),
(611,997,ls),
(591,987,o),
(583,970,o),
(583,950,cs),
(583,917,l)
);
}
);
width = 830;
},
{
layerId = "F1D6C389-2D1A-40EB-B71A-932DD4B59B34";
shapes = (
{
closed = 1;
nodes = (
(648,-10,o),
(771,181,o),
(771,371,cs),
(771,559,o),
(648,750,o),
(413,750,cs),
(178,750,o),
(55,559,o),
(55,371,cs),
(55,181,o),
(178,-10,o),
(413,-10,cs)
);
},
{
closed = 1;
nodes = (
(246,81,o),
(155,222,o),
(155,371,cs),
(155,518,o),
(246,659,o),
(413,659,cs),
(580,659,o),
(671,518,o),
(671,371,cs),
(671,222,o),
(580,81,o),
(413,81,cs)
);
},
{
closed = 1;
nodes = (
(338,826,l),
(413,918,l),
(489,826,l),
(575,826,l),
(454,973,l),
(373,973,l),
(252,826,l)
);
},
{
closed = 1;
nodes = (
(599,947,l),
(599,1007,l),
(569,962,l),
(603,978,ls),
(659,1005,o),
(683,1037,o),
(683,1075,cs),
(683,1126,o),
(639,1168,o),
(569,1168,cs),
(492,1168,o),
(458,1116,o),
(459,1067,c),
(525,1067,l),
(525,1078,o),
(530,1110,o),
(570,1110,cs),
(600,1110,o),
(614,1091,o),
(614,1073,cs),
(614,1054,o),
(600,1038,o),
(568,1022,cs),
(554,1015,ls),
(538,1007,o),
(534,992,o),
(534,979,cs),
(534,947,l)
);
}
);
width = 826;
},
{
layerId = "C50750D9-3CEA-4BDB-8CD5-6DB84E6A41F9";
shapes = (
{
closed = 1;
nodes = (
(633,-10,o),
(752,181,o),
(752,370,cs),
(752,560,o),
(633,750,o),
(406,750,cs),
(179,750,o),
(60,560,o),
(60,370,cs),
(60,181,o),
(179,-10,o),
(406,-10,cs)
);
},
{
closed = 1;
nodes = (
(251,24,o),
(96,140,o),
(96,370,cs),
(96,601,o),
(251,716,o),
(406,716,cs),
(561,716,o),
(716,601,o),
(716,370,cs),
(716,140,o),
(561,24,o),
(406,24,cs)
);
},
{
closed = 1;
nodes = (
(314,828,l),
(407,942,l),
(499,828,l),
(536,828,l),
(425,966,l),
(388,966,l),
(277,828,l)
);
},
{
closed = 1;
nodes = (
(554,933,l),
(554,984,l),
(531,957,l),
(555,968,ls),
(610,993,o),
(628,1023,o),
(628,1053,cs),
(628,1094,o),
(597,1124,o),
(546,1124,cs),
(495,1124,o),
(464,1094,o),
(464,1047,c),
(493,1047,l),
(493,1070,o),
(504,1096,o),
(546,1096,cs),
(585,1096,o),
(598,1072,o),
(598,1052,cs),
(598,1026,o),
(579,1007,o),
(551,993,cs),
(539,987,ls),
(530,983,o),
(526,975,o),
(526,965,cs),
(526,933,l)
);
}
);
width = 812;
}
);
leftKerningGroup = O;
rightKerningGroup = O;
unicode = 7892;
},
{
glyphname = Ocircumflextilde;
layers = (
{
layerId = "D43A2A6F-68E8-45C4-A912-BD747FE79F37";
shapes = (
{
closed = 1;
nodes = (
(671,-10,o),
(800,181,o),
(800,371,cs),
(800,559,o),
(671,750,o),
(415,750,cs),
(160,750,o),
(30,559,o),
(30,371,cs),
(30,181,o),
(160,-10,o),
(415,-10,cs)
);
},
{
closed = 1;
nodes = (
(292,161,o),
(231,266,o),
(231,371,cs),
(231,475,o),
(292,580,o),
(415,580,cs),
(538,580,o),
(600,475,o),
(600,371,cs),
(600,266,o),
(538,161,o),
(415,161,cs)
);
},
{
closed = 1;
nodes = (
(347,809,l),
(415,890,l),
(482,809,l),
(623,809,l),
(488,968,l),
(341,968,l),
(206,809,l)
);
},
{
closed = 1;
nodes = (
(580,1002,o),
(597,1092,o),
(597,1161,c),
(504,1161,l),
(504,1127,o),
(498,1108,o),
(479,1108,cs),
(445,1108,o),
(413,1167,o),
(340,1167,cs),
(249,1167,o),
(232,1077,o),
(232,1008,c),
(325,1008,l),
(325,1042,o),
(331,1061,o),
(351,1061,cs),
(387,1061,o),
(416,1002,o),
(489,1002,cs)
);
}
);
width = 830;
},
{
layerId = "F1D6C389-2D1A-40EB-B71A-932DD4B59B34";
shapes = (
{
closed = 1;
nodes = (
(648,-10,o),
(771,181,o),
(771,371,cs),
(771,559,o),
(648,750,o),
(413,750,cs),
(178,750,o),
(55,559,o),
(55,371,cs),
(55,181,o),
(178,-10,o),
(413,-10,cs)
);
},
{
closed = 1;
nodes = (
(246,81,o),
(155,222,o),
(155,371,cs),
(155,518,o),
(246,659,o),
(413,659,cs),
(580,659,o),
(671,518,o),
(671,371,cs),
(671,222,o),
(580,81,o),
(413,81,cs)
);
},
{
closed = 1;
nodes = (
(337,826,l),
(412,918,l),
(488,826,l),
(574,826,l),
(453,973,l),
(372,973,l),
(251,826,l)
);
},
{
closed = 1;
nodes = (
(551,1012,o),
(570,1080,o),
(570,1142,c),
(506,1142,l),
(506,1105,o),
(496,1082,o),
(475,1082,cs),
(439,1082,o),
(419,1147,o),
(346,1147,cs),
(275,1147,o),
(256,1080,o),
(256,1018,c),
(320,1018,l),
(320,1054,o),
(329,1078,o),
(352,1078,cs),
(389,1078,o),
(409,1012,o),
(481,1012,cs)
);
}
);
width = 826;
},
{
layerId = "C50750D9-3CEA-4BDB-8CD5-6DB84E6A41F9";
shapes = (
{
closed = 1;
nodes = (
(633,-10,o),
(752,181,o),
(752,370,cs),
(752,560,o),
(633,750,o),
(406,750,cs),
(179,750,o),
(60,560,o),
(60,370,cs),
(60,181,o),
(179,-10,o),
(406,-10,cs)
);
},
{
closed = 1;
nodes = (
(251,24,o),
(96,140,o),
(96,370,cs),
(96,601,o),
(251,716,o),
(406,716,cs),
(561,716,o),
(716,601,o),
(716,370,cs),
(716,140,o),
(561,24,o),
(406,24,cs)
);
},
{
closed = 1;
nodes = (
(314,828,l),
(407,942,l),
(499,828,l),
(536,828,l),
(425,966,l),
(388,966,l),
(277,828,l)
);
},
{
closed = 1;
nodes = (
(511,1006,o),
(531,1053,o),
(531,1111,c),
(501,1111,l),
(501,1064,o),
(491,1035,o),
(466,1035,cs),
(426,1035,o),
(412,1116,o),
(348,1116,cs),
(301,1116,o),
(282,1069,o),
(282,1011,c),
(312,1011,l),
(312,1059,o),
(322,1087,o),
(348,1087,cs),
(391,1087,o),
(406,1006,o),
(466,1006,cs)
);
}
);
width = 812;
}
);
leftKerningGroup = O;
rightKerningGroup = O;
unicode = 7894;
},
{
glyphname = Odieresis;
layers = (
{
layerId = "D43A2A6F-68E8-45C4-A912-BD747FE79F37";
shapes = (
{
closed = 1;
nodes = (
(671,-10,o),
(800,181,o),
(800,371,cs),
(800,559,o),
(671,750,o),
(415,750,cs),
(160,750,o),
(30,559,o),
(30,371,cs),
(30,181,o),
(160,-10,o),
(415,-10,cs)
);
},
{
closed = 1;
nodes = (
(292,161,o),
(231,266,o),
(231,371,cs),
(231,475,o),
(292,580,o),
(415,580,cs),
(538,580,o),
(600,475,o),
(600,371,cs),
(600,266,o),
(538,161,o),
(415,161,cs)
);
},
{
closed = 1;
nodes = (
(599,798,o),
(642,842,o),
(642,895,cs),
(642,950,o),
(599,993,o),
(540,993,cs),
(480,993,o),
(438,950,o),
(438,895,cs),
(438,842,o),
(480,798,o),
(540,798,cs)
);
},
{
closed = 1;
nodes = (
(348,798,o),
(391,842,o),
(391,895,cs),
(391,950,o),
(348,993,o),
(289,993,cs),
(229,993,o),
(187,950,o),
(187,895,cs),
(187,842,o),
(229,798,o),
(289,798,cs)
);
}
);
width = 830;
},
{
layerId = "F1D6C389-2D1A-40EB-B71A-932DD4B59B34";
shapes = (
{
closed = 1;
nodes = (
(648,-10,o),
(771,181,o),
(771,371,cs),
(771,559,o),
(648,750,o),
(413,750,cs),
(178,750,o),
(55,559,o),
(55,371,cs),
(55,181,o),
(178,-10,o),
(413,-10,cs)
);
},
{
closed = 1;
nodes = (
(246,81,o),
(155,222,o),
(155,371,cs),
(155,518,o),
(246,659,o),
(413,659,cs),
(580,659,o),
(671,518,o),
(671,371,cs),
(671,222,o),
(580,81,o),
(413,81,cs)
);
},
{
closed = 1;
nodes = (
(543,831,o),
(570,858,o),
(570,892,cs),
(570,926,o),
(543,954,o),
(508,954,cs),
(472,954,o),
(446,926,o),
(446,892,cs),
(446,859,o),
(472,831,o),
(508,831,cs)
);
},
{
closed = 1;
nodes = (
(353,831,o),
(380,858,o),
(380,892,cs),
(380,926,o),
(353,954,o),
(318,954,cs),
(282,954,o),
(256,926,o),
(256,892,cs),
(256,859,o),
(282,831,o),
(318,831,cs)
);
}
);
width = 826;
},
{
layerId = "C50750D9-3CEA-4BDB-8CD5-6DB84E6A41F9";
shapes = (
{
closed = 1;
nodes = (
(633,-10,o),
(752,181,o),
(752,370,cs),
(752,560,o),
(633,750,o),
(406,750,cs),
(179,750,o),
(60,560,o),
(60,370,cs),
(60,181,o),
(179,-10,o),
(406,-10,cs)
);
},
{
closed = 1;
nodes = (
(251,24,o),
(96,140,o),
(96,370,cs),
(96,601,o),
(251,716,o),
(406,716,cs),
(561,716,o),
(716,601,o),
(716,370,cs),
(716,140,o),
(561,24,o),
(406,24,cs)
);
},
{
closed = 1;
nodes = (
(495,850,o),
(511,866,o),
(511,886,cs),
(511,905,o),
(495,922,o),
(475,922,cs),
(455,922,o),
(440,905,o),
(440,886,cs),
(440,866,o),
(455,850,o),
(475,850,cs)
);
},
{
closed = 1;
nodes = (
(356,850,o),
(372,866,o),
(372,886,cs),
(372,905,o),
(356,922,o),
(336,922,cs),
(316,922,o),
(301,905,o),
(301,886,cs),
(301,866,o),
(316,850,o),
(336,850,cs)
);
}
);
width = 812;
}
);
leftKerningGroup = O;
rightKerningGroup = O;
unicode = 214;
},
{
glyphname = Odotbelow;
layers = (
{
layerId = "D43A2A6F-68E8-45C4-A912-BD747FE79F37";
shapes = (
{
closed = 1;
nodes = (
(671,-10,o),
(800,181,o),
(800,371,cs),
(800,559,o),
(671,750,o),
(415,750,cs),
(160,750,o),
(30,559,o),
(30,371,cs),
(30,181,o),
(160,-10,o),
(415,-10,cs)
);
},
{
closed = 1;
nodes = (
(292,161,o),
(231,266,o),
(231,371,cs),
(231,475,o),
(292,580,o),
(415,580,cs),
(538,580,o),
(600,475,o),
(600,371,cs),
(600,266,o),
(538,161,o),
(415,161,cs)
);
},
{
closed = 1;
nodes = (
(466,-260,o),
(504,-220,o),
(504,-171,cs),
(504,-121,o),
(466,-82,o),
(415,-82,cs),
(362,-82,o),
(326,-121,o),
(326,-171,cs),
(326,-220,o),
(362,-260,o),
(415,-260,cs)
);
}
);
width = 830;
},
{
layerId = "F1D6C389-2D1A-40EB-B71A-932DD4B59B34";
shapes = (
{
closed = 1;
nodes = (
(648,-10,o),
(771,181,o),
(771,371,cs),
(771,559,o),
(648,750,o),
(413,750,cs),
(178,750,o),
(55,559,o),
(55,371,cs),
(55,181,o),
(178,-10,o),
(413,-10,cs)
);
},
{
closed = 1;
nodes = (
(246,81,o),
(155,222,o),
(155,371,cs),
(155,518,o),
(246,659,o),
(413,659,cs),
(580,659,o),
(671,518,o),
(671,371,cs),
(671,222,o),
(580,81,o),
(413,81,cs)
);
},
{
closed = 1;
nodes = (
(450,-227,o),
(478,-198,o),
(478,-162,cs),
(478,-126,o),
(450,-97,o),
(413,-97,cs),
(375,-97,o),
(348,-126,o),
(348,-162,cs),
(348,-197,o),
(375,-227,o),
(413,-227,cs)
);
}
);
width = 826;
},
{
layerId = "C50750D9-3CEA-4BDB-8CD5-6DB84E6A41F9";
shapes = (
{
closed = 1;
nodes = (
(633,-10,o),
(752,181,o),
(752,370,cs),
(752,560,o),
(633,750,o),
(406,750,cs),
(179,750,o),
(60,560,o),
(60,370,cs),
(60,181,o),
(179,-10,o),
(406,-10,cs)
);
},
{
closed = 1;
nodes = (
(251,24,o),
(96,140,o),
(96,370,cs),
(96,601,o),
(251,716,o),
(406,716,cs),
(561,716,o),
(716,601,o),
(716,370,cs),
(716,140,o),
(561,24,o),
(406,24,cs)
);
},
{
closed = 1;
nodes = (
(426,-192,o),
(443,-175,o),
(443,-154,cs),
(443,-134,o),
(426,-117,o),
(405,-117,cs),
(384,-117,o),
(368,-134,o),
(368,-154,cs),
(368,-175,o),
(384,-192,o),
(405,-192,cs)
);
}
);
width = 812;
}
);
leftKerningGroup = O;
rightKerningGroup = O;
unicode = 7884;
},
{
glyphname = Ograve;
layers = (
{
layerId = "D43A2A6F-68E8-45C4-A912-BD747FE79F37";
shapes = (
{
closed = 1;
nodes = (
(671,-10,o),
(800,181,o),
(800,371,cs),
(800,559,o),
(671,750,o),
(415,750,cs),
(160,750,o),
(30,559,o),
(30,371,cs),
(30,181,o),
(160,-10,o),
(415,-10,cs)
);
},
{
closed = 1;
nodes = (
(292,161,o),
(231,266,o),
(231,371,cs),
(231,475,o),
(292,580,o),
(415,580,cs),
(538,580,o),
(600,475,o),
(600,371,cs),
(600,266,o),
(538,161,o),
(415,161,cs)
);
},
{
closed = 1;
nodes = (
(483,820,l),
(406,999,l),
(236,999,l),
(350,819,l)
);
}
);
width = 830;
},
{
layerId = "F1D6C389-2D1A-40EB-B71A-932DD4B59B34";
shapes = (
{
closed = 1;
nodes = (
(648,-10,o),
(771,181,o),
(771,371,cs),
(771,559,o),
(648,750,o),
(413,750,cs),
(178,750,o),
(55,559,o),
(55,371,cs),
(55,181,o),
(178,-10,o),
(413,-10,cs)
);
},
{
closed = 1;
nodes = (
(246,81,o),
(155,222,o),
(155,371,cs),
(155,518,o),
(246,659,o),
(413,659,cs),
(580,659,o),
(671,518,o),
(671,371,cs),
(671,222,o),
(580,81,o),
(413,81,cs)
);
},
{
closed = 1;
nodes = (
(458,831,l),
(372,1011,l),
(274,1011,l),
(377,830,l)
);
}
);
width = 826;
},
{
layerId = "C50750D9-3CEA-4BDB-8CD5-6DB84E6A41F9";
shapes = (
{
closed = 1;
nodes = (
(633,-10,o),
(752,181,o),
(752,370,cs),
(752,560,o),
(633,750,o),
(406,750,cs),
(179,750,o),
(60,560,o),
(60,370,cs),
(60,181,o),
(179,-10,o),
(406,-10,cs)
);
},
{
closed = 1;
nodes = (
(251,24,o),
(96,140,o),
(96,370,cs),
(96,601,o),
(251,716,o),
(406,716,cs),
(561,716,o),
(716,601,o),
(716,370,cs),
(716,140,o),
(561,24,o),
(406,24,cs)
);
},
{
closed = 1;
nodes = (
(420,838,l),
(335,990,l),
(294,990,l),
(386,838,l)
);
}
);
width = 812;
}
);
leftKerningGroup = O;
rightKerningGroup = O;
unicode = 210;
},
{
glyphname = Ohookabove;
layers = (
{
layerId = "D43A2A6F-68E8-45C4-A912-BD747FE79F37";
shapes = (
{
closed = 1;
nodes = (
(671,-10,o),
(800,181,o),
(800,371,cs),
(800,559,o),
(671,750,o),
(415,750,cs),
(160,750,o),
(30,559,o),
(30,371,cs),
(30,181,o),
(160,-10,o),
(415,-10,cs)
);
},
{
closed = 1;
nodes = (
(292,161,o),
(231,266,o),
(231,371,cs),
(231,475,o),
(292,580,o),
(415,580,cs),
(538,580,o),
(600,475,o),
(600,371,cs),
(600,266,o),
(538,161,o),
(415,161,cs)
);
},
{
closed = 1;
nodes = (
(467,805,l),
(467,876,l),
(429,811,l),
(472,835,ls),
(516,859,o),
(558,888,o),
(558,942,cs),
(558,1003,o),
(504,1056,o),
(416,1056,cs),
(318,1056,o),
(280,986,o),
(282,930,c),
(383,930,l),
(383,930,o),
(383,967,o),
(418,967,cs),
(437,967,o),
(450,954,o),
(450,938,cs),
(450,916,o),
(434,906,o),
(409,893,cs),
(393,885,ls),
(373,875,o),
(365,858,o),
(365,838,cs),
(365,805,l)
);
}
);
width = 830;
},
{
layerId = "F1D6C389-2D1A-40EB-B71A-932DD4B59B34";
shapes = (
{
closed = 1;
nodes = (
(648,-10,o),
(771,181,o),
(771,371,cs),
(771,559,o),
(648,750,o),
(413,750,cs),
(178,750,o),
(55,559,o),
(55,371,cs),
(55,181,o),
(178,-10,o),
(413,-10,cs)
);
},
{
closed = 1;
nodes = (
(246,81,o),
(155,222,o),
(155,371,cs),
(155,518,o),
(246,659,o),
(413,659,cs),
(580,659,o),
(671,518,o),
(671,371,cs),
(671,222,o),
(580,81,o),
(413,81,cs)
);
},
{
closed = 1;
nodes = (
(446,823,l),
(446,883,l),
(416,838,l),
(450,854,ls),
(506,881,o),
(530,913,o),
(530,951,cs),
(530,1002,o),
(486,1044,o),
(416,1044,cs),
(339,1044,o),
(305,992,o),
(306,943,c),
(372,943,l),
(372,954,o),
(377,986,o),
(417,986,cs),
(447,986,o),
(461,967,o),
(461,949,cs),
(461,930,o),
(447,914,o),
(415,898,cs),
(401,891,ls),
(385,883,o),
(381,868,o),
(381,855,cs),
(381,823,l)
);
}
);
width = 826;
},
{
layerId = "C50750D9-3CEA-4BDB-8CD5-6DB84E6A41F9";
shapes = (
{
closed = 1;
nodes = (
(633,-10,o),
(752,181,o),
(752,370,cs),
(752,560,o),
(633,750,o),
(406,750,cs),
(179,750,o),
(60,560,o),
(60,370,cs),
(60,181,o),
(179,-10,o),
(406,-10,cs)
);
},
{
closed = 1;
nodes = (
(251,24,o),
(96,140,o),
(96,370,cs),
(96,601,o),
(251,716,o),
(406,716,cs),
(561,716,o),
(716,601,o),
(716,370,cs),
(716,140,o),
(561,24,o),
(406,24,cs)
);
},
{
closed = 1;
nodes = (
(422,824,l),
(422,875,l),
(399,848,l),
(423,859,ls),
(478,884,o),
(496,914,o),
(496,944,cs),
(496,985,o),
(465,1015,o),
(414,1015,cs),
(363,1015,o),
(332,985,o),
(332,938,c),
(361,938,l),
(361,961,o),
(372,987,o),
(414,987,cs),
(453,987,o),
(466,963,o),
(466,943,cs),
(466,917,o),
(447,898,o),
(419,884,cs),
(407,878,ls),
(398,874,o),
(394,866,o),
(394,856,cs),
(394,824,l)
);
}
);
width = 812;
}
);
leftKerningGroup = O;
rightKerningGroup = O;
unicode = 7886;
},
{
glyphname = Ohorn;
layers = (
{
layerId = "D43A2A6F-68E8-45C4-A912-BD747FE79F37";
shapes = (
{
closed = 1;
nodes = (
(671,-10,o),
(800,181,o),
(800,371,cs),
(800,559,o),
(671,750,o),
(415,750,cs),
(160,750,o),
(30,559,o),
(30,371,cs),
(30,181,o),
(160,-10,o),
(415,-10,cs)
);
},
{
closed = 1;
nodes = (
(292,161,o),
(231,266,o),
(231,371,cs),
(231,475,o),
(292,580,o),
(415,580,cs),
(538,580,o),
(600,475,o),
(600,371,cs),
(600,266,o),
(538,161,o),
(415,161,cs)
);
},
{
closed = 1;
nodes = (
(631,867,l),
(631,811,ls),
(631,771,o),
(609,749,o),
(569,749,cs),
(415,749,l),
(415,652,l),
(647,652,ls),
(746,652,o),
(788,694,o),
(788,787,cs),
(788,867,l)
);
}
);
width = 830;
},
{
layerId = "F1D6C389-2D1A-40EB-B71A-932DD4B59B34";
shapes = (
{
closed = 1;
nodes = (
(648,-10,o),
(771,181,o),
(771,371,cs),
(771,559,o),
(648,750,o),
(413,750,cs),
(178,750,o),
(55,559,o),
(55,371,cs),
(55,181,o),
(178,-10,o),
(413,-10,cs)
);
},
{
closed = 1;
nodes = (
(246,81,o),
(155,222,o),
(155,371,cs),
(155,518,o),
(246,659,o),
(413,659,cs),
(580,659,o),
(671,518,o),
(671,371,cs),
(671,222,o),
(580,81,o),
(413,81,cs)
);
},
{
closed = 1;
nodes = (
(628,851,l),
(628,791,ls),
(628,764,o),
(614,750,o),
(589,750,cs),
(413,750,l),
(413,683,l),
(614,683,ls),
(687,683,o),
(719,723,o),
(719,791,cs),
(719,851,l)
);
}
);
width = 826;
},
{
layerId = "C50750D9-3CEA-4BDB-8CD5-6DB84E6A41F9";
shapes = (
{
closed = 1;
nodes = (
(633,-10,o),
(752,181,o),
(752,370,cs),
(752,560,o),
(633,750,o),
(406,750,cs),
(179,750,o),
(60,560,o),
(60,370,cs),
(60,181,o),
(179,-10,o),
(406,-10,cs)
);
},
{
closed = 1;
nodes = (
(251,24,o),
(96,140,o),
(96,370,cs),
(96,601,o),
(251,716,o),
(406,716,cs),
(561,716,o),
(716,601,o),
(716,370,cs),
(716,140,o),
(561,24,o),
(406,24,cs)
);
},
{
closed = 1;
nodes = (
(603,839,l),
(603,815,ls),
(603,773,o),
(581,749,o),
(540,749,cs),
(406,749,l),
(406,719,l),
(540,719,ls),
(603,719,o),
(636,754,o),
(636,815,cs),
(636,839,l)
);
}
);
width = 812;
}
);
leftKerningGroup = O;
rightKerningGroup = O;
unicode = 416;
},
{
glyphname = Ohornacute;
layers = (
{
layerId = "D43A2A6F-68E8-45C4-A912-BD747FE79F37";
shapes = (
{
closed = 1;
nodes = (
(671,-10,o),
(800,181,o),
(800,371,cs),
(800,559,o),
(671,750,o),
(415,750,cs),
(160,750,o),
(30,559,o),
(30,371,cs),
(30,181,o),
(160,-10,o),
(415,-10,cs)
);
},
{
closed = 1;
nodes = (
(292,161,o),
(231,266,o),
(231,371,cs),
(231,475,o),
(292,580,o),
(415,580,cs),
(538,580,o),
(600,475,o),
(600,371,cs),
(600,266,o),
(538,161,o),
(415,161,cs)
);
},
{
closed = 1;
nodes = (
(631,867,l),
(631,811,ls),
(631,771,o),
(609,749,o),
(569,749,cs),
(415,749,l),
(415,652,l),
(647,652,ls),
(746,652,o),
(788,694,o),
(788,787,cs),
(788,867,l)
);
},
{
closed = 1;
nodes = (
(587,989,l),
(417,989,l),
(340,810,l),
(473,809,l)
);
}
);
width = 830;
},
{
layerId = "F1D6C389-2D1A-40EB-B71A-932DD4B59B34";
shapes = (
{
closed = 1;
nodes = (
(648,-10,o),
(771,181,o),
(771,371,cs),
(771,559,o),
(648,750,o),
(413,750,cs),
(178,750,o),
(55,559,o),
(55,371,cs),
(55,181,o),
(178,-10,o),
(413,-10,cs)
);
},
{
closed = 1;
nodes = (
(246,81,o),
(155,222,o),
(155,371,cs),
(155,518,o),
(246,659,o),
(413,659,cs),
(580,659,o),
(671,518,o),
(671,371,cs),
(671,222,o),
(580,81,o),
(413,81,cs)
);
},
{
closed = 1;
nodes = (
(628,851,l),
(628,791,ls),
(628,764,o),
(614,750,o),
(589,750,cs),
(413,750,l),
(413,683,l),
(614,683,ls),
(687,683,o),
(719,723,o),
(719,791,cs),
(719,851,l)
);
},
{
closed = 1;
nodes = (
(556,1001,l),
(458,1001,l),
(372,821,l),
(453,820,l)
);
}
);
width = 826;
},
{
layerId = "C50750D9-3CEA-4BDB-8CD5-6DB84E6A41F9";
shapes = (
{
closed = 1;
nodes = (
(633,-10,o),
(752,181,o),
(752,370,cs),
(752,560,o),
(633,750,o),
(406,750,cs),
(179,750,o),
(60,560,o),
(60,370,cs),
(60,181,o),
(179,-10,o),
(406,-10,cs)
);
},
{
closed = 1;
nodes = (
(251,24,o),
(96,140,o),
(96,370,cs),
(96,601,o),
(251,716,o),
(406,716,cs),
(561,716,o),
(716,601,o),
(716,370,cs),
(716,140,o),
(561,24,o),
(406,24,cs)
);
},
{
closed = 1;
nodes = (
(603,839,l),
(603,815,ls),
(603,773,o),
(581,749,o),
(540,749,cs),
(406,749,l),
(406,719,l),
(540,719,ls),
(603,719,o),
(636,754,o),
(636,815,cs),
(636,839,l)
);
},
{
closed = 1;
nodes = (
(518,980,l),
(477,980,l),
(392,828,l),
(426,828,l)
);
}
);
width = 812;
}
);
leftKerningGroup = O;
rightKerningGroup = O;
unicode = 7898;
},
{
glyphname = Ohorndotbelow;
layers = (
{
layerId = "D43A2A6F-68E8-45C4-A912-BD747FE79F37";
shapes = (
{
closed = 1;
nodes = (
(671,-10,o),
(800,181,o),
(800,371,cs),
(800,559,o),
(671,750,o),
(415,750,cs),
(160,750,o),
(30,559,o),
(30,371,cs),
(30,181,o),
(160,-10,o),
(415,-10,cs)
);
},
{
closed = 1;
nodes = (
(292,161,o),
(231,266,o),
(231,371,cs),
(231,475,o),
(292,580,o),
(415,580,cs),
(538,580,o),
(600,475,o),
(600,371,cs),
(600,266,o),
(538,161,o),
(415,161,cs)
);
},
{
closed = 1;
nodes = (
(631,867,l),
(631,811,ls),
(631,771,o),
(609,749,o),
(569,749,cs),
(415,749,l),
(415,652,l),
(647,652,ls),
(746,652,o),
(788,694,o),
(788,787,cs),
(788,867,l)
);
},
{
closed = 1;
nodes = (
(456,-260,o),
(494,-220,o),
(494,-171,cs),
(494,-121,o),
(456,-82,o),
(405,-82,cs),
(352,-82,o),
(316,-121,o),
(316,-171,cs),
(316,-220,o),
(352,-260,o),
(405,-260,cs)
);
}
);
width = 830;
},
{
layerId = "F1D6C389-2D1A-40EB-B71A-932DD4B59B34";
shapes = (
{
closed = 1;
nodes = (
(648,-10,o),
(771,181,o),
(771,371,cs),
(771,559,o),
(648,750,o),
(413,750,cs),
(178,750,o),
(55,559,o),
(55,371,cs),
(55,181,o),
(178,-10,o),
(413,-10,cs)
);
},
{
closed = 1;
nodes = (
(246,81,o),
(155,222,o),
(155,371,cs),
(155,518,o),
(246,659,o),
(413,659,cs),
(580,659,o),
(671,518,o),
(671,371,cs),
(671,222,o),
(580,81,o),
(413,81,cs)
);
},
{
closed = 1;
nodes = (
(628,851,l),
(628,791,ls),
(628,764,o),
(614,750,o),
(589,750,cs),
(413,750,l),
(413,683,l),
(614,683,ls),
(687,683,o),
(719,723,o),
(719,791,cs),
(719,851,l)
);
},
{
closed = 1;
nodes = (
(450,-227,o),
(478,-198,o),
(478,-162,cs),
(478,-126,o),
(450,-97,o),
(413,-97,cs),
(375,-97,o),
(348,-126,o),
(348,-162,cs),
(348,-197,o),
(375,-227,o),
(413,-227,cs)
);
}
);
width = 826;
},
{
layerId = "C50750D9-3CEA-4BDB-8CD5-6DB84E6A41F9";
shapes = (
{
closed = 1;
nodes = (
(633,-10,o),
(752,181,o),
(752,370,cs),
(752,560,o),
(633,750,o),
(406,750,cs),
(179,750,o),
(60,560,o),
(60,370,cs),
(60,181,o),
(179,-10,o),
(406,-10,cs)
);
},
{
closed = 1;
nodes = (
(251,24,o),
(96,140,o),
(96,370,cs),
(96,601,o),
(251,716,o),
(406,716,cs),
(561,716,o),
(716,601,o),
(716,370,cs),
(716,140,o),
(561,24,o),
(406,24,cs)
);
},
{
closed = 1;
nodes = (
(603,839,l),
(603,815,ls),
(603,773,o),
(581,749,o),
(540,749,cs),
(406,749,l),
(406,719,l),
(540,719,ls),
(603,719,o),
(636,754,o),
(636,815,cs),
(636,839,l)
);
},
{
closed = 1;
nodes = (
(424,-192,o),
(441,-175,o),
(441,-154,cs),
(441,-134,o),
(424,-117,o),
(403,-117,cs),
(382,-117,o),
(366,-134,o),
(366,-154,cs),
(366,-175,o),
(382,-192,o),
(403,-192,cs)
);
}
);
width = 812;
}
);
leftKerningGroup = O;
rightKerningGroup = O;
unicode = 7906;
},
{
glyphname = Ohorngrave;
layers = (
{
layerId = "D43A2A6F-68E8-45C4-A912-BD747FE79F37";
shapes = (
{
closed = 1;
nodes = (
(671,-10,o),
(800,181,o),
(800,371,cs),
(800,559,o),
(671,750,o),
(415,750,cs),
(160,750,o),
(30,559,o),
(30,371,cs),
(30,181,o),
(160,-10,o),
(415,-10,cs)
);
},
{
closed = 1;
nodes = (
(292,161,o),
(231,266,o),
(231,371,cs),
(231,475,o),
(292,580,o),
(415,580,cs),
(538,580,o),
(600,475,o),
(600,371,cs),
(600,266,o),
(538,161,o),
(415,161,cs)
);
},
{
closed = 1;
nodes = (
(631,867,l),
(631,811,ls),
(631,771,o),
(609,749,o),
(569,749,cs),
(415,749,l),
(415,652,l),
(647,652,ls),
(746,652,o),
(788,694,o),
(788,787,cs),
(788,867,l)
);
},
{
closed = 1;
nodes = (
(473,810,l),
(396,989,l),
(226,989,l),
(340,809,l)
);
}
);
width = 830;
},
{
layerId = "F1D6C389-2D1A-40EB-B71A-932DD4B59B34";
shapes = (
{
closed = 1;
nodes = (
(648,-10,o),
(771,181,o),
(771,371,cs),
(771,559,o),
(648,750,o),
(413,750,cs),
(178,750,o),
(55,559,o),
(55,371,cs),
(55,181,o),
(178,-10,o),
(413,-10,cs)
);
},
{
closed = 1;
nodes = (
(246,81,o),
(155,222,o),
(155,371,cs),
(155,518,o),
(246,659,o),
(413,659,cs),
(580,659,o),
(671,518,o),
(671,371,cs),
(671,222,o),
(580,81,o),
(413,81,cs)
);
},
{
closed = 1;
nodes = (
(628,851,l),
(628,791,ls),
(628,764,o),
(614,750,o),
(589,750,cs),
(413,750,l),
(413,683,l),
(614,683,ls),
(687,683,o),
(719,723,o),
(719,791,cs),
(719,851,l)
);
},
{
closed = 1;
nodes = (
(458,821,l),
(372,1001,l),
(274,1001,l),
(377,820,l)
);
}
);
width = 826;
},
{
layerId = "C50750D9-3CEA-4BDB-8CD5-6DB84E6A41F9";
shapes = (
{
closed = 1;
nodes = (
(633,-10,o),
(752,181,o),
(752,370,cs),
(752,560,o),
(633,750,o),
(406,750,cs),
(179,750,o),
(60,560,o),
(60,370,cs),
(60,181,o),
(179,-10,o),
(406,-10,cs)
);
},
{
closed = 1;
nodes = (
(251,24,o),
(96,140,o),
(96,370,cs),
(96,601,o),
(251,716,o),
(406,716,cs),
(561,716,o),
(716,601,o),
(716,370,cs),
(716,140,o),
(561,24,o),
(406,24,cs)
);
},
{
closed = 1;
nodes = (
(603,839,l),
(603,815,ls),
(603,773,o),
(581,749,o),
(540,749,cs),
(406,749,l),
(406,719,l),
(540,719,ls),
(603,719,o),
(636,754,o),
(636,815,cs),
(636,839,l)
);
},
{
closed = 1;
nodes = (
(418,828,l),
(333,980,l),
(292,980,l),
(384,828,l)
);
}
);
width = 812;
}
);
leftKerningGroup = O;
rightKerningGroup = O;
unicode = 7900;
},
{
glyphname = Ohornhookabove;
layers = (
{
layerId = "D43A2A6F-68E8-45C4-A912-BD747FE79F37";
shapes = (
{
closed = 1;
nodes = (
(671,-10,o),
(800,181,o),
(800,371,cs),
(800,559,o),
(671,750,o),
(415,750,cs),
(160,750,o),
(30,559,o),
(30,371,cs),
(30,181,o),
(160,-10,o),
(415,-10,cs)
);
},
{
closed = 1;
nodes = (
(292,161,o),
(231,266,o),
(231,371,cs),
(231,475,o),
(292,580,o),
(415,580,cs),
(538,580,o),
(600,475,o),
(600,371,cs),
(600,266,o),
(538,161,o),
(415,161,cs)
);
},
{
closed = 1;
nodes = (
(631,867,l),
(631,811,ls),
(631,771,o),
(609,749,o),
(569,749,cs),
(415,749,l),
(415,652,l),
(647,652,ls),
(746,652,o),
(788,694,o),
(788,787,cs),
(788,867,l)
);
},
{
closed = 1;
nodes = (
(457,795,l),
(457,866,l),
(419,801,l),
(462,825,ls),
(506,849,o),
(548,878,o),
(548,932,cs),
(548,993,o),
(494,1046,o),
(406,1046,cs),
(308,1046,o),
(270,976,o),
(272,920,c),
(373,920,l),
(373,920,o),
(373,957,o),
(408,957,cs),
(427,957,o),
(440,944,o),
(440,928,cs),
(440,906,o),
(424,896,o),
(399,883,cs),
(383,875,ls),
(363,865,o),
(355,848,o),
(355,828,cs),
(355,795,l)
);
}
);
width = 830;
},
{
layerId = "F1D6C389-2D1A-40EB-B71A-932DD4B59B34";
shapes = (
{
closed = 1;
nodes = (
(648,-10,o),
(771,181,o),
(771,371,cs),
(771,559,o),
(648,750,o),
(413,750,cs),
(178,750,o),
(55,559,o),
(55,371,cs),
(55,181,o),
(178,-10,o),
(413,-10,cs)
);
},
{
closed = 1;
nodes = (
(246,81,o),
(155,222,o),
(155,371,cs),
(155,518,o),
(246,659,o),
(413,659,cs),
(580,659,o),
(671,518,o),
(671,371,cs),
(671,222,o),
(580,81,o),
(413,81,cs)
);
},
{
closed = 1;
nodes = (
(628,851,l),
(628,791,ls),
(628,764,o),
(614,750,o),
(589,750,cs),
(413,750,l),
(413,683,l),
(614,683,ls),
(687,683,o),
(719,723,o),
(719,791,cs),
(719,851,l)
);
},
{
closed = 1;
nodes = (
(446,813,l),
(446,873,l),
(416,828,l),
(450,844,ls),
(506,871,o),
(530,903,o),
(530,941,cs),
(530,992,o),
(486,1034,o),
(416,1034,cs),
(339,1034,o),
(305,982,o),
(306,933,c),
(372,933,l),
(372,944,o),
(377,976,o),
(417,976,cs),
(447,976,o),
(461,957,o),
(461,939,cs),
(461,920,o),
(447,904,o),
(415,888,cs),
(401,881,ls),
(385,873,o),
(381,858,o),
(381,845,cs),
(381,813,l)
);
}
);
width = 826;
},
{
layerId = "C50750D9-3CEA-4BDB-8CD5-6DB84E6A41F9";
shapes = (
{
closed = 1;
nodes = (
(633,-10,o),
(752,181,o),
(752,370,cs),
(752,560,o),
(633,750,o),
(406,750,cs),
(179,750,o),
(60,560,o),
(60,370,cs),
(60,181,o),
(179,-10,o),
(406,-10,cs)
);
},
{
closed = 1;
nodes = (
(251,24,o),
(96,140,o),
(96,370,cs),
(96,601,o),
(251,716,o),
(406,716,cs),
(561,716,o),
(716,601,o),
(716,370,cs),
(716,140,o),
(561,24,o),
(406,24,cs)
);
},
{
closed = 1;
nodes = (
(603,839,l),
(603,815,ls),
(603,773,o),
(581,749,o),
(540,749,cs),
(406,749,l),
(406,719,l),
(540,719,ls),
(603,719,o),
(636,754,o),
(636,815,cs),
(636,839,l)
);
},
{
closed = 1;
nodes = (
(420,814,l),
(420,865,l),
(397,838,l),
(421,849,ls),
(476,874,o),
(494,904,o),
(494,934,cs),
(494,975,o),
(463,1005,o),
(412,1005,cs),
(361,1005,o),
(330,975,o),
(330,928,c),
(359,928,l),
(359,951,o),
(370,977,o),
(412,977,cs),
(451,977,o),
(464,953,o),
(464,933,cs),
(464,907,o),
(445,888,o),
(417,874,cs),
(405,868,ls),
(396,864,o),
(392,856,o),
(392,846,cs),
(392,814,l)
);
}
);
width = 812;
}
);
leftKerningGroup = O;
rightKerningGroup = O;
unicode = 7902;
},
{
glyphname = Ohorntilde;
layers = (
{
layerId = "D43A2A6F-68E8-45C4-A912-BD747FE79F37";
shapes = (
{
closed = 1;
nodes = (
(671,-10,o),
(800,181,o),
(800,371,cs),
(800,559,o),
(671,750,o),
(415,750,cs),
(160,750,o),
(30,559,o),
(30,371,cs),
(30,181,o),
(160,-10,o),
(415,-10,cs)
);
},
{
closed = 1;
nodes = (
(292,161,o),
(231,266,o),
(231,371,cs),
(231,475,o),
(292,580,o),
(415,580,cs),
(538,580,o),
(600,475,o),
(600,371,cs),
(600,266,o),
(538,161,o),
(415,161,cs)
);
},
{
closed = 1;
nodes = (
(631,867,l),
(631,811,ls),
(631,771,o),
(609,749,o),
(569,749,cs),
(415,749,l),
(415,652,l),
(647,652,ls),
(746,652,o),
(788,694,o),
(788,787,cs),
(788,867,l)
);
},
{
closed = 1;
nodes = (
(574,822,o),
(591,912,o),
(591,981,c),
(498,981,l),
(498,947,o),
(492,928,o),
(473,928,cs),
(439,928,o),
(407,987,o),
(334,987,cs),
(243,987,o),
(226,897,o),
(226,828,c),
(319,828,l),
(319,862,o),
(325,881,o),
(345,881,cs),
(381,881,o),
(410,822,o),
(483,822,cs)
);
}
);
width = 830;
},
{
layerId = "F1D6C389-2D1A-40EB-B71A-932DD4B59B34";
shapes = (
{
closed = 1;
nodes = (
(648,-10,o),
(771,181,o),
(771,371,cs),
(771,559,o),
(648,750,o),
(413,750,cs),
(178,750,o),
(55,559,o),
(55,371,cs),
(55,181,o),
(178,-10,o),
(413,-10,cs)
);
},
{
closed = 1;
nodes = (
(246,81,o),
(155,222,o),
(155,371,cs),
(155,518,o),
(246,659,o),
(413,659,cs),
(580,659,o),
(671,518,o),
(671,371,cs),
(671,222,o),
(580,81,o),
(413,81,cs)
);
},
{
closed = 1;
nodes = (
(628,851,l),
(628,791,ls),
(628,764,o),
(614,750,o),
(589,750,cs),
(413,750,l),
(413,683,l),
(614,683,ls),
(687,683,o),
(719,723,o),
(719,791,cs),
(719,851,l)
);
},
{
closed = 1;
nodes = (
(551,827,o),
(570,895,o),
(570,957,c),
(506,957,l),
(506,920,o),
(496,897,o),
(475,897,cs),
(439,897,o),
(419,962,o),
(346,962,cs),
(275,962,o),
(256,895,o),
(256,833,c),
(320,833,l),
(320,869,o),
(329,893,o),
(352,893,cs),
(389,893,o),
(409,827,o),
(481,827,cs)
);
}
);
width = 826;
},
{
layerId = "C50750D9-3CEA-4BDB-8CD5-6DB84E6A41F9";
shapes = (
{
closed = 1;
nodes = (
(633,-10,o),
(752,181,o),
(752,370,cs),
(752,560,o),
(633,750,o),
(406,750,cs),
(179,750,o),
(60,560,o),
(60,370,cs),
(60,181,o),
(179,-10,o),
(406,-10,cs)
);
},
{
closed = 1;
nodes = (
(251,24,o),
(96,140,o),
(96,370,cs),
(96,601,o),
(251,716,o),
(406,716,cs),
(561,716,o),
(716,601,o),
(716,370,cs),
(716,140,o),
(561,24,o),
(406,24,cs)
);
},
{
closed = 1;
nodes = (
(603,839,l),
(603,815,ls),
(603,773,o),
(581,749,o),
(540,749,cs),
(406,749,l),
(406,719,l),
(540,719,ls),
(603,719,o),
(636,754,o),
(636,815,cs),
(636,839,l)
);
},
{
closed = 1;
nodes = (
(509,831,o),
(529,878,o),
(529,936,c),
(499,936,l),
(499,889,o),
(489,860,o),
(464,860,cs),
(424,860,o),
(410,941,o),
(346,941,cs),
(299,941,o),
(280,894,o),
(280,836,c),
(310,836,l),
(310,884,o),
(320,912,o),
(346,912,cs),
(389,912,o),
(404,831,o),
(464,831,cs)
);
}
);
width = 812;
}
);
leftKerningGroup = O;
rightKerningGroup = O;
unicode = 7904;
},
{
glyphname = Ohungarumlaut;
layers = (
{
layerId = "D43A2A6F-68E8-45C4-A912-BD747FE79F37";
shapes = (
{
closed = 1;
nodes = (
(671,-10,o),
(800,181,o),
(800,371,cs),
(800,559,o),
(671,750,o),
(415,750,cs),
(160,750,o),
(30,559,o),
(30,371,cs),
(30,181,o),
(160,-10,o),
(415,-10,cs)
);
},
{
closed = 1;
nodes = (
(292,161,o),
(231,266,o),
(231,371,cs),
(231,475,o),
(292,580,o),
(415,580,cs),
(538,580,o),
(600,475,o),
(600,371,cs),
(600,266,o),
(538,161,o),
(415,161,cs)
);
},
{
closed = 1;
nodes = (
(458,999,l),
(298,999,l),
(251,820,l),
(374,819,l)
);
},
{
closed = 1;
nodes = (
(659,999,l),
(499,999,l),
(452,820,l),
(575,819,l)
);
}
);
width = 830;
},
{
layerId = "F1D6C389-2D1A-40EB-B71A-932DD4B59B34";
shapes = (
{
closed = 1;
nodes = (
(648,-10,o),
(771,181,o),
(771,371,cs),
(771,559,o),
(648,750,o),
(413,750,cs),
(178,750,o),
(55,559,o),
(55,371,cs),
(55,181,o),
(178,-10,o),
(413,-10,cs)
);
},
{
closed = 1;
nodes = (
(246,81,o),
(155,222,o),
(155,371,cs),
(155,518,o),
(246,659,o),
(413,659,cs),
(580,659,o),
(671,518,o),
(671,371,cs),
(671,222,o),
(580,81,o),
(413,81,cs)
);
},
{
closed = 1;
nodes = (
(434,1011,l),
(336,1011,l),
(290,831,l),
(371,830,l)
);
},
{
closed = 1;
nodes = (
(596,1011,l),
(498,1011,l),
(452,831,l),
(533,830,l)
);
}
);
width = 826;
},
{
layerId = "C50750D9-3CEA-4BDB-8CD5-6DB84E6A41F9";
shapes = (
{
closed = 1;
nodes = (
(633,-10,o),
(752,181,o),
(752,370,cs),
(752,560,o),
(633,750,o),
(406,750,cs),
(179,750,o),
(60,560,o),
(60,370,cs),
(60,181,o),
(179,-10,o),
(406,-10,cs)
);
},
{
closed = 1;
nodes = (
(251,24,o),
(96,140,o),
(96,370,cs),
(96,601,o),
(251,716,o),
(406,716,cs),
(561,716,o),
(716,601,o),
(716,370,cs),
(716,140,o),
(561,24,o),
(406,24,cs)
);
},
{
closed = 1;
nodes = (
(425,990,l),
(384,990,l),
(329,838,l),
(363,838,l)
);
},
{
closed = 1;
nodes = (
(543,990,l),
(502,990,l),
(447,838,l),
(481,838,l)
);
}
);
width = 812;
}
);
leftKerningGroup = O;
rightKerningGroup = O;
unicode = 336;
},
{
glyphname = Omacron;
layers = (
{
layerId = "D43A2A6F-68E8-45C4-A912-BD747FE79F37";
shapes = (
{
closed = 1;
nodes = (
(671,-10,o),
(800,181,o),
(800,371,cs),
(800,559,o),
(671,750,o),
(415,750,cs),
(160,750,o),
(30,559,o),
(30,371,cs),
(30,181,o),
(160,-10,o),
(415,-10,cs)
);
},
{
closed = 1;
nodes = (
(292,161,o),
(231,266,o),
(231,371,cs),
(231,475,o),
(292,580,o),
(415,580,cs),
(538,580,o),
(600,475,o),
(600,371,cs),
(600,266,o),
(538,161,o),
(415,161,cs)
);
},
{
closed = 1;
nodes = (
(585,828,l),
(585,930,l),
(245,930,l),
(245,828,l)
);
}
);
width = 830;
},
{
layerId = "F1D6C389-2D1A-40EB-B71A-932DD4B59B34";
shapes = (
{
closed = 1;
nodes = (
(648,-10,o),
(771,181,o),
(771,371,cs),
(771,559,o),
(648,750,o),
(413,750,cs),
(178,750,o),
(55,559,o),
(55,371,cs),
(55,181,o),
(178,-10,o),
(413,-10,cs)
);
},
{
closed = 1;
nodes = (
(246,81,o),
(155,222,o),
(155,371,cs),
(155,518,o),
(246,659,o),
(413,659,cs),
(580,659,o),
(671,518,o),
(671,371,cs),
(671,222,o),
(580,81,o),
(413,81,cs)
);
},
{
closed = 1;
nodes = (
(565,846,l),
(565,918,l),
(261,918,l),
(261,846,l)
);
}
);
width = 826;
},
{
layerId = "C50750D9-3CEA-4BDB-8CD5-6DB84E6A41F9";
shapes = (
{
closed = 1;
nodes = (
(633,-10,o),
(752,181,o),
(752,370,cs),
(752,560,o),
(633,750,o),
(406,750,cs),
(179,750,o),
(60,560,o),
(60,370,cs),
(60,181,o),
(179,-10,o),
(406,-10,cs)
);
},
{
closed = 1;
nodes = (
(251,24,o),
(96,140,o),
(96,370,cs),
(96,601,o),
(251,716,o),
(406,716,cs),
(561,716,o),
(716,601,o),
(716,370,cs),
(716,140,o),
(561,24,o),
(406,24,cs)
);
},
{
closed = 1;
nodes = (
(546,858,l),
(546,888,l),
(266,888,l),
(266,858,l)
);
}
);
width = 812;
}
);
leftKerningGroup = O;
rightKerningGroup = O;
unicode = 332;
},
{
glyphname = Oslash;
leftMetricsKey = O;
rightMetricsKey = O;
layers = (
{
layerId = "D43A2A6F-68E8-45C4-A912-BD747FE79F37";
shapes = (
{
closed = 1;
nodes = (
(248,-24,l),
(752,763,l),
(581,763,l),
(77,-24,l)
);
},
{
closed = 1;
nodes = (
(671,-10,o),
(800,181,o),
(800,371,cs),
(800,559,o),
(671,750,o),
(415,750,cs),
(160,750,o),
(30,559,o),
(30,371,cs),
(30,181,o),
(160,-10,o),
(415,-10,cs)
);
},
{
closed = 1;
nodes = (
(292,161,o),
(231,266,o),
(231,371,cs),
(231,475,o),
(292,580,o),
(415,580,cs),
(538,580,o),
(600,475,o),
(600,371,cs),
(600,266,o),
(538,161,o),
(415,161,cs)
);
}
);
width = 830;
},
{
layerId = "F1D6C389-2D1A-40EB-B71A-932DD4B59B34";
shapes = (
{
closed = 1;
nodes = (
(214,-24,l),
(718,763,l),
(611,763,l),
(107,-24,l)
);
},
{
closed = 1;
nodes = (
(648,-10,o),
(771,181,o),
(771,371,cs),
(771,559,o),
(648,750,o),
(413,750,cs),
(178,750,o),
(55,559,o),
(55,371,cs),
(55,181,o),
(178,-10,o),
(413,-10,cs)
);
},
{
closed = 1;
nodes = (
(246,81,o),
(155,222,o),
(155,371,cs),
(155,518,o),
(246,659,o),
(413,659,cs),
(580,659,o),
(671,518,o),
(671,371,cs),
(671,222,o),
(580,81,o),
(413,81,cs)
);
}
);
width = 826;
},
{
layerId = "C50750D9-3CEA-4BDB-8CD5-6DB84E6A41F9";
shapes = (
{
closed = 1;
nodes = (
(170,-23,l),
(674,764,l),
(637,764,l),
(133,-23,l)
);
},
{
closed = 1;
nodes = (
(633,-10,o),
(752,181,o),
(752,370,cs),
(752,560,o),
(633,750,o),
(406,750,cs),
(179,750,o),
(60,560,o),
(60,370,cs),
(60,181,o),
(179,-10,o),
(406,-10,cs)
);
},
{
closed = 1;
nodes = (
(251,24,o),
(96,140,o),
(96,370,cs),
(96,601,o),
(251,716,o),
(406,716,cs),
(561,716,o),
(716,601,o),
(716,370,cs),
(716,140,o),
(561,24,o),
(406,24,cs)
);
}
);
width = 812;
}
);
leftKerningGroup = O;
rightKerningGroup = O;
unicode = 216;
},
{
glyphname = Otilde;
layers = (
{
layerId = "D43A2A6F-68E8-45C4-A912-BD747FE79F37";
shapes = (
{
closed = 1;
nodes = (
(671,-10,o),
(800,181,o),
(800,371,cs),
(800,559,o),
(671,750,o),
(415,750,cs),
(160,750,o),
(30,559,o),
(30,371,cs),
(30,181,o),
(160,-10,o),
(415,-10,cs)
);
},
{
closed = 1;
nodes = (
(292,161,o),
(231,266,o),
(231,371,cs),
(231,475,o),
(292,580,o),
(415,580,cs),
(538,580,o),
(600,475,o),
(600,371,cs),
(600,266,o),
(538,161,o),
(415,161,cs)
);
},
{
closed = 1;
nodes = (
(584,832,o),
(601,922,o),
(601,991,c),
(508,991,l),
(508,957,o),
(502,938,o),
(483,938,cs),
(449,938,o),
(417,997,o),
(344,997,cs),
(253,997,o),
(236,907,o),
(236,838,c),
(329,838,l),
(329,872,o),
(335,891,o),
(355,891,cs),
(391,891,o),
(420,832,o),
(493,832,cs)
);
}
);
width = 830;
},
{
layerId = "F1D6C389-2D1A-40EB-B71A-932DD4B59B34";
shapes = (
{
closed = 1;
nodes = (
(648,-10,o),
(771,181,o),
(771,371,cs),
(771,559,o),
(648,750,o),
(413,750,cs),
(178,750,o),
(55,559,o),
(55,371,cs),
(55,181,o),
(178,-10,o),
(413,-10,cs)
);
},
{
closed = 1;
nodes = (
(246,81,o),
(155,222,o),
(155,371,cs),
(155,518,o),
(246,659,o),
(413,659,cs),
(580,659,o),
(671,518,o),
(671,371,cs),
(671,222,o),
(580,81,o),
(413,81,cs)
);
},
{
closed = 1;
nodes = (
(551,837,o),
(570,905,o),
(570,967,c),
(506,967,l),
(506,930,o),
(496,907,o),
(475,907,cs),
(439,907,o),
(419,972,o),
(346,972,cs),
(275,972,o),
(256,905,o),
(256,843,c),
(320,843,l),
(320,879,o),
(329,903,o),
(352,903,cs),
(389,903,o),
(409,837,o),
(481,837,cs)
);
}
);
width = 826;
},
{
layerId = "C50750D9-3CEA-4BDB-8CD5-6DB84E6A41F9";
shapes = (
{
closed = 1;
nodes = (
(633,-10,o),
(752,181,o),
(752,370,cs),
(752,560,o),
(633,750,o),
(406,750,cs),
(179,750,o),
(60,560,o),
(60,370,cs),
(60,181,o),
(179,-10,o),
(406,-10,cs)
);
},
{
closed = 1;
nodes = (
(251,24,o),
(96,140,o),
(96,370,cs),
(96,601,o),
(251,716,o),
(406,716,cs),
(561,716,o),
(716,601,o),
(716,370,cs),
(716,140,o),
(561,24,o),
(406,24,cs)
);
},
{
closed = 1;
nodes = (
(511,841,o),
(531,888,o),
(531,946,c),
(501,946,l),
(501,899,o),
(491,870,o),
(466,870,cs),
(426,870,o),
(412,951,o),
(348,951,cs),
(301,951,o),
(282,904,o),
(282,846,c),
(312,846,l),
(312,894,o),
(322,922,o),
(348,922,cs),
(391,922,o),
(406,841,o),
(466,841,cs)
);
}
);
width = 812;
}
);
leftKerningGroup = O;
rightKerningGroup = O;
unicode = 213;
},
{
glyphname = OE;
leftMetricsKey = O;
rightMetricsKey = E;
layers = (
{
layerId = "D43A2A6F-68E8-45C4-A912-BD747FE79F37";
shapes = (
{
closed = 1;
nodes = (
(429,740,ls),
(154,740,o),
(30,555,o),
(30,370,cs),
(30,185,o),
(154,0,o),
(429,0,cs),
(1015,0,l),
(1015,166,l),
(666,166,l),
(666,296,l),
(965,296,l),
(965,454,l),
(666,454,l),
(666,574,l),
(1010,574,l),
(1010,740,l)
);
},
{
closed = 1;
nodes = (
(223,468,o),
(280,569,o),
(429,569,cs),
(474,569,l),
(474,168,l),
(429,168,ls),
(280,168,o),
(223,269,o),
(223,368,cs)
);
}
);
width = 1070;
},
{
layerId = "F1D6C389-2D1A-40EB-B71A-932DD4B59B34";
shapes = (
{
closed = 1;
nodes = (
(428,740,ls),
(172,740,o),
(55,555,o),
(55,370,cs),
(55,185,o),
(172,0,o),
(428,0,cs),
(935,0,l),
(935,86,l),
(568,86,l),
(568,334,l),
(884,334,l),
(884,420,l),
(568,420,l),
(568,654,l),
(930,654,l),
(930,740,l)
);
},
{
closed = 1;
nodes = (
(153,512,o),
(239,654,o),
(432,654,cs),
(470,654,l),
(470,86,l),
(432,86,ls),
(239,86,o),
(153,228,o),
(153,370,cs)
);
}
);
width = 1000;
},
{
layerId = "C50750D9-3CEA-4BDB-8CD5-6DB84E6A41F9";
shapes = (
{
closed = 1;
nodes = (
(435,740,ls),
(174,740,o),
(60,555,o),
(60,370,cs),
(60,185,o),
(174,0,o),
(435,0,cs),
(886,0,l),
(886,34,l),
(498,34,l),
(498,362,l),
(831,362,l),
(831,396,l),
(498,396,l),
(498,706,l),
(880,706,l),
(880,740,l)
);
},
{
closed = 1;
nodes = (
(96,538,o),
(199,706,o),
(435,706,cs),
(463,706,l),
(463,34,l),
(435,34,ls),
(199,34,o),
(96,202,o),
(96,370,cs)
);
}
);
width = 961;
}
);
leftKerningGroup = O;
rightKerningGroup = E;
unicode = 338;
},
{
glyphname = P;
leftMetricsKey = l;
layers = (
{
layerId = "D43A2A6F-68E8-45C4-A912-BD747FE79F37";
shapes = (
{
closed = 1;
nodes = (
(393,239,ls),
(583,239,o),
(677,364,o),
(677,490,cs),
(677,615,o),
(583,740,o),
(393,740,cs),
(202,740,l),
(202,573,l),
(392,573,ls),
(453,573,o),
(483,531,o),
(483,489,cs),
(483,447,o),
(453,405,o),
(392,405,cs),
(202,405,l),
(202,239,l)
);
},
{
closed = 1;
nodes = (
(252,0,l),
(252,740,l),
(60,740,l),
(60,0,l)
);
}
);
width = 702;
},
{
layerId = "F1D6C389-2D1A-40EB-B71A-932DD4B59B34";
shapes = (
{
closed = 1;
nodes = (
(354,256,ls),
(524,256,o),
(609,377,o),
(609,499,cs),
(609,619,o),
(524,740,o),
(354,740,cs),
(138,740,l),
(138,654,l),
(354,654,ls),
(459,654,o),
(512,576,o),
(512,498,cs),
(512,420,o),
(459,342,o),
(354,342,cs),
(138,342,l),
(138,256,l)
);
},
{
closed = 1;
nodes = (
(188,0,l),
(188,740,l),
(90,740,l),
(90,0,l)
);
}
);
width = 654;
},
{
layerId = "C50750D9-3CEA-4BDB-8CD5-6DB84E6A41F9";
shapes = (
{
closed = 1;
nodes = (
(335,292,ls),
(488,292,o),
(566,404,o),
(566,516,cs),
(566,628,o),
(488,740,o),
(335,740,cs),
(109,740,l),
(109,706,l),
(335,706,ls),
(466,706,o),
(531,611,o),
(531,516,cs),
(531,421,o),
(466,326,o),
(335,326,cs),
(109,326,l),
(109,292,l)
);
},
{
closed = 1;
nodes = (
(125,0,l),
(125,740,l),
(90,740,l),
(90,0,l)
);
}
);
width = 606;
}
);
leftKerningGroup = l;
unicode = 80;
},
{
glyphname = Thorn;
leftMetricsKey = P;
rightMetricsKey = P;
layers = (
{
layerId = "D43A2A6F-68E8-45C4-A912-BD747FE79F37";
shapes = (
{
closed = 1;
nodes = (
(393,119,ls),
(583,119,o),
(677,244,o),
(677,370,cs),
(677,495,o),
(583,620,o),
(393,620,cs),
(202,620,l),
(202,453,l),
(392,453,ls),
(453,453,o),
(483,411,o),
(483,369,cs),
(483,327,o),
(453,285,o),
(392,285,cs),
(202,285,l),
(202,119,l)
);
},
{
closed = 1;
nodes = (
(252,0,l),
(252,740,l),
(60,740,l),
(60,0,l)
);
}
);
width = 702;
},
{
layerId = "F1D6C389-2D1A-40EB-B71A-932DD4B59B34";
shapes = (
{
closed = 1;
nodes = (
(354,128,ls),
(524,128,o),
(609,249,o),
(609,371,cs),
(609,491,o),
(524,612,o),
(354,612,cs),
(138,612,l),
(138,526,l),
(354,526,ls),
(459,526,o),
(512,448,o),
(512,370,cs),
(512,292,o),
(459,214,o),
(354,214,cs),
(138,214,l),
(138,128,l)
);
},
{
closed = 1;
nodes = (
(188,0,l),
(188,740,l),
(90,740,l),
(90,0,l)
);
}
);
width = 654;
},
{
layerId = "C50750D9-3CEA-4BDB-8CD5-6DB84E6A41F9";
shapes = (
{
closed = 1;
nodes = (
(335,146,ls),
(488,146,o),
(566,258,o),
(566,370,cs),
(566,482,o),
(488,594,o),
(335,594,cs),
(109,594,l),
(109,560,l),
(335,560,ls),
(466,560,o),
(531,465,o),
(531,370,cs),
(531,275,o),
(466,180,o),
(335,180,cs),
(109,180,l),
(109,146,l)
);
},
{
closed = 1;
nodes = (
(125,0,l),
(125,740,l),
(90,740,l),
(90,0,l)
);
}
);
width = 606;
}
);
leftKerningGroup = l;
rightKerningGroup = P;
unicode = 222;
},
{
glyphname = Q;
layers = (
{
layerId = "D43A2A6F-68E8-45C4-A912-BD747FE79F37";
shapes = (
{
closed = 1;
nodes = (
(690,-93,l),
(799,0,l),
(700,117,l),
(760,189,o),
(790,279,o),
(790,371,cs),
(790,560,o),
(661,749,o),
(405,749,cs),
(150,749,o),
(20,560,o),
(20,371,cs),
(20,182,o),
(150,-10,o),
(405,-10,cs),
(474,-10,o),
(532,4,o),
(584,27,c)
);
},
{
closed = 1;
nodes = (
(462,169,l),
(443,164,o),
(424,161,o),
(405,161,cs),
(282,161,o),
(221,266,o),
(221,371,cs),
(221,475,o),
(282,580,o),
(405,580,cs),
(528,580,o),
(590,475,o),
(590,371,cs),
(590,337,o),
(583,304,o),
(570,272,c),
(471,390,l),
(353,296,l)
);
}
);
width = 809;
},
{
layerId = "F1D6C389-2D1A-40EB-B71A-932DD4B59B34";
shapes = (
{
closed = 1;
nodes = (
(721,-59,l),
(778,0,l),
(669,109,l),
(729,181,o),
(760,275,o),
(760,371,cs),
(760,560,o),
(636,749,o),
(403,749,cs),
(168,749,o),
(45,560,o),
(45,371,cs),
(45,182,o),
(168,-10,o),
(403,-10,cs),
(486,-10,o),
(552,13,o),
(607,52,c)
);
},
{
closed = 1;
nodes = (
(541,117,l),
(502,92,o),
(458,77,o),
(403,77,cs),
(235,77,o),
(141,217,o),
(141,371,cs),
(141,524,o),
(235,663,o),
(403,663,cs),
(568,663,o),
(664,524,o),
(664,371,cs),
(664,298,o),
(644,228,o),
(601,175,c),
(482,294,l),
(421,236,l)
);
}
);
width = 800;
},
{
layerId = "C50750D9-3CEA-4BDB-8CD5-6DB84E6A41F9";
shapes = (
{
closed = 1;
nodes = (
(699,-18,l),
(721,0,l),
(634,87,l),
(706,160,o),
(742,266,o),
(742,366,cs),
(742,564,o),
(624,749,o),
(396,749,cs),
(168,749,o),
(50,561,o),
(50,370,cs),
(50,167,o),
(181,-10,o),
(396,-10,cs),
(481,-10,o),
(553,16,o),
(613,67,c)
);
},
{
closed = 1;
nodes = (
(587,91,l),
(532,46,o),
(467,24,o),
(392,24,cs),
(197,24,o),
(86,188,o),
(86,370,cs),
(86,557,o),
(198,716,o),
(396,716,cs),
(594,716,o),
(706,556,o),
(706,370,cs),
(706,262,o),
(674,176,o),
(609,111,c),
(457,263,l),
(432,242,l)
);
}
);
width = 767;
}
);
leftKerningGroup = O;
rightKerningGroup = Q;
unicode = 81;
},
{
glyphname = R;
leftMetricsKey = l;
layers = (
{
layerId = "D43A2A6F-68E8-45C4-A912-BD747FE79F37";
shapes = (
{
closed = 1;
nodes = (
(386,268,ls),
(552,268,o),
(665,351,o),
(665,504,cs),
(665,657,o),
(552,740,o),
(386,740,cs),
(222,740,l),
(222,575,l),
(383,575,ls),
(436,575,o),
(473,548,o),
(473,498,cs),
(473,448,o),
(436,421,o),
(383,421,cs),
(222,421,l),
(222,268,l)
);
},
{
closed = 1;
nodes = (
(680,0,l),
(524,322,l),
(329,299,l),
(469,0,l)
);
},
{
closed = 1;
nodes = (
(252,0,l),
(252,740,l),
(60,740,l),
(60,0,l)
);
}
);
width = 741;
},
{
layerId = "F1D6C389-2D1A-40EB-B71A-932DD4B59B34";
shapes = (
{
closed = 1;
nodes = (
(352,311,ls),
(509,311,o),
(587,418,o),
(587,526,cs),
(587,633,o),
(509,740,o),
(352,740,cs),
(147,740,l),
(147,654,l),
(351,654,ls),
(442,654,o),
(487,589,o),
(487,524,cs),
(487,460,o),
(442,395,o),
(351,395,cs),
(147,395,l),
(147,311,l)
);
},
{
closed = 1;
nodes = (
(613,0,l),
(407,353,l),
(303,346,l),
(502,0,l)
);
},
{
closed = 1;
nodes = (
(188,0,l),
(188,740,l),
(90,740,l),
(90,0,l)
);
}
);
width = 678;
},
{
layerId = "C50750D9-3CEA-4BDB-8CD5-6DB84E6A41F9";
shapes = (
{
closed = 1;
nodes = (
(315,344,ls),
(459,344,o),
(530,443,o),
(530,542,cs),
(530,641,o),
(459,740,o),
(315,740,cs),
(109,740,l),
(109,706,l),
(315,706,ls),
(435,706,o),
(494,624,o),
(494,542,cs),
(494,459,o),
(435,377,o),
(315,377,cs),
(109,377,l),
(109,344,l)
);
},
{
closed = 1;
nodes = (
(553,0,l),
(331,374,l),
(289,377,l),
(512,0,l)
);
},
{
closed = 1;
nodes = (
(125,0,l),
(125,740,l),
(90,740,l),
(90,0,l)
);
}
);
width = 639;
}
);
leftKerningGroup = l;
rightKerningGroup = R;
unicode = 82;
},
{
glyphname = Racute;
layers = (
{
layerId = "D43A2A6F-68E8-45C4-A912-BD747FE79F37";
shapes = (
{
closed = 1;
nodes = (
(386,268,ls),
(552,268,o),
(665,351,o),
(665,504,cs),
(665,657,o),
(552,740,o),
(386,740,cs),
(222,740,l),
(222,575,l),
(383,575,ls),
(436,575,o),
(473,548,o),
(473,498,cs),
(473,448,o),
(436,421,o),
(383,421,cs),
(222,421,l),
(222,268,l)
);
},
{
closed = 1;
nodes = (
(680,0,l),
(524,322,l),
(329,299,l),
(469,0,l)
);
},
{
closed = 1;
nodes = (
(252,0,l),
(252,740,l),
(60,740,l),
(60,0,l)
);
},
{
closed = 1;
nodes = (
(481,989,l),
(311,989,l),
(234,810,l),
(367,809,l)
);
}
);
width = 741;
},
{
layerId = "F1D6C389-2D1A-40EB-B71A-932DD4B59B34";
shapes = (
{
closed = 1;
nodes = (
(352,311,ls),
(509,311,o),
(587,418,o),
(587,526,cs),
(587,633,o),
(509,740,o),
(352,740,cs),
(147,740,l),
(147,654,l),
(351,654,ls),
(442,654,o),
(487,589,o),
(487,524,cs),
(487,460,o),
(442,395,o),
(351,395,cs),
(147,395,l),
(147,311,l)
);
},
{
closed = 1;
nodes = (
(613,0,l),
(407,353,l),
(303,346,l),
(502,0,l)
);
},
{
closed = 1;
nodes = (
(188,0,l),
(188,740,l),
(90,740,l),
(90,0,l)
);
},
{
closed = 1;
nodes = (
(417,1001,l),
(319,1001,l),
(233,821,l),
(314,820,l)
);
}
);
width = 678;
},
{
layerId = "C50750D9-3CEA-4BDB-8CD5-6DB84E6A41F9";
shapes = (
{
closed = 1;
nodes = (
(315,344,ls),
(459,344,o),
(530,443,o),
(530,542,cs),
(530,641,o),
(459,740,o),
(315,740,cs),
(109,740,l),
(109,706,l),
(315,706,ls),
(435,706,o),
(494,624,o),
(494,542,cs),
(494,459,o),
(435,377,o),
(315,377,cs),
(109,377,l),
(109,344,l)
);
},
{
closed = 1;
nodes = (
(553,0,l),
(331,374,l),
(289,377,l),
(512,0,l)
);
},
{
closed = 1;
nodes = (
(125,0,l),
(125,740,l),
(90,740,l),
(90,0,l)
);
},
{
closed = 1;
nodes = (
(403,980,l),
(362,980,l),
(277,828,l),
(311,828,l)
);
}
);
width = 639;
}
);
leftKerningGroup = l;
rightKerningGroup = R;
unicode = 340;
},
{
glyphname = Rcaron;
layers = (
{
layerId = "D43A2A6F-68E8-45C4-A912-BD747FE79F37";
shapes = (
{
closed = 1;
nodes = (
(386,268,ls),
(552,268,o),
(665,351,o),
(665,504,cs),
(665,657,o),
(552,740,o),
(386,740,cs),
(222,740,l),
(222,575,l),
(383,575,ls),
(436,575,o),
(473,548,o),
(473,498,cs),
(473,448,o),
(436,421,o),
(383,421,cs),
(222,421,l),
(222,268,l)
);
},
{
closed = 1;
nodes = (
(680,0,l),
(524,322,l),
(329,299,l),
(469,0,l)
);
},
{
closed = 1;
nodes = (
(252,0,l),
(252,740,l),
(60,740,l),
(60,0,l)
);
},
{
closed = 1;
nodes = (
(372,800,l),
(507,989,l),
(366,989,l),
(274,849,l),
(324,850,l),
(231,989,l),
(90,989,l),
(225,800,l)
);
}
);
width = 741;
},
{
layerId = "F1D6C389-2D1A-40EB-B71A-932DD4B59B34";
shapes = (
{
closed = 1;
nodes = (
(352,311,ls),
(509,311,o),
(587,418,o),
(587,526,cs),
(587,633,o),
(509,740,o),
(352,740,cs),
(147,740,l),
(147,654,l),
(351,654,ls),
(442,654,o),
(487,589,o),
(487,524,cs),
(487,460,o),
(442,395,o),
(351,395,cs),
(147,395,l),
(147,311,l)
);
},
{
closed = 1;
nodes = (
(613,0,l),
(407,353,l),
(303,346,l),
(502,0,l)
);
},
{
closed = 1;
nodes = (
(188,0,l),
(188,740,l),
(90,740,l),
(90,0,l)
);
},
{
closed = 1;
nodes = (
(315,805,l),
(436,972,l),
(350,972,l),
(248,828,l),
(300,828,l),
(199,972,l),
(113,972,l),
(234,805,l)
);
}
);
width = 678;
},
{
layerId = "C50750D9-3CEA-4BDB-8CD5-6DB84E6A41F9";
shapes = (
{
closed = 1;
nodes = (
(315,344,ls),
(459,344,o),
(530,443,o),
(530,542,cs),
(530,641,o),
(459,740,o),
(315,740,cs),
(109,740,l),
(109,706,l),
(315,706,ls),
(435,706,o),
(494,624,o),
(494,542,cs),
(494,459,o),
(435,377,o),
(315,377,cs),
(109,377,l),
(109,344,l)
);
},
{
closed = 1;
nodes = (
(553,0,l),
(331,374,l),
(289,377,l),
(512,0,l)
);
},
{
closed = 1;
nodes = (
(125,0,l),
(125,740,l),
(90,740,l),
(90,0,l)
);
},
{
closed = 1;
nodes = (
(307,818,l),
(418,970,l),
(381,970,l),
(279,833,l),
(299,833,l),
(196,970,l),
(159,970,l),
(270,818,l)
);
}
);
width = 639;
}
);
leftKerningGroup = l;
rightKerningGroup = R;
unicode = 344;
},
